<svg width="160" height="160" viewBox="0 0 160 160" fill="none" xmlns="http://www.w3.org/2000/svg">
<g clip-path="url(#clip0)">
<path d="M116.024 86.6114C99.1287 86.6114 85.3823 100.357 85.3823 117.254C85.3823 134.15 99.1283 147.896 116.024 147.896C132.921 147.896 146.667 134.15 146.667 117.254C146.667 100.357 132.921 86.6114 116.024 86.6114ZM116.024 143.208C101.713 143.208 90.0697 131.565 90.0697 117.254C90.0697 102.942 101.713 91.2988 116.024 91.2988C130.336 91.2988 141.979 102.942 141.979 117.254C141.979 131.565 130.336 143.208 116.024 143.208ZM24.3721 85.7712H36.2229C40.921 85.7712 44.7436 81.9486 44.7436 77.2504V65.3997C44.7436 60.7012 40.9213 56.8789 36.2229 56.8789H24.3721C19.6736 56.8789 15.8513 60.7012 15.8513 65.3997V77.2504C15.8517 81.9486 19.6736 85.7712 24.3721 85.7712ZM20.5391 65.4C20.5391 63.2862 22.2589 61.567 24.3724 61.567H36.2232C38.337 61.567 40.0562 63.2865 40.0562 65.4V77.2508C40.0562 79.3646 38.3367 81.0838 36.2232 81.0838H24.3721C22.2583 81.0838 20.5388 79.364 20.5388 77.2508L20.5391 65.4ZM24.3721 124.598H36.2229C40.921 124.598 44.7436 120.775 44.7436 116.077V104.226C44.7436 99.5277 40.9213 95.7054 36.2229 95.7054H24.3721C19.6736 95.7054 15.8513 99.5277 15.8513 104.226V116.077C15.8517 120.775 19.6736 124.598 24.3721 124.598ZM20.5391 104.227C20.5391 102.113 22.2589 100.393 24.3724 100.393H36.2232C38.337 100.393 40.0562 102.113 40.0562 104.227V116.077C40.0562 118.191 38.3367 119.91 36.2232 119.91H24.3721C22.2583 119.91 20.5388 118.19 20.5388 116.077L20.5391 104.227ZM63.1986 85.7712H75.0493C79.7478 85.7712 83.5701 81.9486 83.5701 77.2504V65.3997C83.5701 60.7012 79.7478 56.8789 75.0493 56.8789H63.1986C58.5001 56.8789 54.6778 60.7012 54.6778 65.3997V77.2504C54.6782 81.9486 58.5001 85.7712 63.1986 85.7712ZM59.3656 65.4C59.3656 63.2862 61.0854 61.567 63.1989 61.567H75.0497C77.1635 61.567 78.883 63.2865 78.883 65.4V77.2508C78.883 79.3646 77.1632 81.0838 75.0497 81.0838H63.1989C61.0851 81.0838 59.3656 79.364 59.3656 77.2508V65.4ZM125.196 114.91H116.995L107.747 105.661C106.831 104.746 105.347 104.746 104.432 105.661C103.517 106.577 103.517 108.061 104.432 108.976L114.367 118.911C114.807 119.351 115.402 119.597 116.024 119.597H125.196C126.491 119.597 127.54 118.548 127.54 117.254C127.54 115.959 126.491 114.91 125.196 114.91ZM137.019 80.0299V25.9901C137.019 17.5004 130.112 10.5932 121.622 10.5932H117.339V10.1783C117.339 4.56631 112.773 0 107.16 0C101.548 0 96.9816 4.56631 96.9816 10.1786V10.5935H79.3029V10.1786C79.3029 4.566 74.7366 0 69.1243 0C63.512 0 58.946 4.56631 58.946 10.1786V10.5935H41.2673V10.1786C41.2673 4.566 36.7006 0 31.0883 0C25.476 0 20.9094 4.56631 20.9094 10.1786V10.5935H16.6261C10.9755 10.5935 5.78813 13.6803 3.089 18.6494C2.47114 19.7868 2.89232 21.2098 4.03003 21.8276C5.16362 22.4436 6.58844 22.0278 7.20852 20.8869C9.08678 17.4292 12.6953 15.2809 16.6264 15.2809H20.9097V20.9337C20.9097 26.5464 25.4757 31.1123 31.088 31.1123C36.7003 31.1123 41.2666 26.546 41.2666 20.9337V15.2812H58.9453V20.934C58.9453 26.5467 63.5113 31.1127 69.1237 31.1127C74.736 31.1127 79.302 26.5464 79.302 20.934V15.2812H96.9807V20.934C96.9807 26.5467 101.547 31.1127 107.159 31.1127C112.772 31.1127 117.338 26.5464 117.338 20.934V15.2812H121.621C127.526 15.2812 132.33 20.0853 132.33 25.9905V42.257H5.91682V30.4426C5.91682 29.1484 4.86765 28.0989 3.57311 28.0989C2.27857 28.0989 1.2294 29.1484 1.2294 30.4426V118.054C1.2294 129.739 10.7358 139.245 22.4202 139.245H79.3826C86.8678 151.671 100.491 160 116.024 160C125.056 160 133.692 157.217 140.996 151.951C142.046 151.194 142.284 149.729 141.527 148.68C140.77 147.629 139.305 147.392 138.255 148.149C131.754 152.835 124.067 155.313 116.024 155.313C95.0389 155.313 77.9657 138.239 77.9657 117.254C77.9657 96.2683 95.0389 79.1948 116.024 79.1948C137.01 79.1948 154.083 96.268 154.083 117.254C154.083 126.006 151.196 134.232 145.732 141.045C144.922 142.055 145.084 143.53 146.094 144.34C147.104 145.149 148.579 144.988 149.388 143.978C155.438 136.434 158.77 126.943 158.77 117.254C158.771 101.309 149.994 87.3769 137.019 80.0299ZM36.5792 20.934C36.5792 23.9617 34.1157 26.4252 31.088 26.4252C28.0607 26.4252 25.5971 23.9617 25.5971 20.934V10.1786C25.5968 7.15097 28.0603 4.68742 31.0877 4.68742C34.1153 4.68742 36.5789 7.15097 36.5789 10.1786L36.5792 20.934ZM74.6152 20.934C74.6152 23.9617 72.1516 26.4252 69.1243 26.4252C66.0969 26.4252 63.6334 23.9617 63.6334 20.934V10.1786C63.6334 7.15097 66.0969 4.68742 69.1243 4.68742C72.1516 4.68742 74.6152 7.15097 74.6152 10.1786V20.934ZM112.651 20.934C112.651 23.9617 110.188 26.4252 107.16 26.4252C104.133 26.4252 101.669 23.9617 101.669 20.934V10.1786C101.669 7.15097 104.133 4.68742 107.16 4.68742C110.188 4.68742 112.651 7.15097 112.651 10.1786V20.934ZM117.709 74.5434C110.947 74.2797 104.371 75.591 98.3527 78.3341C98.0681 77.3804 98.2477 77.8433 98.1924 65.3997C98.1924 63.2862 99.9119 61.5667 102.025 61.5667H113.876C115.99 61.5667 117.709 63.2862 117.709 65.3997L117.709 74.5434ZM132.331 77.7425C129.19 76.441 125.861 75.5025 122.397 74.9823V65.3994C122.397 60.7012 118.574 56.8786 113.876 56.8786H102.025C97.3269 56.8786 93.5043 60.7009 93.5043 65.3994V77.2501C93.5043 78.3869 93.7339 79.5002 94.1668 80.5317C87.6998 84.3954 82.335 89.9176 78.661 96.5076C77.5461 95.9837 76.3211 95.7054 75.0487 95.7054H63.198C58.4995 95.7054 54.6772 99.5277 54.6772 104.226V116.077C54.6772 120.775 58.4998 124.598 63.198 124.598H73.9107C74.5159 128.079 75.5445 131.417 76.9399 134.558H22.4199C13.3198 134.558 5.91651 127.155 5.91651 118.054V46.9444H132.331L132.331 77.7425ZM73.363 119.91H63.1986C61.0848 119.91 59.3653 118.19 59.3653 116.077V104.227C59.3653 102.113 61.0851 100.393 63.1986 100.393H75.0493C75.5951 100.393 76.121 100.51 76.6041 100.725C74.1358 106.59 72.9434 113.099 73.363 119.91Z" fill="url(#paint0_linear)"/>
</g>
<defs>
<linearGradient id="paint0_linear" x1="79.9998" y1="160" x2="79.9998" y2="9.53675e-06" gradientUnits="userSpaceOnUse">
<stop stop-color="#B88BE4"/>
<stop offset="1" stop-color="#FFC9E3"/>
</linearGradient>
<clipPath id="clip0">
<rect width="160" height="160" fill="white"/>
</clipPath>
</defs>
</svg>
