<svg width="46" height="46" viewBox="0 0 46 46" fill="none" xmlns="http://www.w3.org/2000/svg">
<g clip-path="url(#clip0)">
<path d="M44.793 35.4875L43.0062 34.297C47.0359 27.2094 46.9909 18.5133 42.888 11.4678C38.7852 4.42232 31.2442 0.0912353 23.0911 0.0979726C22.6678 0.0979726 22.3246 0.441125 22.3246 0.864495C22.3246 1.28787 22.6678 1.63102 23.0911 1.63102C30.678 1.62536 37.6983 5.64554 41.5331 12.192C45.3679 18.7384 45.4414 26.828 41.7261 33.443L35.4795 29.2783C34.2978 28.4971 32.7143 28.7542 31.8406 29.8693L29.1316 33.3563C28.7828 33.8156 28.1496 33.9489 27.6453 33.6691L27.1294 33.3847C25.4192 32.4526 23.2913 31.292 19.0039 27.0032C14.7166 22.7143 13.5537 20.5848 12.6216 18.8777L12.3387 18.3618C12.0547 17.8577 12.1855 17.2214 12.6453 16.8701L16.13 14.1589C17.245 13.2853 17.5025 11.7019 16.7218 10.52L10.5127 1.20944C9.7125 0.00598621 8.10723 -0.355312 6.86856 0.389293L2.97522 2.72803C1.7519 3.44721 0.854409 4.61195 0.470923 5.97818C-0.93106 11.0865 0.123638 19.9026 13.1106 32.8911C18.7678 38.5483 23.6315 41.9364 27.7441 43.8528C21.4143 45.283 14.7777 43.7521 9.71384 39.694C4.65001 35.6357 1.71031 29.4919 1.72729 23.0027C1.72729 22.5793 1.38414 22.2361 0.960769 22.2361C0.537398 22.2361 0.194246 22.5793 0.194246 23.0027C0.206103 35.6447 10.4492 45.8912 23.0912 45.9073C25.4596 45.9081 27.8135 45.5372 30.0668 44.808C32.0998 45.5673 34.2485 45.9703 36.4184 45.9992C37.635 46.0045 38.8468 45.8462 40.0213 45.5286C41.3878 45.1456 42.5527 44.248 43.2714 43.0243L45.6125 39.1333C46.3582 37.8943 45.9971 36.288 44.793 35.4875ZM44.2947 38.3444L41.959 42.2377C41.4426 43.1224 40.6036 43.7727 39.6179 44.0521C37.3881 44.6654 34.3678 44.742 30.4868 43.3431C30.4252 43.3086 30.3591 43.2828 30.2905 43.2664C25.9978 41.6727 20.6679 38.2762 14.1929 31.8034C1.72882 19.34 0.654896 11.1003 1.94962 6.38377C2.22953 5.39851 2.87973 4.55958 3.76402 4.0427L7.65736 1.70701C8.19481 1.38363 8.89154 1.54038 9.23873 2.06265L12.6116 7.12648L15.4425 11.3724C15.7815 11.8851 15.6701 12.5722 15.1865 12.9515L11.701 15.6628C10.6403 16.4739 10.3374 17.9414 10.9904 19.1062L11.2672 19.609C12.2469 21.4058 13.4649 23.6411 17.9117 28.0872C22.3585 32.5331 24.593 33.7512 26.389 34.7308L26.8926 35.0083C28.0572 35.6613 29.5249 35.3585 30.3359 34.2978L33.0472 30.8122C33.4267 30.3289 34.1135 30.2176 34.6263 30.5562L43.9361 36.7653C44.4585 37.1112 44.6165 37.8067 44.2947 38.3444Z" fill="white"/>
</g>
<defs>
<clipPath id="clip0">
<rect width="46" height="46" fill="white"/>
</clipPath>
</defs>
</svg>
