<svg width="180" height="173" viewBox="0 0 180 173" fill="none" xmlns="http://www.w3.org/2000/svg">
<path fill-rule="evenodd" clip-rule="evenodd" d="M83.1075 0.470236L84.3688 1.01457C86.697 2.01929 88.7638 2.79254 90.8653 3.57881C91.3283 3.752 91.7929 3.92582 92.2623 4.10289C94.8595 5.08246 97.5776 6.15155 100.896 7.73752C101.838 8.18768 102.855 8.69732 103.963 9.27957C105.081 9.86752 106.291 10.5295 107.609 11.279C116.278 16.2113 121.337 23.6897 124.014 30.7604C126.607 37.6076 127.004 44.1798 126.206 47.8074C127.555 51.5404 128.612 54.4999 129.224 58.0949C129.415 59.2198 129.563 60.4031 129.663 61.6894C131.282 55.4123 133.734 49.3062 137.165 43.8987C134.944 40.4894 132.499 32.4687 137.18 22.6932L137.796 21.4066L138.754 22.4642C142.443 26.5387 143.264 31.0896 142.788 35.0846C142.709 35.7464 142.594 36.3935 142.451 37.0214C143.935 35.4302 145.541 33.948 147.275 32.5963C147.691 32.2712 148.293 32.3456 148.618 32.7623C148.944 33.1791 148.869 33.7804 148.452 34.1055C145.165 36.6684 142.347 39.7353 139.96 43.1545C139.672 43.6253 139.383 44.0509 139.103 44.4252C133.722 52.6835 130.722 62.7755 129.591 72.6344C128.142 85.259 123.161 97.2848 116.826 106.137C113.657 110.565 110.131 114.225 106.508 116.769C102.892 119.309 99.1195 120.777 95.4843 120.705C88.409 120.564 81.7168 116.713 76.1008 110.781C70.4777 104.843 65.855 96.7435 62.9026 87.8982C60.9244 81.9717 58.2249 73.1097 58.1517 65.853C58.1152 62.2312 58.7283 58.8383 60.5793 56.4177C62.4831 53.9281 65.5449 52.6544 69.9412 52.9863C76.7062 53.4971 83.2286 56.2963 87.3604 62.1463C91.4051 67.8729 93.0364 76.3493 90.5997 88.0442C93.6879 89.3357 95.8297 88.9837 96.8992 88.6788C97.4077 88.5339 97.9375 88.8284 98.0825 89.3367C98.2275 89.845 97.9329 90.3745 97.4244 90.5194C95.8938 90.9557 93.0255 91.3427 89.0886 89.4642L88.4022 89.1367L88.5661 88.3943C91.163 76.6342 89.5178 68.5196 85.796 63.25C82.0739 57.9801 76.147 55.3743 69.797 54.8949C65.8673 54.5981 63.5134 55.7326 62.1008 57.5799C60.6354 59.4963 60.0316 62.369 60.0665 65.8337C60.1363 72.7499 62.7336 81.344 64.7191 87.2925C67.5988 95.9199 72.0918 103.763 77.4916 109.466C82.8986 115.176 89.1366 118.664 95.5223 118.791C98.6177 118.853 101.995 117.599 105.407 115.203C108.813 112.812 112.193 109.321 115.268 105.024C121.416 96.4328 126.271 84.7232 127.685 72.4404C128.089 66.0357 127.928 61.8934 127.336 58.4159C126.768 55.0832 125.801 52.3242 124.491 48.6961C112.03 46.0999 99.3612 39.4498 91.342 28.9976C85.762 21.7245 82.449 12.6264 83.0332 1.8414L83.1075 0.470236ZM124.659 44.0077C124.678 40.6677 124.012 36.1619 122.223 31.4378C119.668 24.6899 114.864 17.6091 106.661 12.9424C105.934 12.5287 105.241 12.1426 104.58 11.7817C104.675 14.3617 104.578 18.3757 103.753 22.0319C106.033 23.8284 108.552 25.6941 111.33 27.6125C117.248 31.7005 121.758 37.7063 124.659 44.0077ZM102.075 20.6882C102.792 16.8926 102.756 12.8211 102.607 10.7307C102.26 10.5507 101.923 10.3784 101.595 10.2131C101.77 12.6941 101.835 16.5299 101.283 20.0372C101.544 20.253 101.808 20.4701 102.075 20.6882ZM99.5503 18.5739C99.9679 14.9863 99.7902 11.2105 99.5905 9.23676C96.5577 7.80804 94.0328 6.81635 91.5863 5.8936C91.1256 5.71986 90.6669 5.54824 90.2074 5.37638C88.8411 4.86524 87.469 4.35195 86.0244 3.77417C87.9553 6.95004 92.1208 12.1775 99.5503 18.5739ZM84.9022 5.58129C85.172 14.1861 88.1038 21.5401 92.6814 27.5962C99.9683 29.9028 105.784 29.14 108.794 28.1764C106.358 26.4545 104.125 24.7759 102.084 23.1523C101.234 22.4767 100.418 21.8107 99.6336 21.155C91.9342 14.7176 87.3021 9.25407 84.9022 5.58129ZM110.693 29.5055C116.593 33.7386 121.021 40.0459 123.68 46.5593C112.926 44.0892 102.212 38.5345 94.7813 30.1575C102.23 31.898 108.032 30.6815 110.693 29.5055ZM138.356 42.1071C139.454 40.2972 140.544 37.724 140.886 34.8579C141.264 31.6939 140.731 28.1858 138.288 24.9071C135.045 32.7346 136.68 39.0566 138.34 42.1296C138.346 42.1221 138.351 42.1146 138.356 42.1071ZM120.162 55.4017C110.425 53.7262 102.197 57.969 98.145 64.255C97.8586 64.6993 97.2661 64.8275 96.8216 64.5412C96.377 64.255 96.2488 63.6628 96.5352 63.2185C101.011 56.2736 110.009 51.7124 120.487 53.5154C121.008 53.6051 121.358 54.1001 121.268 54.6209C121.178 55.1418 120.683 55.4913 120.162 55.4017ZM118.718 66.9259C119.158 67.2185 119.278 67.8125 118.985 68.2527C116.642 71.7771 113.032 73.3629 109.645 73.9816C106.266 74.5991 103.008 74.2756 101.171 73.8891C100.653 73.7803 100.322 73.2728 100.431 72.7556C100.54 72.2384 101.048 71.9073 101.565 72.0162C103.219 72.364 106.219 72.6618 109.301 72.0988C112.376 71.5371 115.43 70.1408 117.391 67.1931C117.683 66.753 118.278 66.6333 118.718 66.9259ZM65.8884 68.0076C66.3401 67.7327 66.9291 67.8759 67.2041 68.3274C69.0039 71.2819 72.2226 72.52 75.4954 72.8263C78.7827 73.134 81.8803 72.4739 83.1183 71.9C83.598 71.6776 84.1672 71.886 84.3897 72.3654C84.6123 72.8449 84.4038 73.4138 83.9241 73.6363C82.3249 74.3777 78.8769 75.0652 75.3169 74.7319C71.7425 74.3974 67.8124 73.0062 65.5685 69.3227C65.2935 68.8712 65.4367 68.2824 65.8884 68.0076ZM93.0504 99.0074C98.3516 97.4955 102.233 98.631 105.165 100.821L105.773 101.275L105.469 101.971C103.733 105.943 99.1342 108.483 94.4864 108.838C89.7834 109.197 84.7508 107.344 82.2001 102.197L81.8756 101.542L82.4221 101.056C84.1264 99.5426 85.8933 98.6719 87.7534 98.386C89.5066 98.1166 91.2698 98.3777 93.0504 99.0074ZM102.147 101.217C99.8962 100.146 97.0507 99.798 93.2943 100.93L92.9838 101.024L92.6803 100.91C91.0127 100.282 89.4879 100.056 88.0445 100.278C87.1442 100.416 86.2437 100.734 85.3334 101.274C88.2238 101.857 90.7354 102.223 93.3413 102.261C95.9895 102.3 98.7638 102 102.147 101.217ZM102.509 103.097C99.0342 103.897 96.1238 104.216 93.3133 104.175C90.5791 104.135 87.9664 103.754 85.061 103.172C87.3528 106.093 90.8689 107.195 94.3404 106.929C97.6157 106.679 100.68 105.227 102.509 103.097Z" fill="url(#paint0_linear)"/>
<path d="M174.576 167.273L174.647 167.304C174.7 167.327 174.749 167.348 174.793 167.366C174.837 167.379 174.89 167.394 174.952 167.409C175.007 167.423 175.074 167.438 175.152 167.454L175.152 167.455C175.232 167.47 175.297 167.481 175.349 167.49C175.385 167.496 175.432 167.503 175.487 167.509C175.526 167.514 175.566 167.518 175.605 167.519C175.633 167.52 175.712 167.521 175.841 167.521C176.09 167.521 176.306 167.496 176.488 167.447C176.645 167.405 176.775 167.346 176.878 167.271C176.968 167.2 177.035 167.118 177.078 167.023C177.124 166.922 177.147 166.795 177.147 166.643C177.147 166.51 177.133 166.401 177.105 166.318C177.084 166.253 177.054 166.201 177.015 166.16L176.991 166.134C176.954 166.09 176.862 166.029 176.715 165.951C176.518 165.846 176.269 165.74 175.968 165.632L175.574 165.495L175.574 165.497C174.66 165.198 173.962 164.813 173.482 164.342C172.947 163.818 172.68 163.203 172.68 162.495C172.68 161.935 172.79 161.415 173.011 160.936C173.23 160.46 173.555 160.034 173.985 159.66L173.988 159.658C174.194 159.482 174.419 159.325 174.664 159.187C174.908 159.05 175.161 158.936 175.423 158.847C175.692 158.755 175.973 158.687 176.266 158.642C176.555 158.598 176.857 158.576 177.172 158.576C177.302 158.576 177.43 158.579 177.553 158.586C177.682 158.593 177.784 158.604 177.859 158.619C177.934 158.628 178.016 158.642 178.104 158.661C178.209 158.684 178.336 158.715 178.485 158.755L178.485 158.757C178.649 158.794 178.799 158.839 178.935 158.892C179.091 158.952 179.231 159.022 179.356 159.104L179.361 159.106L179.442 159.159C179.511 159.203 179.577 159.253 179.641 159.312C179.71 159.375 179.769 159.442 179.816 159.512L179.842 159.552L180 159.898V160.025C180 160.14 179.979 160.251 179.937 160.359C179.892 160.477 179.827 160.578 179.742 160.663L179.644 160.761L179.156 160.923L178.859 160.864L178.674 160.785L178.491 160.683L178.491 160.683C178.399 160.636 178.298 160.593 178.19 160.554C178.082 160.515 177.955 160.479 177.809 160.445L177.809 160.444C177.762 160.433 177.701 160.421 177.629 160.408C177.538 160.392 177.47 160.381 177.425 160.375C177.303 160.359 177.165 160.351 177.013 160.351C176.613 160.351 176.256 160.404 175.941 160.511C175.636 160.615 175.367 160.769 175.133 160.974L175.128 160.979C174.9 161.174 174.731 161.391 174.62 161.63C174.511 161.867 174.456 162.134 174.456 162.432C174.456 162.676 174.585 162.911 174.844 163.137C175.181 163.432 175.71 163.701 176.43 163.944L176.43 163.945L176.769 164.052L176.769 164.05C177.121 164.162 177.43 164.292 177.697 164.441C177.975 164.596 178.205 164.773 178.386 164.971L178.386 164.97C178.589 165.179 178.74 165.42 178.841 165.693C178.938 165.954 178.986 166.239 178.986 166.548C178.986 166.951 178.908 167.323 178.753 167.665C178.597 168.007 178.367 168.311 178.061 168.575C177.766 168.83 177.425 169.021 177.039 169.146C176.667 169.267 176.257 169.327 175.809 169.327C175.597 169.327 175.415 169.32 175.263 169.307C175.174 169.299 175.075 169.285 174.968 169.266C174.891 169.253 174.762 169.227 174.58 169.19L174.58 169.191C174.4 169.159 174.234 169.116 174.082 169.062C173.929 169.008 173.791 168.942 173.669 168.866L173.65 168.856C173.584 168.827 173.523 168.792 173.465 168.752C173.385 168.696 173.318 168.632 173.264 168.559L173.188 168.458L173.092 168.076V168.004C173.092 167.9 173.108 167.799 173.141 167.7C173.183 167.575 173.247 167.47 173.334 167.383L173.336 167.384C173.42 167.299 173.522 167.233 173.641 167.186C173.734 167.149 173.835 167.125 173.944 167.114L173.992 167.109H174.411L174.576 167.273L174.576 167.273Z" fill="url(#paint1_linear)"/>
<path d="M158.769 166.386L157.558 168.685L157.535 168.725C157.492 168.793 157.449 168.853 157.407 168.903C157.369 168.949 157.328 168.991 157.286 169.029C157.228 169.085 157.158 169.136 157.077 169.18C157.004 169.22 156.93 169.25 156.854 169.272L156.77 169.296H156.687C156.486 169.296 156.303 169.226 156.138 169.087C156.032 168.997 155.937 168.878 155.854 168.73L155.847 168.714L151.229 159.914L151.188 159.79L151.118 159.487V159.424C151.118 159.319 151.139 159.215 151.179 159.113C151.221 159.007 151.283 158.914 151.363 158.834L151.377 158.82L151.413 158.791C151.487 158.732 151.565 158.685 151.645 158.652C151.724 158.619 151.808 158.596 151.896 158.583L152.037 158.563L152.453 158.703L152.746 158.994L156.693 166.546L157.788 164.502L155.432 159.956L155.427 159.949L155.336 159.765L155.242 159.391L155.309 159.212C155.336 159.138 155.359 159.084 155.376 159.049C155.419 158.963 155.469 158.891 155.526 158.834L155.6 158.761L156.09 158.537L156.494 158.659L156.529 158.674C156.626 158.715 156.711 158.769 156.785 158.834H156.787C156.866 158.905 156.929 158.986 156.974 159.08L156.975 159.079L158.787 162.556L160.604 158.985L160.676 158.913C160.721 158.869 160.766 158.83 160.812 158.795C160.875 158.748 160.94 158.711 161.006 158.685L161.006 158.685L161.277 158.576H161.391C161.52 158.576 161.645 158.606 161.766 158.667C161.856 158.712 161.936 158.77 162.005 158.842C162.064 158.896 162.114 158.961 162.156 159.037C162.194 159.105 162.225 159.179 162.247 159.257L162.292 159.413L162.172 159.89L159.782 164.441L160.868 166.526L164.79 158.995L165.043 158.742L165.416 158.576H165.541C165.657 158.576 165.772 158.602 165.885 158.653C165.962 158.688 166.033 158.734 166.098 158.791C166.18 158.852 166.248 158.927 166.301 159.015C166.359 159.111 166.397 159.219 166.414 159.338L166.425 159.415L166.39 159.726L166.307 159.918L166.286 159.959L161.72 168.66C161.68 168.747 161.633 168.826 161.58 168.896C161.53 168.961 161.474 169.017 161.413 169.066C161.351 169.125 161.279 169.174 161.196 169.211C161.107 169.252 161.011 169.279 160.911 169.291L160.872 169.296H160.837C160.644 169.296 160.47 169.229 160.315 169.094C160.218 169.01 160.134 168.902 160.062 168.768L160.015 168.689L158.769 166.386V166.386Z" fill="url(#paint2_linear)"/>
<path d="M140.371 160.382C139.874 160.382 139.418 160.47 139.004 160.645C138.586 160.821 138.199 161.09 137.844 161.449C137.493 161.804 137.231 162.19 137.058 162.606C136.886 163.018 136.801 163.466 136.801 163.951C136.801 164.433 136.887 164.878 137.059 165.287C137.234 165.702 137.501 166.091 137.859 166.454C138.214 166.813 138.6 167.081 139.018 167.258C139.43 167.433 139.882 167.521 140.371 167.521C140.862 167.521 141.314 167.435 141.726 167.264C142.138 167.092 142.519 166.831 142.87 166.481L142.871 166.482C143.221 166.132 143.482 165.748 143.654 165.331C143.825 164.915 143.911 164.455 143.911 163.951C143.911 163.444 143.825 162.98 143.655 162.561C143.486 162.146 143.23 161.766 142.886 161.422L142.884 161.418C142.54 161.07 142.162 160.811 141.748 160.639C141.334 160.468 140.875 160.382 140.371 160.382H140.371ZM140.371 158.576C141.114 158.576 141.805 158.708 142.444 158.972C143.082 159.235 143.66 159.628 144.176 160.149C144.698 160.665 145.09 161.242 145.354 161.88C145.618 162.519 145.75 163.209 145.75 163.951C145.75 164.691 145.617 165.379 145.35 166.018C145.084 166.653 144.688 167.232 144.16 167.754L144.161 167.755C143.907 168.009 143.636 168.235 143.347 168.434C143.06 168.631 142.759 168.796 142.445 168.929C142.129 169.063 141.797 169.163 141.449 169.228C141.101 169.294 140.742 169.327 140.371 169.327C139.64 169.327 138.957 169.194 138.322 168.927C137.692 168.663 137.113 168.267 136.584 167.739L136.582 167.737C136.054 167.209 135.658 166.63 135.393 166C135.126 165.365 134.993 164.682 134.993 163.951C134.993 163.231 135.124 162.553 135.385 161.919C135.645 161.29 136.031 160.713 136.543 160.189C137.06 159.654 137.639 159.252 138.282 158.982C138.926 158.711 139.623 158.576 140.371 158.576L140.371 158.576Z" fill="url(#paint3_linear)"/>
<path d="M121.129 161.719C121.129 161.378 121.111 161.101 121.076 160.885C121.046 160.709 121.01 160.586 120.969 160.519L120.955 160.495C120.936 160.462 120.912 160.437 120.882 160.423C120.829 160.396 120.745 160.383 120.632 160.383C120.469 160.383 120.268 160.437 120.029 160.547C119.752 160.674 119.43 160.874 119.064 161.147L119.054 161.152L118.61 161.472L118.343 161.605L118.125 161.649H118.065C117.891 161.649 117.729 161.604 117.579 161.513L117.555 161.499L117.526 161.477C117.435 161.409 117.362 161.326 117.308 161.227V161.225C117.259 161.137 117.227 161.045 117.211 160.949L117.201 160.891V160.848C117.201 160.774 117.208 160.703 117.221 160.637C117.242 160.532 117.279 160.438 117.333 160.356L117.351 160.329L117.476 160.184L117.507 160.15L117.57 160.087L117.601 160.058C117.878 159.816 118.145 159.605 118.404 159.426C118.677 159.237 118.935 159.085 119.181 158.968C119.433 158.843 119.688 158.747 119.944 158.68C120.213 158.611 120.474 158.576 120.726 158.576C121.429 158.576 121.979 158.832 122.376 159.345L122.376 159.345C122.569 159.589 122.712 159.879 122.806 160.215C122.856 160.396 122.892 160.587 122.913 160.791C123.169 160.558 123.407 160.348 123.628 160.162C124.135 159.733 124.558 159.418 124.899 159.216C125.249 159.008 125.598 158.85 125.945 158.743C126.305 158.631 126.656 158.576 126.999 158.576C127.406 158.576 127.781 158.643 128.124 158.777C128.471 158.913 128.779 159.117 129.045 159.389L129.046 159.388C129.312 159.653 129.513 159.967 129.648 160.328C129.778 160.674 129.843 161.053 129.843 161.466C129.843 161.806 129.803 162.126 129.723 162.428C129.64 162.739 129.516 163.024 129.349 163.283L129.344 163.288C129.176 163.544 128.968 163.771 128.719 163.971C128.477 164.165 128.198 164.333 127.883 164.476L127.857 164.485L127.584 164.593H127.296L127.212 164.57C127.167 164.557 127.117 164.539 127.06 164.517C126.989 164.488 126.932 164.46 126.887 164.43L126.784 164.363L126.713 164.256C126.657 164.173 126.619 164.079 126.598 163.976C126.585 163.91 126.578 163.838 126.578 163.762V163.678L126.685 163.306L126.981 163.06L127.083 163.008C127.284 162.897 127.452 162.783 127.589 162.666C127.706 162.565 127.797 162.464 127.859 162.363L127.867 162.351C127.934 162.249 127.983 162.14 128.016 162.026C128.05 161.905 128.067 161.771 128.067 161.624C128.067 161.407 128.04 161.22 127.984 161.063C127.934 160.922 127.862 160.802 127.766 160.703L127.752 160.686C127.664 160.59 127.555 160.516 127.425 160.466C127.28 160.41 127.101 160.382 126.888 160.382C126.721 160.382 126.522 160.428 126.294 160.518C126.033 160.62 125.742 160.779 125.419 160.992L125.418 160.992C125.087 161.214 124.702 161.517 124.264 161.9C123.866 162.247 123.423 162.662 122.937 163.142V168.242C122.937 168.361 122.91 168.479 122.856 168.596C122.817 168.68 122.763 168.762 122.694 168.843L122.694 168.843C122.606 168.946 122.502 169.026 122.382 169.082C122.257 169.14 122.128 169.169 121.993 169.169C121.731 169.169 121.518 169.087 121.356 168.924L121.304 168.872L121.265 168.807C121.212 168.719 121.175 168.618 121.153 168.504C121.137 168.42 121.13 168.332 121.13 168.242V161.719L121.129 161.719Z" fill="url(#paint4_linear)"/>
<path d="M96.7264 172.795C96.5444 172.795 96.3848 172.779 96.2477 172.747C96.0461 172.699 95.8829 172.613 95.7583 172.49L95.7559 172.487C95.6369 172.367 95.5551 172.212 95.5107 172.022C95.4811 171.895 95.4663 171.748 95.4663 171.583V159.274H93.0198C92.9115 159.274 92.8109 159.261 92.7183 159.235C92.5791 159.195 92.4616 159.128 92.3665 159.032L92.3616 159.028L92.3235 158.98C92.2603 158.901 92.2099 158.812 92.1725 158.713C92.1449 158.639 92.1221 158.553 92.1042 158.455L92.0923 158.389V158.347C92.0923 158.051 92.1954 157.825 92.4015 157.671L92.5019 157.596L92.9509 157.484H95.4663V143.402C95.4663 143.225 95.5175 143.062 95.6196 142.914C95.7007 142.796 95.8105 142.699 95.9487 142.621C96.0615 142.553 96.1848 142.503 96.3187 142.472H96.3211C96.4483 142.443 96.5834 142.428 96.7264 142.428H102.92C104.416 142.428 105.764 142.622 106.963 143.009C108.181 143.403 109.238 143.993 110.134 144.781L110.133 144.782C111.036 145.571 111.715 146.501 112.168 147.572C112.619 148.635 112.844 149.826 112.844 151.144C112.844 152.086 112.693 152.979 112.39 153.823C112.088 154.666 111.638 155.449 111.04 156.172C110.442 156.895 109.746 157.496 108.953 157.975C108.588 158.195 108.203 158.39 107.799 158.557C107.998 158.681 108.19 158.813 108.372 158.954C108.959 159.406 109.455 159.943 109.861 160.563L109.86 160.563C110.27 161.176 110.577 161.849 110.781 162.583C110.984 163.313 111.086 164.096 111.086 164.934C111.086 166.168 110.893 167.271 110.506 168.241C110.113 169.229 109.524 170.068 108.74 170.758L108.739 170.757C107.966 171.443 107.029 171.956 105.93 172.295C104.852 172.628 103.622 172.795 102.239 172.795H96.7264L96.7264 172.795ZM103.538 159.274H97.3054V171.004H101.431C102.088 171.004 102.662 170.989 103.153 170.959C103.403 170.944 103.643 170.924 103.874 170.898C104.092 170.874 104.304 170.844 104.509 170.808H104.519C104.879 170.75 105.219 170.669 105.539 170.564C105.853 170.461 106.138 170.339 106.394 170.197L106.394 170.196C106.844 169.945 107.242 169.644 107.59 169.292C107.937 168.94 108.234 168.536 108.481 168.081L108.484 168.076C108.738 167.615 108.929 167.127 109.056 166.613C109.183 166.097 109.247 165.548 109.247 164.965C109.247 164.063 109.12 163.262 108.865 162.564C108.616 161.881 108.243 161.288 107.747 160.787C107.251 160.287 106.659 159.911 105.971 159.66C105.267 159.403 104.456 159.274 103.538 159.274H103.538ZM103.316 144.266H97.3054V157.484H103.015C103.771 157.484 104.425 157.461 104.976 157.415C105.517 157.37 105.951 157.305 106.279 157.222L106.278 157.22C106.622 157.129 106.96 157.006 107.294 156.852C107.631 156.697 107.966 156.51 108.297 156.291L108.297 156.291C108.713 156.01 109.084 155.688 109.408 155.326C109.735 154.962 110.022 154.549 110.27 154.088L110.269 154.088C110.516 153.623 110.7 153.149 110.822 152.666C110.944 152.184 111.005 151.687 111.005 151.176C111.005 150.146 110.83 149.22 110.481 148.396C110.134 147.578 109.61 146.85 108.909 146.212L108.906 146.21C108.206 145.564 107.397 145.079 106.477 144.757C105.545 144.43 104.491 144.266 103.316 144.266L103.316 144.266Z" fill="url(#paint5_linear)"/>
<path d="M68.4694 164.838V165.029C68.4694 166.04 68.6113 166.728 68.8951 167.092L68.8931 167.094C69.0121 167.24 69.1759 167.352 69.3845 167.431C69.6271 167.523 69.9317 167.569 70.2983 167.569C70.567 167.569 70.779 167.552 70.9344 167.519L70.9416 167.517C71.0207 167.501 71.0984 167.479 71.1748 167.451C71.255 167.421 71.3495 167.378 71.4581 167.321L71.4586 167.322C71.6135 167.24 71.7828 167.119 71.9662 166.957C72.1659 166.782 72.3736 166.567 72.5891 166.313L72.6225 166.275L72.6969 166.201L72.814 166.054L72.8285 166.04C72.9148 165.954 73.0147 165.892 73.1288 165.854C73.2153 165.826 73.3065 165.811 73.4028 165.811C73.5187 165.811 73.6294 165.831 73.7347 165.872C73.8266 165.907 73.9096 165.955 73.9834 166.017C74.0795 166.084 74.1565 166.171 74.2143 166.277C74.2809 166.4 74.3144 166.532 74.3144 166.675C74.3144 166.799 74.2828 166.924 74.2198 167.05C74.1755 167.138 74.12 167.221 74.0533 167.297L74.0527 167.297L74.042 167.31L74.0201 167.352C73.8463 167.641 73.6239 167.907 73.3528 168.149C73.092 168.383 72.787 168.592 72.4379 168.779L72.4355 168.781C72.0953 168.96 71.7458 169.096 71.387 169.188C71.0223 169.281 70.6594 169.328 70.2983 169.328C69.6966 169.328 69.1673 169.249 68.7105 169.09C68.2205 168.92 67.8217 168.661 67.5142 168.313L67.5047 168.303C67.3556 168.127 67.2261 167.926 67.1161 167.7C67.0128 167.487 66.9267 167.249 66.8578 166.986C66.7919 166.734 66.7427 166.455 66.7105 166.151C66.6783 165.846 66.6621 165.525 66.6621 165.187V165.029L66.6645 165.019L66.7477 160.604H64.4216C64.3092 160.604 64.2012 160.588 64.0979 160.556C63.9811 160.52 63.8748 160.462 63.7795 160.382L63.7367 160.347L63.7008 160.304C63.625 160.213 63.5686 160.112 63.5315 160.001C63.496 159.895 63.4783 159.787 63.4783 159.677C63.4783 159.55 63.5008 159.433 63.5459 159.325C63.6104 159.17 63.7137 159.05 63.8559 158.965L63.9344 158.918L64.3528 158.814H66.7784L66.9966 152.031H66.9948C66.9948 151.918 67.0126 151.808 67.048 151.701C67.0928 151.567 67.1612 151.453 67.2527 151.362L67.2539 151.363C67.3379 151.279 67.4295 151.214 67.5284 151.169C67.6452 151.115 67.766 151.088 67.8905 151.088C68.1541 151.088 68.3607 151.169 68.5119 151.331L68.5124 151.33C68.5977 151.415 68.6642 151.525 68.7112 151.658C68.7405 151.741 68.7632 151.835 68.779 151.94L68.7854 151.982L68.6101 158.814H72.3414C72.4604 158.814 72.5786 158.841 72.6957 158.895C72.7804 158.934 72.863 158.988 72.9434 159.056C73.0446 159.143 73.1224 159.241 73.1768 159.35C73.2382 159.473 73.2688 159.603 73.2688 159.741C73.2688 159.86 73.2465 159.974 73.2015 160.083C73.1487 160.21 73.0677 160.318 72.9585 160.405L72.8557 160.488L72.4155 160.604H68.5505L68.4673 164.839H68.4694L68.4694 164.838Z" fill="url(#paint6_linear)"/>
<path d="M53.0494 167.273L53.1205 167.304C53.1509 167.317 53.2018 167.339 53.2738 167.369C53.3161 167.381 53.3664 167.395 53.4245 167.409C53.4796 167.423 53.5466 167.438 53.6255 167.454L53.6252 167.455C53.7047 167.47 53.7702 167.481 53.8224 167.49C53.8577 167.496 53.9045 167.503 53.9604 167.509C53.9993 167.514 54.0385 167.518 54.078 167.519C54.1062 167.52 54.1849 167.521 54.314 167.521C54.5632 167.521 54.7788 167.496 54.9606 167.447C55.118 167.405 55.2483 167.346 55.3513 167.271C55.4411 167.2 55.5076 167.117 55.5506 167.023C55.5969 166.922 55.6201 166.795 55.6201 166.643C55.6201 166.508 55.6061 166.399 55.5782 166.315C55.5574 166.253 55.5275 166.201 55.4886 166.16L55.4647 166.134C55.4271 166.09 55.3348 166.029 55.188 165.951C54.9907 165.846 54.7418 165.74 54.4415 165.632L54.047 165.495L54.0465 165.497C53.1327 165.198 52.4354 164.813 51.9548 164.342C51.4205 163.818 51.1533 163.203 51.1533 162.495C51.1533 161.935 51.2634 161.415 51.4837 160.936C51.7029 160.46 52.0278 160.034 52.4584 159.66L52.4608 159.658C52.6671 159.482 52.8924 159.325 53.1368 159.187C53.3807 159.05 53.6341 158.936 53.8969 158.847C54.1653 158.755 54.4459 158.687 54.7386 158.642C55.0284 158.598 55.3304 158.576 55.6445 158.576C55.7755 158.576 55.9028 158.579 56.0265 158.586C56.1553 158.593 56.257 158.604 56.3316 158.619C56.4074 158.628 56.4893 158.642 56.5773 158.661C56.6818 158.684 56.8088 158.715 56.9583 158.755L56.958 158.757C57.1225 158.794 57.2726 158.839 57.4085 158.892C57.5639 158.952 57.7042 159.022 57.8295 159.104L57.8342 159.106L57.9148 159.159C57.9839 159.203 58.0505 159.254 58.1141 159.312C58.1855 159.377 58.2445 159.445 58.291 159.515L58.3142 159.55L58.4729 159.898V160.025C58.4729 160.14 58.452 160.251 58.4102 160.359C58.3659 160.474 58.3007 160.574 58.2146 160.66L58.113 160.762L57.6286 160.923L57.332 160.864L57.1472 160.785L56.9642 160.683L56.9643 160.683C56.8716 160.636 56.7712 160.593 56.6631 160.554C56.5546 160.515 56.4277 160.479 56.2826 160.445L56.2827 160.444C56.235 160.433 56.1746 160.421 56.1019 160.408C56.0109 160.392 55.9433 160.381 55.8984 160.375C55.84 160.368 55.773 160.361 55.6975 160.356C55.6404 160.353 55.5699 160.351 55.4861 160.351C55.0865 160.351 54.7292 160.404 54.4144 160.511C54.1095 160.615 53.84 160.769 53.6061 160.974L53.6014 160.979C53.3736 161.174 53.2043 161.391 53.0935 161.63C52.9838 161.867 52.9289 162.134 52.9289 162.432C52.9289 162.676 53.0583 162.911 53.317 163.137C53.6545 163.432 54.1833 163.701 54.9034 163.944L54.9032 163.945L55.2417 164.052L55.2423 164.05C55.5935 164.162 55.9027 164.292 56.1699 164.441C56.4586 164.602 56.6934 164.783 56.8742 164.985L56.8739 164.985C57.0689 165.191 57.2157 165.427 57.3141 165.693C57.4108 165.954 57.4592 166.239 57.4592 166.548C57.4592 166.951 57.3814 167.323 57.226 167.665C57.0704 168.007 56.8397 168.311 56.5339 168.575C56.2385 168.83 55.898 169.021 55.5123 169.146C55.1398 169.267 54.7298 169.327 54.2822 169.327C54.0699 169.327 53.8879 169.32 53.7363 169.307C53.6465 169.299 53.5478 169.285 53.4405 169.266C53.3646 169.253 53.2354 169.227 53.0529 169.19L53.0527 169.191C52.873 169.159 52.7072 169.116 52.5553 169.062C52.4042 169.008 52.2661 168.942 52.1411 168.865C52.0687 168.833 52.0012 168.796 51.9383 168.752C51.8585 168.696 51.7913 168.632 51.7366 168.559L51.6607 168.458L51.565 168.076V168.004C51.565 167.754 51.6458 167.548 51.8074 167.385C51.8921 167.3 51.9944 167.234 52.1138 167.186C52.2072 167.149 52.3083 167.125 52.4169 167.114L52.4646 167.109H52.8842L53.0494 167.273L53.0494 167.273Z" fill="url(#paint7_linear)"/>
<path d="M34.2181 164.284V159.519C34.2181 159.396 34.2412 159.276 34.2873 159.161C34.3336 159.046 34.402 158.943 34.4921 158.852L34.4945 158.85C34.5851 158.76 34.6884 158.691 34.8042 158.645C34.9192 158.599 35.0383 158.576 35.1615 158.576C35.3136 158.576 35.4532 158.613 35.5801 158.687V158.689C35.7058 158.763 35.8062 158.865 35.8812 158.997L35.925 159.074L36.0257 159.526V164.015C36.0257 164.65 36.089 165.197 36.2156 165.654C36.3346 166.083 36.5076 166.435 36.7346 166.709L36.7355 166.708C36.9596 166.973 37.2415 167.172 37.5811 167.306C37.944 167.449 38.3783 167.521 38.8838 167.521C39.3871 167.521 39.8168 167.452 40.173 167.314C40.5064 167.185 40.7823 166.994 41.0007 166.74L41.0005 166.74C41.2287 166.47 41.4021 166.119 41.5204 165.687C41.6471 165.226 41.7104 164.668 41.7104 164.015V159.519C41.7104 159.397 41.7335 159.279 41.7795 159.164V159.162C41.8271 159.043 41.8953 158.939 41.9842 158.85L42.02 158.819C42.1149 158.737 42.2202 158.676 42.3361 158.635C42.4484 158.596 42.5649 158.576 42.6855 158.576C42.835 158.576 42.9747 158.614 43.1041 158.689C43.2302 158.763 43.3307 158.866 43.4048 158.997L43.4488 159.074L43.5495 159.526V164.284C43.5495 165.049 43.452 165.736 43.2571 166.348C43.056 166.978 42.7516 167.518 42.3441 167.969C41.9311 168.426 41.4282 168.768 40.8354 168.995C40.2593 169.217 39.6087 169.327 38.8838 169.327C38.166 169.327 37.5221 169.219 36.9522 169.002C36.3657 168.779 35.863 168.442 35.444 167.992C35.0292 167.546 34.7193 167.006 34.5144 166.37C34.3169 165.757 34.2181 165.061 34.2181 164.284L34.2181 164.284Z" fill="url(#paint8_linear)"/>
<path fill-rule="evenodd" clip-rule="evenodd" d="M34.7528 140.74L36.0399 140.624L35.66 141.858C33.0543 150.328 27.1422 153.816 23.888 154.652V158.378L23.888 158.378C23.888 159.432 23.8542 160.407 23.7866 161.301C23.7192 162.192 23.617 163.002 23.4801 163.731L23.4792 163.73C23.3464 164.465 23.1737 165.135 22.9612 165.742C22.7432 166.365 22.4833 166.924 22.1816 167.419L22.181 167.418C21.6627 168.296 21.0399 169.08 20.3127 169.767C19.5828 170.458 18.7543 171.047 17.8271 171.535C16.9032 172.025 15.93 172.391 14.9078 172.635C13.8871 172.878 12.8173 173 11.6985 173C10.334 173 9.03228 172.794 7.79347 172.381C6.55762 171.969 5.39369 171.353 4.30181 170.534L4.30067 170.535C3.20775 169.72 2.30889 168.798 1.60419 167.77C0.898129 166.739 0.390833 165.604 0.0824513 164.366L0.0800593 164.351L0.051519 164.223L0.0507715 164.223L0 164.02V163.951C0 163.862 0.0127228 163.775 0.0381384 163.69C0.0660657 163.597 0.110573 163.509 0.17157 163.428L0.200604 163.389L0.228815 163.361C0.301803 163.289 0.387663 163.23 0.486291 163.184C0.556692 163.152 0.638949 163.125 0.732927 163.104L0.807978 163.087H0.864132C0.980401 163.087 1.09265 163.11 1.20078 163.155C1.28768 163.191 1.36736 163.241 1.43983 163.304C1.51757 163.364 1.58507 163.438 1.64227 163.527C1.68966 163.601 1.73202 163.689 1.76929 163.791L1.76885 163.791L1.80336 163.878C2.22734 165.083 2.76477 166.142 3.41564 167.054C4.05921 167.955 4.81535 168.714 5.684 169.329C6.55275 169.949 7.51267 170.414 8.56371 170.725C9.62122 171.037 10.777 171.193 12.0311 171.193C12.8205 171.193 13.5838 171.11 14.321 170.945C15.062 170.778 15.7855 170.527 16.4913 170.192H16.4937C17.196 169.864 17.84 169.467 18.4257 169.004C19.0065 168.544 19.5347 168.011 20.0101 167.406L20.0125 167.403C20.3714 166.952 20.6805 166.44 20.9396 165.866C21.2036 165.281 21.4153 164.635 21.5746 163.929V163.926C21.7415 163.203 21.8674 162.325 21.9523 161.291C22.0378 160.25 22.0806 159.052 22.0806 157.698V143.212C22.0806 143.089 22.1036 142.97 22.1497 142.855C22.1962 142.738 22.2645 142.635 22.3545 142.545C22.4451 142.454 22.55 142.385 22.669 142.338C22.7846 142.292 22.9029 142.269 23.0239 142.269C23.1487 142.269 23.2654 142.291 23.3741 142.336H23.3765C23.4975 142.386 23.5973 142.46 23.676 142.559C23.7555 142.646 23.812 142.757 23.8452 142.89V142.892C23.8644 142.969 23.878 143.061 23.8856 143.169L23.888 143.212V148.455C24.272 147.667 24.733 146.879 25.2806 146.122C27.2186 143.443 30.2529 141.149 34.7528 140.74ZM24.2314 152.733C26.8989 151.77 31.2051 148.921 33.5547 142.662C30.3766 143.301 28.1775 145.076 26.686 147.138C25.3458 148.99 24.5843 151.069 24.2314 152.733Z" fill="url(#paint9_linear)"/>
<defs>
<linearGradient id="paint0_linear" x1="104.448" y1="0.894368" x2="102.064" y2="120.836" gradientUnits="userSpaceOnUse">
<stop offset="0.229167" stop-color="#8474CD"/>
<stop offset="1" stop-color="#EDA2C6"/>
</linearGradient>
<linearGradient id="paint1_linear" x1="176.34" y1="158.576" x2="176.34" y2="169.327" gradientUnits="userSpaceOnUse">
<stop offset="0.229167" stop-color="#8474CD"/>
<stop offset="1" stop-color="#EDA2C6"/>
</linearGradient>
<linearGradient id="paint2_linear" x1="158.771" y1="158.537" x2="158.771" y2="169.296" gradientUnits="userSpaceOnUse">
<stop offset="0.229167" stop-color="#8474CD"/>
<stop offset="1" stop-color="#EDA2C6"/>
</linearGradient>
<linearGradient id="paint3_linear" x1="140.372" y1="158.576" x2="140.372" y2="169.327" gradientUnits="userSpaceOnUse">
<stop offset="0.229167" stop-color="#8474CD"/>
<stop offset="1" stop-color="#EDA2C6"/>
</linearGradient>
<linearGradient id="paint4_linear" x1="123.522" y1="158.576" x2="123.522" y2="169.169" gradientUnits="userSpaceOnUse">
<stop offset="0.229167" stop-color="#8474CD"/>
<stop offset="1" stop-color="#EDA2C6"/>
</linearGradient>
<linearGradient id="paint5_linear" x1="102.468" y1="142.428" x2="102.468" y2="172.795" gradientUnits="userSpaceOnUse">
<stop offset="0.229167" stop-color="#8474CD"/>
<stop offset="1" stop-color="#EDA2C6"/>
</linearGradient>
<linearGradient id="paint6_linear" x1="68.8963" y1="151.088" x2="68.8963" y2="169.328" gradientUnits="userSpaceOnUse">
<stop offset="0.229167" stop-color="#8474CD"/>
<stop offset="1" stop-color="#EDA2C6"/>
</linearGradient>
<linearGradient id="paint7_linear" x1="54.8131" y1="158.576" x2="54.8131" y2="169.327" gradientUnits="userSpaceOnUse">
<stop offset="0.229167" stop-color="#8474CD"/>
<stop offset="1" stop-color="#EDA2C6"/>
</linearGradient>
<linearGradient id="paint8_linear" x1="38.8838" y1="158.576" x2="38.8838" y2="169.327" gradientUnits="userSpaceOnUse">
<stop offset="0.229167" stop-color="#8474CD"/>
<stop offset="1" stop-color="#EDA2C6"/>
</linearGradient>
<linearGradient id="paint9_linear" x1="18.0199" y1="140.624" x2="18.0199" y2="173" gradientUnits="userSpaceOnUse">
<stop offset="0.229167" stop-color="#8474CD"/>
<stop offset="1" stop-color="#EDA2C6"/>
</linearGradient>
</defs>
</svg>
