<svg width="20" height="20" viewBox="0 0 20 20" fill="none" xmlns="http://www.w3.org/2000/svg">
<g clip-path="url(#clip0)">
<path d="M19.9887 8.32584C19.9815 7.9241 19.9496 7.41615 19.894 6.80246C19.8381 6.18842 19.7581 5.63967 19.654 5.15615C19.5349 4.61306 19.2763 4.15542 18.8784 3.78339C18.4804 3.41129 18.0171 3.19558 17.4887 3.13597C15.8368 2.95009 13.3406 2.85706 9.99994 2.85706C6.65927 2.85706 4.16299 2.95009 2.5112 3.13597C1.98285 3.19554 1.52146 3.41129 1.12723 3.78339C0.732839 4.1553 0.476128 4.61294 0.357057 5.15615C0.24557 5.63982 0.161758 6.18854 0.105976 6.80246C0.050271 7.41615 0.0186073 7.9239 0.0112191 8.32584C0.00367455 8.72761 0 9.2856 0 9.99995C0 10.7142 0.00367455 11.2724 0.0112582 11.6741C0.0186464 12.0761 0.0503101 12.5837 0.106015 13.1974C0.161798 13.8114 0.241817 14.3601 0.345994 14.8437C0.465065 15.387 0.723574 15.8445 1.12164 16.2164C1.51978 16.5884 1.98305 16.8042 2.51124 16.8638C4.16303 17.0498 6.65915 17.1428 9.99998 17.1428C13.3409 17.1428 15.8368 17.0498 17.4888 16.8638C18.0172 16.8042 18.4784 16.5884 18.8728 16.2164C19.2672 15.8445 19.5237 15.3867 19.6428 14.8437C19.7544 14.3601 19.8381 13.8114 19.894 13.1974C19.9496 12.5838 19.9812 12.0758 19.9887 11.6741C19.9962 11.2724 20 10.7142 20 9.99995C20 9.2856 19.9962 8.72761 19.9887 8.32584ZM13.9509 10.6026L8.2367 14.174C8.13249 14.2483 8.00587 14.2855 7.85713 14.2855C7.7456 14.2855 7.63028 14.2557 7.51125 14.1962C7.26576 14.0624 7.14305 13.854 7.14305 13.5713V6.42864C7.14305 6.14605 7.2658 5.93762 7.51125 5.80373C7.76429 5.66961 8.00603 5.67711 8.2367 5.82605L13.9509 9.3974C14.1741 9.52366 14.2856 9.72467 14.2856 9.99999C14.2856 10.2752 14.174 10.4763 13.9509 10.6026Z" fill="url(#paint0_linear)"/>
</g>
<defs>
<linearGradient id="paint0_linear" x1="9.99998" y1="2.85706" x2="9.99998" y2="17.1428" gradientUnits="userSpaceOnUse">
<stop offset="0.229167" stop-color="#8474CD"/>
<stop offset="1" stop-color="#EDA2C6"/>
</linearGradient>
<clipPath id="clip0">
<rect width="20" height="20" fill="white"/>
</clipPath>
</defs>
</svg>
