<svg width="455" height="272" viewBox="0 0 455 272" fill="none" xmlns="http://www.w3.org/2000/svg">
<path fill-rule="evenodd" clip-rule="evenodd" d="M436.779 0.822638C434.818 1.66696 433.68 2.66642 432.345 4.7157C431.067 6.6785 429.413 12.4204 429.413 14.8964C429.413 15.7606 429.065 18.6893 428.639 21.4039C427.785 26.862 426.744 34.231 425.463 43.8879C424.999 47.3847 424.28 52.6491 423.865 55.5864C423.449 58.5237 422.722 64.017 422.248 67.7935C421.774 71.5701 421.149 76.2622 420.859 78.2205C420.569 80.1787 420.137 83.7264 419.899 86.1042C419.661 88.4821 419.21 92.1442 418.897 94.2423C418.584 96.3404 417.948 101.147 417.482 104.924C417.017 108.7 416.29 114.079 415.866 116.876C415.443 119.674 415.098 122.764 415.1 123.743C415.102 124.722 414.754 127.812 414.326 130.609C412.952 139.604 411.918 147.851 411.919 149.82C411.921 154.203 417.462 159.164 423.317 160.024C425.726 160.378 427.823 159.995 427.823 159.201C427.823 158.906 428.132 158.303 428.509 157.861C430.441 155.602 433.626 142.813 436.563 125.523C438.076 116.609 439.085 111.199 441.114 101.109C441.452 99.4304 441.915 96.7982 442.143 95.2596C442.371 93.721 442.807 91.4321 443.113 90.1733C443.419 88.9144 444.05 85.7101 444.514 83.0525C444.979 80.3949 445.691 76.5038 446.095 74.4057C446.873 70.3728 447.937 64.2362 449.314 55.8407C449.773 53.0432 450.492 49.0327 450.913 46.928C451.333 44.8238 451.676 42.5349 451.673 41.8417C451.672 41.1489 452.021 38.6363 452.449 36.2584C455.369 20.0555 455.709 13.5806 453.844 9.68349C452.624 7.13322 448.621 2.6888 447.543 2.6888C447.193 2.6888 446.906 2.48637 446.906 2.23866C446.906 1.58609 441.974 0.138529 439.915 0.186849C438.949 0.209738 437.538 0.495588 436.779 0.822638ZM76.9224 22.0412C69.5307 23.5793 60.8057 26.9439 52.7741 31.3532C50.7109 32.4854 46.4102 35.4421 46.2363 35.8475C46.1388 36.0733 45.7216 36.2584 45.3086 36.2584C44.8951 36.2584 44.5575 36.4487 44.5575 36.6806C44.5575 36.913 43.5439 37.8031 42.3045 38.6587C39.4282 40.6443 31.7878 47.8166 28.3358 51.7717C24.3494 56.3392 20.7028 61.0389 20.7028 61.6091C20.7028 61.8868 20.5241 62.1899 20.3052 62.2835C19.8589 62.4738 17.9123 65.0968 17.3478 66.2676C17.1458 66.6873 16.5245 67.7172 15.9679 68.5565C15.4108 69.3957 14.2806 71.3412 13.4557 72.8798C12.6309 74.4184 11.7769 75.7536 11.5585 75.8467C11.3401 75.9403 11.1609 76.3172 11.1609 76.6849C11.1609 77.0521 10.4453 78.7372 9.57061 80.4284C8.69594 82.1201 7.9803 83.7676 7.9803 84.0901C7.9803 84.412 7.65534 85.2833 7.25883 86.0259C5.3918 89.5177 2.48312 99.6735 0.886978 108.273C-0.285612 114.589 -0.298335 131.026 0.865243 136.701C2.25412 143.476 3.75325 148.076 6.17424 152.989C7.47352 155.626 9.63846 159.412 10.1007 159.856C10.2465 159.996 11.3025 161.254 12.447 162.653C16.1985 167.237 20.7966 170.814 26.6076 173.668C28.4619 174.579 30.0655 175.379 30.1704 175.445C30.2759 175.511 30.3236 178.366 30.2775 181.788C30.1005 194.928 33.2567 212.613 37.3926 221.654C39.6551 226.601 42.727 232.359 43.4973 233.099C43.643 233.238 44.3433 234.154 45.0536 235.133C46.5395 237.181 48.5189 239.362 50.3038 240.918C53.9361 244.085 55.4606 245.305 55.7845 245.305C55.9823 245.306 56.4594 245.592 56.8447 245.941C57.7597 246.772 63.7833 249.547 66.8218 250.538C71.0393 251.914 79.1531 252.688 82.2261 252.007C83.7115 251.678 85.9522 251.409 87.2064 251.409C88.4607 251.409 90.4104 251.052 91.5395 250.615C97.4343 248.332 101.809 246.233 101.809 245.688C101.809 245.478 102.175 245.306 102.622 245.306C103.754 245.306 116.121 233.4 116.121 232.311C116.121 232.161 116.56 231.587 117.097 231.034C117.633 230.482 118.408 229.404 118.819 228.639C119.229 227.875 119.701 227.135 119.866 226.995C120.744 226.253 126.017 216.586 128.051 211.99C129.708 208.248 129.842 207.934 130.987 205.124C133.504 198.948 134.882 194.998 136.755 188.593C139.799 178.184 140.723 174.66 141.607 170.075C141.899 168.562 142.259 167.135 142.409 166.903C142.558 166.672 142.902 165.278 143.174 163.805C143.446 162.332 144.156 158.61 144.751 155.532C145.346 152.455 146.046 148.221 146.307 146.123C146.566 144.025 147.028 140.82 147.331 139.002C148.526 131.843 149.664 112.315 149.361 104.161C148.984 93.9987 148.09 83.6267 147.098 77.8934C146.68 75.4754 146.337 72.8351 146.337 72.0264C146.337 71.2171 145.729 68.8469 144.986 66.7585C144.243 64.67 143.4 62.2261 143.111 61.3268C142.823 60.428 142.358 59.5558 142.077 59.3894C141.796 59.2231 141.566 58.659 141.566 58.1356C141.566 57.6128 141.269 56.8788 140.904 56.505C140.54 56.1311 139.766 54.913 139.186 53.7986C138.606 52.6836 138.009 51.6572 137.859 51.5173C137.71 51.3775 136.873 50.2331 136 48.9742C134.101 46.2357 122.48 34.7488 121.599 34.7391C121.259 34.7356 120.901 34.5474 120.804 34.3216C120.393 33.3648 114.922 30.0597 109.495 27.4896C103.092 24.4572 98.9795 23.1088 92.1194 21.7914C86.9037 20.79 82.5961 20.8606 76.9224 22.0412ZM447.807 45.1371C447.362 47.3873 446.615 51.4029 446.149 54.0605C445.682 56.7181 445.06 60.1514 444.767 61.69C444.475 63.2286 443.994 66.1496 443.7 68.1816C443.405 70.2131 442.933 72.4597 442.65 73.1738C442.367 73.8879 442.135 75.1539 442.135 75.9876C442.135 76.8207 441.8 78.9229 441.389 80.6588C440.979 82.3953 440.248 85.9898 439.765 88.6474C439.281 91.305 438.563 95.0816 438.168 97.0398C435.77 108.945 434.702 114.698 434.368 117.521C434.194 118.995 433.842 120.325 433.587 120.476C433.332 120.628 433.096 121.482 433.062 122.374C433.022 123.423 432.908 123.648 432.739 123.009C432.595 122.465 432.867 119.375 433.344 116.142C433.822 112.91 434.576 107.746 435.021 104.669C436.006 97.8511 437.234 90.3706 437.986 86.6129C438.294 85.0743 438.644 83.1288 438.763 82.2895C438.966 80.8577 439.533 77.9773 441.414 68.8108C441.845 66.7127 442.541 63.6833 442.961 62.0791C443.382 60.4748 443.726 58.6636 443.726 58.0548C443.726 57.4459 444.061 55.7827 444.471 54.3596C445.716 50.0367 446.915 44.7159 446.911 43.5364C446.908 42.9235 447.145 42.2806 447.436 42.1077C447.728 41.9347 447.994 41.1774 448.028 40.4246C448.075 39.386 448.153 39.296 448.353 40.0508C448.498 40.5981 448.252 42.8869 447.807 45.1371ZM104.152 45.4046C107.122 46.8028 111.351 49.9716 111.351 50.7997C111.351 50.993 111.682 51.4049 112.086 51.7157C113.195 52.5667 115.507 56.8514 116.603 60.0878C119.813 69.5671 120.726 75.219 121.179 88.3931C121.987 111.868 118.916 138.559 112.08 167.485C110.59 173.79 108.995 179.561 107.312 184.742C106.909 185.981 106.58 187.32 106.58 187.717C106.58 188.114 106.255 189.161 105.859 190.042C105.463 190.924 104.594 193.362 103.928 195.46C103.262 197.558 102.513 199.492 102.263 199.758C102.013 200.023 101.809 200.675 101.809 201.205C101.809 201.735 101.477 202.777 101.071 203.52C100.665 204.262 99.9173 205.899 99.4094 207.158C97.4396 212.043 91.9806 222.341 89.4339 225.978C83.527 234.411 77.9514 238.011 72.8995 236.654C67.4733 235.196 63.6449 228.57 61.4413 216.822C59.9406 208.824 60.6997 183.133 62.6621 175.496C63.1434 173.622 63.1964 173.589 65.6975 173.589C71.5085 173.589 82.9274 169.723 84.6752 167.164C85.3866 166.122 85.4274 165.588 84.919 163.96C84.2485 161.813 80.2764 157.59 77.5702 156.147C75.8744 155.243 75.8378 155.247 72.6519 156.764C70.8867 157.604 68.9189 158.644 68.2791 159.074C66.5281 160.251 66.2112 160.041 66.579 157.948C67.0911 155.033 72.8904 137.98 74.195 135.552C74.4532 135.072 75.0798 133.648 75.5876 132.39C76.0955 131.131 77.1748 128.727 77.9869 127.049C78.7985 125.371 79.6196 123.254 79.811 122.344C80.0023 121.435 80.3739 120.691 80.6363 120.691C80.8993 120.691 81.2751 120.077 81.4712 119.326C81.907 117.661 83.0128 115.56 83.6712 115.147C83.9384 114.979 84.9424 113.469 85.9029 111.79C88.739 106.832 92.455 102.688 95.2926 101.318C98.874 99.5891 99.6898 98.8495 99.6787 97.3424C99.6628 95.1151 94.0114 91.2541 88.7962 89.9083C81.8879 88.126 71.2991 88.4307 66.4015 90.5537C58.7054 93.8893 50.7941 104.259 45.3478 118.148C44.8543 119.407 44.1169 121.189 43.7088 122.107C43.3011 123.026 42.9672 124.105 42.9672 124.506C42.9672 124.907 42.6258 125.986 42.2091 126.905C41.3143 128.876 38.809 137.261 38.1395 140.528C37.8813 141.787 37.1164 144.737 36.44 147.084L35.2096 151.352L34.0524 149.94C33.4157 149.164 32.8952 148.319 32.8952 148.064C32.8952 147.808 32.4001 146.638 31.7952 145.462C28.9613 139.956 27.7691 129.702 29.211 123.234C29.4914 121.975 29.9298 119.915 30.1853 118.657C30.973 114.777 32.443 109.78 32.9466 109.272C33.2101 109.007 33.4253 108.385 33.4253 107.891C33.4253 107.397 33.816 106.126 34.2941 105.068C34.7717 104.01 35.3464 102.686 35.5706 102.126C36.4209 100.008 43.194 86.8117 44.0555 85.5956C44.5506 84.8962 46.1001 82.6074 47.4985 80.5093C50.9383 75.3477 56.3411 68.3022 56.8591 68.3022C57.0907 68.3022 57.2853 68.0163 57.2921 67.6664C57.3229 66.0866 75.6184 49.9915 77.3836 49.9915C77.6974 49.9915 77.954 49.8195 77.954 49.61C77.9545 49.1125 84.8904 45.9051 88.291 44.8304C89.9211 44.3146 92.8642 43.9723 95.9357 43.9403C100.464 43.893 101.23 44.0293 104.152 45.4046ZM373.479 45.9814C369.354 48.0836 363.778 52.884 357.836 59.4484C353.148 64.6278 344.596 76.87 344.596 78.4015C344.596 78.7215 344.358 78.9834 344.066 78.9834C343.775 78.9834 343.536 79.3486 343.536 79.7952C343.536 80.2412 343.207 81.2143 342.806 81.9569C341.638 84.114 340.998 85.6312 339.77 89.156C338.778 92.0008 338.62 93.574 338.635 100.429C338.653 108.379 338.81 109.507 341.388 120.182C343.244 127.867 347.079 139.651 349.085 143.834C349.488 144.673 350.334 146.619 350.966 148.157C351.598 149.696 353.866 154.323 356.006 158.439C359.887 165.906 359.891 165.921 358.209 165.039C356.093 163.928 353.66 162.396 352.283 161.305C350.191 159.649 342.334 153.181 341.687 152.583C340.112 151.126 338.153 149.658 335.506 147.946L332.669 146.112L331.023 147.785C327.935 150.925 327.586 159.997 330.366 164.9C331.685 167.226 332.598 168.689 332.934 169.011C333.08 169.151 333.78 170.066 334.49 171.046C336.682 174.067 342.222 179.692 343.005 179.692C343.297 179.692 343.536 179.877 343.536 180.103C343.536 180.716 349.814 184.972 352.548 186.212C358.298 188.821 367.675 189.503 375.681 187.895C383.777 186.269 388.694 183.319 390.114 179.235C391.308 175.801 390.673 172.707 387.392 165.959C385.267 161.59 382.63 156.065 381.077 152.735C379.796 149.985 379.087 148.473 376.961 143.959C376.071 142.07 375.342 140.294 375.342 140.011C375.342 139.728 375.101 139.099 374.806 138.613C374.22 137.647 371.288 129.999 370.568 127.558C370.321 126.718 369.522 124.086 368.793 121.708C366.555 114.406 365.8 110.314 365.8 105.473C365.8 100.907 365.834 100.785 367.769 98.2981C368.852 96.9065 369.925 95.7682 370.154 95.7682C370.384 95.7682 370.571 95.4249 370.571 95.0053C370.571 94.5857 370.769 94.2423 371.01 94.2423C371.25 94.2423 372.484 92.869 373.752 91.1905C375.019 89.5121 376.254 88.1388 376.494 88.1388C376.735 88.1388 376.933 87.8855 376.933 87.5762C376.933 87.267 377.588 86.1785 378.39 85.1582C380.388 82.6161 380.864 81.8419 383.126 77.4575C385.085 73.6631 385.095 73.6077 385.129 67.0306C385.152 62.576 385.39 60.0333 385.857 59.2384C386.239 58.5899 386.569 56.4063 386.591 54.3865C386.627 51.0921 386.486 50.5647 385.227 49.2611C384.455 48.462 383.824 47.6055 383.824 47.3578C383.824 46.604 381.502 45.9901 380.776 46.5521C380.303 46.9173 380.113 46.8461 380.113 46.3024C380.113 45.8563 379.427 45.4092 378.457 45.223C376.048 44.7607 375.801 44.7983 373.479 45.9814ZM33.6304 53.679C33.4173 54.029 32.2108 55.8478 30.9486 57.7211C29.687 59.5944 28.6543 61.3492 28.6543 61.6203C28.6543 61.8919 28.4667 62.1899 28.2372 62.2835C26.7852 62.8736 16.8049 82.172 13.5517 90.6819C13.1769 91.661 12.5201 93.3777 12.0913 94.4966C10.4522 98.7722 9.98356 100.148 9.57697 101.872C9.34638 102.851 8.53691 106.055 7.77886 108.993C7.02081 111.93 5.93356 116.393 5.36264 118.911L4.3247 123.489L4.60248 117.894C4.75461 114.816 5.1241 111.04 5.42308 109.501C5.72206 107.963 6.16787 105.612 6.41331 104.277C6.65875 102.941 7.11093 101.11 7.41733 100.208C7.72373 99.3047 8.44361 97.0779 9.01665 95.2596C10.5327 90.4469 11.6969 87.443 12.2582 86.8926C12.5296 86.6271 12.7512 86.0885 12.7512 85.6958C12.7512 84.881 17.2094 76.1875 19.1936 73.1342C19.9204 72.0152 20.6858 70.7563 20.8947 70.3367C22.5046 67.1013 33.0277 53.0432 33.8393 53.0432C33.9374 53.0432 33.8435 53.3296 33.6304 53.679ZM364.661 58.7653C363.995 59.6743 363.143 60.7215 362.768 61.0923C362.393 61.4631 361.325 62.8364 360.396 64.1441C359.466 65.4518 358.513 66.5983 358.277 66.6913C358.042 66.7849 357.849 67.0799 357.849 67.348C357.849 67.9181 355.646 71.0218 355.066 71.269C354.847 71.3626 354.668 71.6607 354.668 71.9323C354.668 72.2034 353.642 73.9581 352.387 75.8314C351.132 77.7047 349.284 80.8399 348.279 82.7981C347.274 84.7564 346.273 86.4348 346.054 86.5279C345.835 86.6215 345.656 87.0086 345.656 87.388C345.656 87.768 345.44 88.2069 345.176 88.3636C344.251 88.9124 344.993 86.6668 347.469 81.4309C348.222 79.8394 348.837 78.3135 348.837 78.0399C348.837 77.7663 349.016 77.4662 349.235 77.3726C349.454 77.2795 350.178 76.1732 350.845 74.9144C353.583 69.7462 357.389 64.8979 363.059 59.3554C365.781 56.6947 366.326 56.4943 364.661 58.7653ZM301.923 67.6491C296.604 69.7075 291.89 73.5472 287.071 79.7464C286.201 80.8653 285.311 81.8572 285.092 81.9502C284.873 82.0438 284.695 82.3388 284.695 82.6069C284.695 83.028 282.807 85.8804 282.044 86.6129C281.898 86.7527 281.083 88.1835 280.233 89.7918C278.667 92.7551 277.587 93.4443 277.047 91.8263C276.316 89.6382 270.501 84.9374 266.128 82.9991C261.297 80.8577 260.072 80.5093 257.376 80.5093H254.479V86.6709C254.479 90.0593 254.114 95.2667 253.669 98.2422C253.224 101.218 252.498 106.17 252.056 109.247C251.613 112.324 250.901 116.902 250.473 119.42C250.045 121.937 249.343 126.057 248.914 128.575C248.485 131.093 247.898 134.612 247.61 136.396C247.322 138.18 246.603 140.599 246.012 141.77C245.42 142.942 244.937 144.153 244.937 144.462C244.937 144.77 244.602 145.671 244.192 146.463C242.567 149.606 241.226 152.619 241.226 153.13C241.226 153.426 241.047 153.743 240.828 153.837C240.609 153.93 239.907 155.038 239.266 156.298C238.166 158.462 236.014 161.131 235.653 160.779C235.562 160.691 235.799 159.36 236.178 157.821C238.219 149.551 238.876 134.396 237.59 125.269C236.33 116.325 233.238 106.473 230.089 101.363C229.83 100.944 229.112 99.703 228.492 98.6059C226.688 95.4112 222.946 91.0049 219.485 88.0004C209.976 79.7428 197.56 78.2062 186.095 83.8673C183.223 85.2853 174.963 92.5608 174.963 93.6722C174.963 93.9855 174.754 94.2423 174.497 94.2423C174.241 94.2423 173.735 94.929 173.373 95.7682C173.011 96.6075 172.504 97.2941 172.248 97.2941C171.992 97.2941 171.782 97.5378 171.782 97.8353C171.782 98.1328 171.222 99.5636 170.538 101.014C167.256 107.967 166.764 110.572 166.769 120.945C166.772 126.946 166.992 130.995 167.351 131.627C168.098 132.943 167.702 134.168 166.77 133.425C165.597 132.491 160.024 130.864 157.999 130.864C154.711 130.864 153.083 133.888 152.199 141.631C151.14 150.924 151.857 168.255 153.596 175.369C155.662 183.822 159.673 192.673 163.566 197.373C172.983 208.743 183.503 212.885 196.962 210.522C201.413 209.741 207.103 207.238 210.969 204.361C213.665 202.354 221.082 194.84 221.082 194.116C221.082 193.886 223.254 190.828 223.739 190.374C223.889 190.234 225.201 187.818 226.655 185.004C228.976 180.513 229.557 179.772 231.419 178.918C233.751 177.848 239.542 173.822 240.52 172.59C241.708 171.094 241.943 172.621 241.282 177.538C240.915 180.261 240.408 185.067 240.153 188.216C239.899 191.366 239.44 195.674 239.133 197.79C238.826 199.906 238.575 208.516 238.575 216.923C238.575 231.962 239.025 237.59 240.762 244.288C241.089 245.547 241.542 247.378 241.77 248.357C242.288 250.584 243.882 254.599 245.53 257.827C247.145 260.989 253.517 267.23 256.563 268.634C259.775 270.115 266.416 271.368 269.036 270.988C276.568 269.897 279.393 268.525 279.393 265.958C279.393 264.627 277.679 263.108 276.175 263.108C275.66 263.108 274.94 262.237 274.385 260.946C273.874 259.757 273.122 258.033 272.714 257.114C272.306 256.195 271.972 254.979 271.972 254.41C271.972 253.842 271.744 252.967 271.464 252.466C270.842 251.351 269.212 243.476 268.001 235.738C266.436 225.735 267 183.58 268.76 179C269.072 178.188 269.439 178.414 271.34 180.593C274.002 183.643 279.742 188.193 283.308 190.078C288.127 192.626 291.049 193.425 295.553 193.425C299.202 193.425 300.231 193.213 303.019 191.883C310.196 188.458 314.807 182.019 320.487 167.485C322.17 163.179 325.324 152.54 325.841 149.429C325.98 148.59 326.43 146.415 326.839 144.597C328.825 135.789 330.308 122.05 330.27 112.807C330.232 103.404 328.384 90.4413 326.39 85.5956C324.761 81.6349 324.204 80.5093 323.87 80.5093C323.678 80.5093 323.224 79.8226 322.862 78.9834C322.5 78.1442 321.994 77.4575 321.738 77.4575C321.481 77.4575 321.272 77.2286 321.272 76.9494C321.272 76.6702 319.81 74.9581 318.022 73.1448C312.539 67.5819 306.991 65.6883 301.923 67.6491ZM359.969 70.4949C359.969 70.8621 359.492 71.6535 358.909 72.2542C358.326 72.8544 357.849 73.479 357.849 73.6423C357.849 73.9241 355.762 76.9214 355.193 77.4575C355.045 77.5974 354.448 78.6274 353.868 79.7464C353.288 80.8653 352.646 81.9019 352.442 82.0494C352.238 82.1974 351.819 82.8841 351.511 83.5753C351.013 84.6974 350.988 84.6465 351.279 83.1059C351.726 80.7448 355.167 75.2038 358.246 71.886C358.902 71.1795 359.439 70.4272 359.439 70.2146C359.439 70.002 359.558 69.8281 359.704 69.8281C359.85 69.8281 359.969 70.1282 359.969 70.4949ZM34.5745 74.2786C32.5994 77.9051 28.7853 85.8672 26.8382 90.4276C25.7637 92.9453 24.6876 95.463 24.4474 96.0225C22.5778 100.376 19.7894 108.02 18.3253 112.807C17.8121 114.486 17.0785 116.546 16.6957 117.385C16.0204 118.866 15.9992 118.821 15.978 115.859C15.9663 114.181 16.4397 111.091 17.0297 108.993C17.6202 106.895 18.4483 103.931 18.8708 102.408C19.2932 100.884 19.8779 99.408 20.1706 99.1272C20.4632 98.8465 20.7028 98.2336 20.7028 97.7656C20.7028 97.0159 21.2387 95.6395 23.462 90.6819C24.8625 87.5584 25.8888 85.621 27.9917 82.1303C29.2311 80.0734 30.2447 78.1808 30.2447 77.9239C30.2447 77.6676 30.4673 77.4575 30.7392 77.4575C31.0112 77.4575 31.3674 77.0521 31.5312 76.5562C31.8509 75.5908 34.7383 72.3712 35.2849 72.3712C35.4657 72.3712 35.146 73.2298 34.5745 74.2786ZM305.601 83.8144C306.132 86.9964 305.314 103.693 304.353 109.247C303.689 113.094 302.69 119.592 302.205 123.234C302.001 124.773 301.532 127.519 301.163 129.338C300.795 131.156 300.151 134.361 299.732 136.459C297.622 147.018 295.28 156.479 293.626 161.127C293.327 161.967 292.882 163.34 292.636 164.179C291.373 168.487 288.794 173.493 287.417 174.309C285.817 175.258 278.417 169.578 276.15 165.662C273.857 161.702 272.696 154.587 273.348 148.486C273.681 145.37 273.825 145.062 275.094 144.765C275.855 144.586 276.597 144.298 276.743 144.125C276.889 143.952 277.664 143.41 278.466 142.92C279.653 142.195 279.924 141.658 279.924 140.022C279.924 137.441 282.463 124.876 283.953 120.087C284.361 118.776 284.695 117.38 284.695 116.985C284.695 115.794 288.873 103.969 290.931 99.3388C291.989 96.9554 294.005 93.1264 295.409 90.8304C298.119 86.3977 303.533 80.3491 304.516 80.6558C304.839 80.7565 305.327 82.1781 305.601 83.8144ZM313.522 85.5097C314.912 90.7226 314.574 102.542 312.718 113.57C312.412 115.389 311.976 118.135 311.748 119.674C311.235 123.144 310.1 126.831 309.63 126.553C309.252 126.328 309.704 121.593 310.919 113.062C311.337 110.124 311.973 104.089 312.332 99.6511C312.959 91.894 312.72 87.3387 311.379 81.5266C310.721 78.6772 312.66 82.2814 313.522 85.5097ZM286.549 90.3004C286.234 91.3701 285.885 92.1824 283.928 96.404C283.069 98.2585 280.613 104.878 279.918 107.212C279.669 108.052 279.088 109.768 278.628 111.027L277.793 113.316L278.088 110.773C278.388 108.186 279.459 104.488 280.781 101.473C281.184 100.554 281.514 99.557 281.514 99.2564C281.514 98.6028 286.322 89.156 286.655 89.156C286.782 89.156 286.735 89.6708 286.549 90.3004ZM213.764 91.8085C215.165 92.6356 216.311 93.5216 216.311 93.7774C216.311 94.0333 216.55 94.2423 216.841 94.2423C217.133 94.2423 217.848 94.7001 218.432 95.2596C219.015 95.8191 219.492 96.5057 219.492 96.7855C219.492 97.0652 219.69 97.2941 219.932 97.2941C220.664 97.2941 223.888 101.903 225.72 105.569C227.686 109.501 227.704 109.565 226.708 109.199C226.303 109.05 225.831 108.25 225.658 107.421C225.24 105.415 221.713 100.5 218.287 97.1502C215.482 94.4066 211.422 91.1905 210.764 91.1905C210.566 91.1905 210.015 90.8172 209.539 90.3605C208.739 89.5929 208.77 89.5594 209.946 89.9174C210.645 90.1306 212.363 90.9815 213.764 91.8085ZM74.7734 93.4387C70.8246 94.8054 67.257 96.5749 65.7706 97.904C65.2071 98.4075 64.6017 98.82 64.4258 98.82C63.7732 98.82 56.7583 105.952 55.3265 108.07C54.5112 109.277 53.7023 110.379 53.5289 110.519C53.3556 110.658 52.9326 111.231 52.5891 111.79C52.0431 112.68 52.0097 112.616 52.3261 111.287C52.5249 110.45 53.0052 109.461 53.3938 109.088C53.7818 108.716 54.0993 108.197 54.0993 107.934C54.0993 106.936 59.1364 100.559 61.4641 98.6105C62.1617 98.0266 63.1159 97.167 63.5845 96.7005C64.65 95.6395 69.7353 93.1671 71.8562 92.6783C72.7319 92.4769 74.5216 92.2968 75.8336 92.279L78.2191 92.246L74.7734 93.4387ZM319.583 108.993C319.462 116.591 319.221 119.749 318.697 120.633C318.159 121.538 317.869 121.678 317.551 121.184C317.316 120.82 317.319 120.031 317.556 119.432C317.793 118.834 318.142 113.207 318.332 106.929C318.684 95.2784 319.23 90.365 319.573 95.7682C319.671 97.3068 319.676 103.258 319.583 108.993ZM206.681 100.343C209.787 102.502 211.938 106.093 213.84 112.299C217.403 123.922 216.586 151.107 212.224 166.086C211.468 168.685 211.219 169.011 209.999 169.011C208.626 169.011 204.519 167.666 201.976 166.384C197.57 164.163 192.226 158.363 189.401 152.735C186.953 147.855 186.095 145.815 186.095 144.868C186.095 144.402 185.877 143.63 185.61 143.151C184.631 141.395 183.27 131.987 183.244 126.795C183.191 116.002 186.051 107.343 191.302 102.395C194.37 99.5046 195.978 98.8816 200.461 98.849C204.119 98.8226 204.691 98.9599 206.681 100.343ZM277.11 114.959C276.976 115.454 276.857 115.172 276.846 114.333C276.836 113.494 276.945 113.089 277.091 113.433C277.236 113.778 277.245 114.464 277.11 114.959ZM124.049 125.525C123.792 130.279 123.334 135.403 123.032 136.909C122.73 138.416 122.483 140.608 122.483 141.779C122.483 147.054 117.798 171.42 115.291 179.184C113.515 184.683 110.757 192.746 110.332 193.68C110.078 194.239 109.382 195.841 108.785 197.24C107.429 200.42 104.459 205.982 104.459 205.34C104.459 204.669 105.249 202.295 106.561 199.02C108.145 195.067 109.506 190.996 112.174 182.235C116.411 168.319 120.1 148.953 123.024 125.269C124.426 113.914 124.675 113.976 124.049 125.525ZM368.253 133.916C369.545 137.692 370.927 141.469 371.323 142.308C373.048 145.958 373.752 147.732 373.752 148.429C373.752 148.839 373.991 149.174 374.282 149.174C374.574 149.174 374.813 149.461 374.815 149.81C374.816 150.16 375.621 151.949 376.603 153.785C379.183 158.608 379.486 160.024 377.265 156.88C376.207 155.383 375.342 154.077 375.342 153.978C375.342 153.878 374.677 152.7 373.864 151.359C369.673 144.447 364.721 130.228 363.981 122.98L363.67 119.928L364.787 123.489C365.402 125.447 366.961 130.139 368.253 133.916ZM133.912 143.198C133.727 144.947 133.243 147.865 132.836 149.683C132.429 151.501 131.706 154.82 131.229 157.058C130.752 159.296 130.02 162.44 129.603 164.044C129.185 165.648 128.844 167.396 128.844 167.928C128.844 168.459 128.51 170.008 128.101 171.369C127.693 172.73 126.946 175.674 126.442 177.912C124.876 184.86 122.657 192.606 119.809 201.055C118.565 204.746 115.07 211.914 114.692 211.551C114.558 211.422 114.808 210.095 115.25 208.602C115.691 207.109 116.452 204.399 116.942 202.581C117.432 200.762 118.144 198.245 118.525 196.986C119.21 194.721 119.91 192.214 121.649 185.796C122.722 181.833 123.775 178.088 124.832 174.475C126.201 169.796 127.173 166.217 129.559 157.058C131.427 149.889 132.138 147.246 132.855 144.806C133.273 143.383 133.615 141.724 133.615 141.119C133.615 140.514 133.758 140.019 133.932 140.019C134.106 140.019 134.098 141.45 133.912 143.198ZM158.705 149.81C158.414 158.299 158.971 166.365 160.311 173.08C161.356 178.314 162.776 183.409 163.352 183.99C163.616 184.256 163.812 184.943 163.789 185.516C163.759 186.259 163.66 186.34 163.444 185.796C163.278 185.376 162.992 184.918 162.809 184.779C161.931 184.108 159.767 177.724 158.324 171.554C157.66 168.714 156.727 159.281 156.714 155.278C156.695 149.324 157.863 141.545 158.777 141.545C158.893 141.545 158.86 145.265 158.705 149.81ZM137.602 157.76C134.606 171.027 133.024 177.219 131.202 182.812C130.78 184.109 130.434 185.5 130.434 185.903C130.434 186.307 129.735 188.68 128.881 191.176C128.027 193.672 127.204 196.286 127.054 196.986C126.903 197.685 126.89 196.884 127.024 195.206C127.158 193.527 127.609 191.009 128.027 189.611C129.277 185.421 131.551 176.554 132.036 173.972C132.286 172.644 132.651 171.308 132.847 171.004C133.173 170.497 133.865 167.855 135.224 161.917C135.51 160.673 135.97 158.956 136.248 158.102C136.526 157.248 137.061 155.424 137.437 154.05C138.506 150.143 138.64 153.164 137.602 157.76ZM178.976 162.617C179.393 163.016 179.734 163.473 179.734 163.63C179.734 164.146 182.041 166.654 186.092 170.54C190.612 174.877 192.759 176.641 193.521 176.641C193.81 176.641 194.047 176.854 194.047 177.115C194.047 177.376 194.522 177.734 195.104 177.911C195.685 178.088 196.464 178.504 196.835 178.836C197.723 179.63 203.107 182.095 205.709 182.899C206.27 183.072 205.406 184.17 202.772 186.632C197.336 191.711 193.046 192.987 188.646 190.833C184.238 188.676 181.207 184.711 179.158 178.421C178.146 175.312 177.072 161.89 177.836 161.89C178.047 161.89 178.56 162.217 178.976 162.617ZM415.63 170.44C412.602 171.242 407.148 175.115 407.148 176.463C407.148 176.729 406.87 177.213 406.529 177.54C405.753 178.285 404.79 180.879 403.435 185.881C401.956 191.337 401.931 201.279 403.389 204C405.464 207.87 409.39 210.21 413.81 210.21C416.31 210.21 417.32 209.929 419.386 208.656C422.383 206.811 423.873 204.998 426.053 200.546C428.956 194.616 429.558 191.811 429.546 184.27C429.536 178.142 429.407 177.166 428.338 175.201C426.675 172.141 423.9 170.492 420.039 170.268C418.343 170.17 416.359 170.248 415.63 170.44ZM415.303 172.699C415.088 173.049 413.914 174.593 412.693 176.132C411.471 177.67 409.665 180.417 408.678 182.235C407.691 184.054 406.744 185.656 406.573 185.796C406.403 185.936 405.989 186.508 405.655 187.067C405.139 187.93 405.095 187.813 405.37 186.304C405.693 184.524 406.807 181.637 407.724 180.201C407.992 179.781 408.426 178.98 408.688 178.421C409.357 176.995 412.136 174.122 413.89 173.044C415.708 171.927 415.788 171.907 415.303 172.699ZM126.025 199.624C125.856 200.03 125.731 199.909 125.705 199.317C125.682 198.781 125.808 198.481 125.984 198.649C126.16 198.818 126.179 199.257 126.025 199.624ZM244.671 218.609C245.15 229.818 247.192 244.665 248.995 250.044C249.446 251.39 249.672 252.63 249.497 252.798C249.321 252.967 249.178 252.742 249.178 252.299C249.178 251.856 248.993 251.418 248.767 251.324C248.194 251.088 245.462 243.193 244.57 239.202C243.629 234.985 242.953 210.209 243.8 210.98C244.119 211.269 244.5 214.615 244.671 218.609Z" fill="black"/>
</svg>
