<svg width="160" height="160" viewBox="0 0 160 160" fill="none" xmlns="http://www.w3.org/2000/svg">
<path d="M66.1864 55.6975C56.5399 42.8807 47.0016 36.0577 46.5998 35.7743C45.8302 35.2294 44.7991 35.2367 44.0368 35.7898C43.8689 35.9137 39.8364 38.8656 34.3692 44.4374C32.3905 46.4528 35.503 49.5561 37.5064 47.515C40.928 44.0265 43.7864 41.5965 45.3467 40.3388C48.2161 42.6037 55.4593 48.7525 62.6749 58.3394C68.0981 65.5468 72.4186 73.2348 75.5137 81.1916C79.3756 91.1152 81.3332 101.494 81.3332 112.037C81.3332 133.298 65.1828 150.595 45.3293 150.595C25.4767 150.595 9.32637 133.298 9.32637 112.037C9.32637 86.8084 20.8956 67.2328 30.6017 55.2554C32.3768 53.0639 28.9919 50.2624 27.1884 52.4878C17.0346 65.0184 4.9315 85.5214 4.9315 112.037C4.9315 135.721 23.054 154.988 45.3302 154.988C67.6064 154.988 85.728 135.721 85.728 112.037C85.728 100.946 83.6705 90.0318 79.6095 79.5973C76.3677 71.2672 71.8517 63.225 66.1864 55.6975Z" fill="url(#paint0_linear)"/>
<path d="M45.2046 142.953C61.321 142.953 74.4341 129.03 74.4341 111.916C74.4341 109.096 70.0392 109.091 70.0392 111.916C70.0392 126.607 58.8983 138.558 45.2046 138.558C42.3839 138.558 42.3793 142.953 45.2046 142.953Z" fill="url(#paint1_linear)"/>
<path d="M124.702 74.4887C124.012 73.5366 122.586 73.3082 121.633 73.9998C117.831 76.7564 113.365 78.2149 108.721 78.2149C96.2139 78.2149 86.0409 67.5823 86.0409 54.5123C86.0409 39.86 92.5107 28.2953 97.9385 21.1751C102.267 15.496 106.647 11.6469 108.734 9.95538C113.676 13.887 131.4 29.7273 131.4 54.5123C131.4 58.488 130.441 62.4196 128.625 65.8825C127.309 68.3941 131.207 70.4214 132.517 67.9226C134.661 63.8341 135.794 59.197 135.794 54.5123C135.794 38.3262 128.782 25.8351 122.899 18.2076C116.544 9.96639 110.234 5.56326 109.969 5.3798C109.209 4.85417 108.202 4.86151 107.447 5.39539C107.183 5.58436 100.885 10.0985 94.5362 18.3892C83.8824 32.3059 81.6451 45.7143 81.6451 54.5123C81.6451 70.0058 93.7904 82.6088 108.721 82.6088C114.298 82.6088 119.655 80.8623 124.212 77.5581C125.196 76.8444 125.414 75.4712 124.702 74.4887Z" fill="url(#paint2_linear)"/>
<path d="M123.727 51.3338C122.512 51.3338 121.53 52.3181 121.53 53.5308C121.53 60.8748 115.967 66.8493 109.132 66.8493C106.31 66.8493 106.305 71.2442 109.132 71.2442C118.391 71.2442 125.924 63.2984 125.924 53.5308C125.924 52.3181 124.94 51.3338 123.727 51.3338Z" fill="url(#paint3_linear)"/>
<path d="M145.992 93.8038C141.594 88.0999 137.206 85.0379 137.022 84.9104C136.261 84.3848 135.253 84.3921 134.5 84.9269C133.77 85.4452 116.614 97.8648 116.614 118.983C116.614 129.931 125.208 138.838 135.771 138.838C140.322 138.838 144.733 137.155 148.192 134.102C150.307 132.233 147.399 128.939 145.283 130.807C142.628 133.152 139.25 134.443 135.771 134.443C127.632 134.443 121.008 127.508 121.008 118.983C121.008 103.332 132.007 92.703 135.787 89.5126C139.573 92.648 150.536 103.1 150.536 118.983C150.536 120.866 149.159 124.694 152.269 124.855C155.066 125 154.931 120.839 154.931 118.983C154.931 110.092 151.839 101.385 145.992 93.8038Z" fill="url(#paint4_linear)"/>
<path d="M132.173 104.913C131.159 104.247 129.796 104.528 129.128 105.542C129.052 105.658 127.238 108.446 126.208 112.368C124.797 117.742 125.512 122.702 128.28 126.714C129.885 129.043 133.498 126.541 131.897 124.218C126.984 117.095 132.725 108.072 132.805 107.952C133.467 106.938 133.186 105.579 132.173 104.913Z" fill="url(#paint5_linear)"/>
<defs>
<linearGradient id="paint0_linear" x1="79.9315" y1="154.988" x2="79.9315" y2="4.99024" gradientUnits="userSpaceOnUse">
<stop stop-color="#B88BE4"/>
<stop offset="1" stop-color="#FFC9E3"/>
</linearGradient>
<linearGradient id="paint1_linear" x1="79.9315" y1="154.988" x2="79.9315" y2="4.99024" gradientUnits="userSpaceOnUse">
<stop stop-color="#B88BE4"/>
<stop offset="1" stop-color="#FFC9E3"/>
</linearGradient>
<linearGradient id="paint2_linear" x1="79.9315" y1="154.988" x2="79.9315" y2="4.99024" gradientUnits="userSpaceOnUse">
<stop stop-color="#B88BE4"/>
<stop offset="1" stop-color="#FFC9E3"/>
</linearGradient>
<linearGradient id="paint3_linear" x1="79.9315" y1="154.988" x2="79.9315" y2="4.99024" gradientUnits="userSpaceOnUse">
<stop stop-color="#B88BE4"/>
<stop offset="1" stop-color="#FFC9E3"/>
</linearGradient>
<linearGradient id="paint4_linear" x1="79.9315" y1="154.988" x2="79.9315" y2="4.99024" gradientUnits="userSpaceOnUse">
<stop stop-color="#B88BE4"/>
<stop offset="1" stop-color="#FFC9E3"/>
</linearGradient>
<linearGradient id="paint5_linear" x1="79.9315" y1="154.988" x2="79.9315" y2="4.99024" gradientUnits="userSpaceOnUse">
<stop stop-color="#B88BE4"/>
<stop offset="1" stop-color="#FFC9E3"/>
</linearGradient>
</defs>
</svg>
