<svg width="20" height="20" viewBox="0 0 20 20" fill="none" xmlns="http://www.w3.org/2000/svg">
<g clip-path="url(#clip0)">
<path d="M12.0002 0H7.99968C4.13933 0 0.998779 3.14055 0.998779 7.0009V10.0013C0.998779 12.7115 2.56183 15.171 4.99929 16.3279V19.6692C4.99929 19.9593 5.36222 20.111 5.56839 19.9049L8.47109 17.0022H12.0002C15.8605 17.0022 19.0011 13.8616 19.0011 10.0013V7.0009C19.0011 3.14055 15.8605 0 12.0002 0Z" fill="url(#paint0_linear)"/>
<path d="M8.18626 7.18125L8.51219 6.85527L8.51255 6.85492L8.18622 7.18121L8.18626 7.18125Z" fill="url(#paint1_linear)"/>
<path d="M11.8124 10.1551L11.4833 10.4843L11.4833 10.4843L11.8125 10.1552L11.8124 10.1551Z" fill="url(#paint2_linear)"/>
<path d="M10.6667 5.66736C10.4826 5.66736 10.3334 5.81662 10.3334 6.00072C10.3334 6.18482 10.4826 6.33408 10.6667 6.33408C11.402 6.33408 12.0003 6.93228 12.0003 7.66759C12.0003 7.84923 12.152 8.00095 12.3336 8.00095C12.5153 8.00095 12.667 7.84923 12.667 7.66759C12.667 6.56462 11.7697 5.66736 10.6667 5.66736Z" fill="white"/>
<path d="M10.6667 4.33386C10.5434 4.33386 10.419 4.3407 10.2968 4.35417C10.1138 4.37437 9.98178 4.5391 10.002 4.72214C10.0222 4.90519 10.1873 5.03683 10.3699 5.01695C10.4679 5.00613 10.5678 5.00062 10.6667 5.00062C12.1373 5.00062 13.3337 6.19703 13.3337 7.66761C13.3337 7.76664 13.3282 7.86648 13.3174 7.96445C13.2975 8.14496 13.4316 8.31253 13.6122 8.33242C13.7928 8.3523 13.9602 8.2182 13.9802 8.03761C13.9937 7.91543 14.0005 7.79097 14.0005 7.66761C14.0005 5.82941 12.505 4.33386 10.6667 4.33386Z" fill="white"/>
<path d="M10.6673 3.00037C10.5481 3.00037 10.4275 3.0049 10.3087 3.01392C10.1251 3.02783 9.98755 3.18798 10.0015 3.37154C10.0153 3.55513 10.176 3.69271 10.3591 3.6788C10.4611 3.67103 10.5649 3.66712 10.6673 3.66712C12.8732 3.66712 14.6678 5.46173 14.6678 7.66763C14.6678 7.97974 14.6318 8.29045 14.5608 8.59107C14.52 8.76334 14.6261 8.9424 14.7969 8.98919C14.9767 9.03841 15.1668 8.92572 15.2096 8.74443C15.2925 8.39361 15.3345 8.03134 15.3345 7.66763C15.3345 5.09408 13.2408 3.00037 10.6673 3.00037Z" fill="white"/>
<path d="M15.6248 12.7145C15.3871 13.3839 14.4439 13.9391 13.6915 14.1012C13.1767 14.2105 12.5044 14.2977 10.2411 13.3618C7.34609 12.1655 5.48176 9.23126 5.33645 9.04088C5.1973 8.85051 4.16663 7.48718 4.16663 6.07717C4.16663 4.66717 4.88453 3.98059 5.17391 3.68581C5.41157 3.44385 5.80438 3.33331 6.18119 3.33331C6.3031 3.33331 6.41269 3.33945 6.5112 3.34437C6.80058 3.35665 6.94589 3.37384 7.13675 3.82952C7.37441 4.40064 7.95317 5.81065 8.02213 5.95558C8.09232 6.10051 8.16251 6.29703 8.06399 6.4874C7.97164 6.68392 7.89037 6.77112 7.74506 6.93816C7.59976 7.1052 7.46184 7.23293 7.31654 7.41225C7.18355 7.56824 7.03332 7.73528 7.20078 8.02391C7.36825 8.3064 7.94701 9.24845 8.79914 10.005C9.89877 10.9815 10.7903 11.2935 11.1092 11.4261C11.3469 11.5244 11.6301 11.501 11.8037 11.3168C12.0242 11.0797 12.2963 10.6867 12.5734 10.2998C12.7704 10.0222 13.0191 9.98785 13.2802 10.0861C13.5462 10.1782 14.9537 10.8722 15.243 11.0159C15.5324 11.1608 15.7233 11.2296 15.7935 11.3512C15.8624 11.4728 15.8624 12.0439 15.6248 12.7145Z" fill="white"/>
</g>
<defs>
<linearGradient id="paint0_linear" x1="9.99992" y1="0" x2="9.99992" y2="20" gradientUnits="userSpaceOnUse">
<stop offset="0.229167" stop-color="#8474CD"/>
<stop offset="1" stop-color="#EDA2C6"/>
</linearGradient>
<linearGradient id="paint1_linear" x1="8.34938" y1="6.85492" x2="8.34938" y2="7.18125" gradientUnits="userSpaceOnUse">
<stop offset="0.229167" stop-color="#8474CD"/>
<stop offset="1" stop-color="#EDA2C6"/>
</linearGradient>
<linearGradient id="paint2_linear" x1="11.6478" y1="10.3197" x2="11.6479" y2="10.3197" gradientUnits="userSpaceOnUse">
<stop offset="0.229167" stop-color="#8474CD"/>
<stop offset="1" stop-color="#EDA2C6"/>
</linearGradient>
<clipPath id="clip0">
<rect width="20" height="20" fill="white"/>
</clipPath>
</defs>
</svg>
