<svg width="160" height="160" viewBox="0 0 160 160" fill="none" xmlns="http://www.w3.org/2000/svg">
<path d="M157.656 82.0759C156.361 82.0759 155.312 83.1253 155.312 84.4196V105.312C155.312 106.605 154.881 107.884 154.099 108.913L144.439 121.617C144.128 122.025 143.961 122.523 143.961 123.036V143.217C143.961 144.512 145.01 145.561 146.304 145.561C147.599 145.561 148.648 144.512 148.648 143.217V123.826L157.83 111.75C159.229 109.91 160 107.623 160 105.312V84.4196C160 83.1253 158.951 82.0759 157.656 82.0759Z" fill="url(#paint0_linear)"/>
<path d="M148.352 40.3784C147.406 40.3784 146.488 40.4944 145.607 40.7081V34.2206C145.607 28.9269 141.301 24.62 136.007 24.62C134.213 24.62 132.532 25.1147 131.094 25.9747V24.0387C131.094 18.745 126.787 14.4381 121.493 14.4381C116.199 14.4381 111.893 18.745 111.893 24.0387V27.4875C110.17 26.7794 108.368 26.2281 106.496 25.8609C105.225 25.6115 103.994 26.4397 103.745 27.7097C103.496 28.98 104.324 30.2115 105.594 30.4609C117.653 32.8262 126.405 44.11 126.405 57.2906C126.405 72.0469 112.134 95.0656 85.6856 108.661C83.95 109.553 82.1566 110.409 80.3544 111.205C80.1294 111.304 79.8719 111.305 79.6469 111.205C77.8434 110.409 76.05 109.553 74.3159 108.662C67.5244 105.171 61.2997 100.973 55.8147 96.1853C54.8394 95.3344 53.3591 95.4347 52.5075 96.4097C51.6563 97.385 51.7569 98.8653 52.7319 99.7169C57.8488 104.183 63.5725 108.157 69.7738 111.555L63.1847 121.765C62.9403 122.144 62.8103 122.585 62.8103 123.036V143.217C62.8103 144.512 63.8597 145.561 65.1541 145.561C66.4484 145.561 67.4978 144.512 67.4978 143.217V123.727L73.9544 113.722C75.2056 114.335 76.4756 114.929 77.7513 115.493C78.4656 115.809 79.2325 115.967 79.9997 115.967C80.7669 115.967 81.5338 115.809 82.2481 115.493C83.5228 114.93 84.7922 114.336 86.0434 113.723L92.4994 123.727V143.218C92.4994 144.512 93.5484 145.562 94.8431 145.562C96.1378 145.562 97.1869 144.512 97.1869 143.218V123.036C97.1869 122.585 97.0569 122.144 96.8125 121.765L90.2231 111.555C105.796 103.026 115.255 92.5819 120.513 85.1581C122.832 81.8837 124.809 78.5306 126.405 75.205V80C126.405 81.2943 127.454 82.3437 128.749 82.3437C130.043 82.3437 131.092 81.2943 131.092 80V34.2209C131.092 31.5119 133.297 29.3078 136.006 29.3078C138.714 29.3078 140.918 31.5119 140.918 34.2209V43.0656C138.345 45.204 136.703 48.4269 136.703 52.0265V84.229L130.404 87.2084C122.157 91.1084 116.828 99.5231 116.828 108.646V143.217C116.828 144.511 117.878 145.561 119.172 145.561C120.467 145.561 121.516 144.511 121.516 143.217V108.646C121.516 101.327 125.791 94.5753 132.408 91.4459L140.049 87.8322C140.868 87.4447 141.391 86.6197 141.391 85.7134V52.0265C141.391 48.1884 144.513 45.0662 148.351 45.0662C152.189 45.0662 155.311 48.1887 155.311 52.0265V74.1103C155.311 75.4047 156.36 76.454 157.655 76.454C158.95 76.454 159.999 75.4047 159.999 74.1103V52.0265C160 45.6037 154.774 40.3784 148.352 40.3784ZM116.58 29.934V24.0394C116.58 21.3303 118.784 19.1262 121.493 19.1262C124.202 19.1262 126.406 21.3303 126.406 24.0394V40.1481C123.929 36.0062 120.57 32.4987 116.58 29.934Z" fill="url(#paint1_linear)"/>
<path d="M33.5941 57.2906C33.5941 42.2506 44.9934 30.0143 59.005 30.0143C66.3584 30.0143 73.3475 33.4353 78.18 39.3997C78.625 39.9487 79.2941 40.2678 80.0009 40.2678C80.7078 40.2678 81.3769 39.9487 81.8219 39.3993C85.5512 34.7965 90.6594 31.6359 96.2056 30.4993C97.4741 30.2397 98.2912 29.0012 98.0316 27.7328C97.7716 26.4647 96.5297 25.6478 95.265 25.9072C89.5263 27.0828 84.1941 30.0618 80.0016 34.3918C74.4031 28.5997 66.8884 25.3262 59.0047 25.3262C55.1628 25.3262 51.4875 26.0959 48.1066 27.4953V24.0393C48.1066 18.7456 43.8 14.4387 38.5062 14.4387C33.2125 14.4387 28.9062 18.7456 28.9062 24.0393V25.9753C27.4681 25.115 25.7875 24.6206 23.9931 24.6206C18.6994 24.6206 14.3928 28.9275 14.3928 34.2212V40.7087C13.5122 40.495 12.5934 40.379 11.6481 40.379C5.22531 40.3784 0 45.6037 0 52.0265V105.312C0 107.623 0.770625 109.91 2.16969 111.75L11.3516 123.826V143.217C11.3516 144.512 12.4009 145.561 13.6953 145.561C14.9897 145.561 16.0391 144.512 16.0391 143.217V123.036C16.0391 122.523 15.8709 122.025 15.5609 121.617L5.90094 108.913C5.11844 107.884 4.6875 106.605 4.6875 105.312V52.0265C4.6875 48.1884 7.81 45.0662 11.6478 45.0662C15.4856 45.0662 18.6081 48.1887 18.6081 52.0265V85.7134C18.6081 86.6197 19.1306 87.4447 19.9497 87.8322L27.5909 91.4459C34.2075 94.5753 38.4828 101.327 38.4828 108.646V143.217C38.4828 144.512 39.5322 145.561 40.8266 145.561C42.1209 145.561 43.1703 144.512 43.1703 143.217V108.646C43.1703 99.5234 37.8416 91.1087 29.595 87.2087L23.2953 84.2293V52.0265C23.2953 48.4268 21.6534 45.2037 19.0797 43.0656V34.2209C19.0797 31.5118 21.2838 29.3078 23.9928 29.3078C26.7016 29.3078 28.9056 31.5118 28.9056 34.2209V80C28.9056 81.2943 29.955 82.3437 31.2494 82.3437C32.5438 82.3437 33.5931 81.2943 33.5931 80V75.2518C36.3728 81.0103 40.3069 86.8418 45.1847 92.2809C45.6475 92.7972 46.2875 93.06 46.9303 93.06C47.4875 93.06 48.0469 92.8625 48.4944 92.4609C49.4578 91.5968 49.5387 90.115 48.6744 89.1512C37.5559 76.7522 33.5941 64.5634 33.5941 57.2906ZM33.5938 24.0393C33.5938 21.3303 35.7978 19.1262 38.5069 19.1262C41.2159 19.1262 43.4197 21.3303 43.4197 24.0393V29.9547C39.4522 32.5153 36.0841 36.0231 33.5938 40.179V24.0393Z" fill="url(#paint2_linear)"/>
<path d="M62.8122 68.1325V71.57C62.8122 72.8644 63.8616 73.9137 65.1559 73.9137C66.4503 73.9137 67.4997 72.8644 67.4997 71.57V68.1325C67.4997 66.8381 66.4503 65.7887 65.1559 65.7887C63.8616 65.7887 62.8122 66.8381 62.8122 68.1325Z" fill="url(#paint3_linear)"/>
<path d="M92.4997 68.1325V71.57C92.4997 72.8644 93.5488 73.9137 94.8434 73.9137C96.1381 73.9137 97.1872 72.8644 97.1872 71.57V68.1325C97.1872 66.8381 96.1381 65.7887 94.8434 65.7887C93.5488 65.7887 92.4997 66.8381 92.4997 68.1325Z" fill="url(#paint4_linear)"/>
<path d="M84.4569 77.4037C84.0503 79.5372 82.1756 81.0859 79.9997 81.0859C77.8237 81.0859 75.9494 79.5372 75.5425 77.4034C75.3003 76.1318 74.0728 75.2965 72.8016 75.54C71.53 75.7822 70.6956 77.0097 70.9381 78.2809C71.7653 82.6222 75.5766 85.7731 80 85.7731C84.4238 85.7731 88.2347 82.6222 89.0619 78.2806C89.3041 77.009 88.4697 75.7818 87.1981 75.5397C85.9253 75.2975 84.6988 76.1322 84.4569 77.4037Z" fill="url(#paint5_linear)"/>
<defs>
<linearGradient id="paint0_linear" x1="79.9998" y1="145.562" x2="79.9998" y2="14.4381" gradientUnits="userSpaceOnUse">
<stop stop-color="#B88BE4"/>
<stop offset="1" stop-color="#FFC9E3"/>
</linearGradient>
<linearGradient id="paint1_linear" x1="79.9998" y1="145.562" x2="79.9998" y2="14.4381" gradientUnits="userSpaceOnUse">
<stop stop-color="#B88BE4"/>
<stop offset="1" stop-color="#FFC9E3"/>
</linearGradient>
<linearGradient id="paint2_linear" x1="79.9998" y1="145.562" x2="79.9998" y2="14.4381" gradientUnits="userSpaceOnUse">
<stop stop-color="#B88BE4"/>
<stop offset="1" stop-color="#FFC9E3"/>
</linearGradient>
<linearGradient id="paint3_linear" x1="79.9998" y1="145.562" x2="79.9998" y2="14.4381" gradientUnits="userSpaceOnUse">
<stop stop-color="#B88BE4"/>
<stop offset="1" stop-color="#FFC9E3"/>
</linearGradient>
<linearGradient id="paint4_linear" x1="79.9998" y1="145.562" x2="79.9998" y2="14.4381" gradientUnits="userSpaceOnUse">
<stop stop-color="#B88BE4"/>
<stop offset="1" stop-color="#FFC9E3"/>
</linearGradient>
<linearGradient id="paint5_linear" x1="79.9998" y1="145.562" x2="79.9998" y2="14.4381" gradientUnits="userSpaceOnUse">
<stop stop-color="#B88BE4"/>
<stop offset="1" stop-color="#FFC9E3"/>
</linearGradient>
</defs>
</svg>
