<svg width="125" height="120" viewBox="0 0 125 120" fill="none" xmlns="http://www.w3.org/2000/svg">
<path fill-rule="evenodd" clip-rule="evenodd" d="M57.6468 0.326176L58.5217 0.703745C60.1366 1.40066 61.5702 1.93702 63.0279 2.48241C63.3491 2.60254 63.6713 2.72311 63.997 2.84594C65.7984 3.52541 67.6838 4.26697 69.9856 5.36707C70.6389 5.67932 71.3446 6.03283 72.1128 6.4367C72.8886 6.84452 73.7281 7.3037 74.6419 7.82361C80.655 11.2449 84.1642 16.4322 86.0213 21.3367C87.8196 26.0862 88.0956 30.645 87.5414 33.1612C88.4773 35.7506 89.2103 37.8034 89.6348 40.297C89.7677 41.0773 89.87 41.8981 89.9399 42.7903C91.0629 38.4363 92.7635 34.2008 95.1433 30.45C93.603 28.0851 91.9069 22.5217 95.1537 15.7409L95.581 14.8485L96.2452 15.5821C98.804 18.4084 99.374 21.565 99.0435 24.3361C98.9887 24.7952 98.9093 25.244 98.8101 25.6796C99.8393 24.5759 100.953 23.5477 102.156 22.6102C102.445 22.3847 102.862 22.4362 103.088 22.7253C103.313 23.0144 103.262 23.4315 102.973 23.657C100.692 25.4347 98.7379 27.562 97.0819 29.9337C96.8823 30.2603 96.6817 30.5556 96.4874 30.8151C92.755 36.5435 90.6742 43.5437 89.8894 50.3822C88.8843 59.1392 85.4296 67.4808 81.0351 73.6213C78.8373 76.6923 76.3912 79.2312 73.8784 80.9961C71.3699 82.7579 68.7534 83.7761 66.2319 83.726C61.3241 83.6285 56.6821 80.9567 52.7867 76.8427C48.8862 72.7234 45.6797 67.1053 43.6318 60.9698C42.2597 56.859 40.3872 50.7119 40.3364 45.6784C40.3111 43.1661 40.7364 40.8127 42.0203 39.1336C43.3408 37.4068 45.4646 36.5233 48.5141 36.7535C53.2066 37.1078 57.7308 39.0494 60.5968 43.1072C63.4023 47.0795 64.5339 52.959 62.8437 61.0711C64.9858 61.967 66.4714 61.7228 67.2133 61.5113C67.566 61.4108 67.9335 61.6151 68.0341 61.9676C68.1347 62.3202 67.9303 62.6875 67.5776 62.788C66.5159 63.0907 64.5264 63.3591 61.7956 62.0561L61.3194 61.8289L61.4331 61.314C63.2344 53.1567 62.0933 47.528 59.5116 43.8729C56.9298 40.2174 52.8187 38.4099 48.4141 38.0774C45.6883 37.8715 44.0555 38.6584 43.0757 39.9398C42.0592 41.2691 41.6404 43.2618 41.6646 45.665C41.713 50.4624 43.5146 56.4236 44.8918 60.5497C46.8893 66.534 50.0058 71.9744 53.7514 75.9301C57.5019 79.891 61.8288 82.3106 66.2582 82.3986C68.4053 82.4413 70.7482 81.5718 73.1147 79.9098C75.4769 78.2508 77.8215 75.8297 79.9547 72.8489C84.2195 66.8898 87.5868 58.7675 88.5678 50.2477C88.848 45.8051 88.736 42.9318 88.3254 40.5197C87.9318 38.208 87.2607 36.2943 86.3518 33.7776C77.7088 31.9768 68.921 27.364 63.3586 20.1139C59.4881 15.069 57.1901 8.7582 57.5953 1.27727L57.6468 0.326176ZM86.4689 30.5256C86.482 28.2088 86.0198 25.0834 84.779 21.8066C83.0067 17.1259 79.6741 12.2144 73.9848 8.97738C73.4805 8.69045 72.9997 8.42263 72.5408 8.17228C72.6071 9.96187 72.5397 12.7462 71.9671 15.2823C73.5486 16.5284 75.2963 17.8225 77.2228 19.1532C81.3281 21.9888 84.4561 26.1546 86.4689 30.5256ZM70.8038 14.3502C71.3008 11.7174 71.2761 8.89328 71.1721 7.44326C70.9317 7.31844 70.6978 7.19888 70.4703 7.08426C70.5916 8.80519 70.6369 11.4658 70.2541 13.8986C70.4348 14.0484 70.6181 14.1989 70.8038 14.3502ZM69.0522 12.8836C69.3418 10.3951 69.2186 7.7761 69.0801 6.407C66.9764 5.41598 65.225 4.72811 63.528 4.08805C63.2085 3.96753 62.8903 3.84849 62.5716 3.72928C61.6238 3.37473 60.6721 3.0187 59.6701 2.61792C61.0094 4.82083 63.8988 8.44679 69.0522 12.8836ZM58.8916 3.87141C59.0788 9.84006 61.1125 14.9411 64.2876 19.1419C69.3421 20.7419 73.3758 20.2127 75.4642 19.5444C73.7741 18.35 72.2255 17.1856 70.8095 16.0594C70.2202 15.5908 69.654 15.1288 69.11 14.674C63.7693 10.2088 60.5563 6.41901 58.8916 3.87141ZM76.7814 20.4662C80.8737 23.4025 83.9452 27.7775 85.7898 32.2955C78.3304 30.5821 70.8982 26.7291 65.7442 20.9185C70.9108 22.1258 74.9357 21.2819 76.7814 20.4662ZM95.9695 29.2072C96.731 27.9518 97.4874 26.1669 97.7245 24.1789C97.9863 21.9842 97.6169 19.5508 95.9221 17.2766C93.6729 22.7061 94.8072 27.0913 95.9586 29.2228C95.9622 29.2176 95.9658 29.2124 95.9695 29.2072ZM83.3493 38.4289C76.5953 37.2667 70.8878 40.2097 68.0774 44.57C67.8788 44.8782 67.4678 44.967 67.1594 44.7685C66.8511 44.5699 66.7621 44.1592 66.9608 43.851C70.0657 39.0337 76.3065 35.8699 83.5746 37.1205C83.9361 37.1827 84.1787 37.5261 84.1165 37.8873C84.0543 38.2486 83.7108 38.4911 83.3493 38.4289ZM82.3477 46.4226C82.6532 46.6255 82.7362 47.0376 82.5332 47.3429C80.9074 49.7876 78.4034 50.8876 76.0545 51.3167C73.7103 51.745 71.4508 51.5207 70.1762 51.2526C69.8173 51.1771 69.5875 50.825 69.663 50.4663C69.7386 50.1075 70.0908 49.8779 70.4497 49.9534C71.5969 50.1947 73.6781 50.4013 75.8157 50.0108C77.9485 49.6211 80.0672 48.6526 81.427 46.608C81.63 46.3026 82.0423 46.2197 82.3477 46.4226ZM45.7029 47.1729C46.0162 46.9823 46.4248 47.0816 46.6156 47.3947C47.8639 49.4441 50.0966 50.3029 52.3667 50.5154C54.6469 50.7288 56.7956 50.2709 57.6543 49.8728C57.987 49.7186 58.3819 49.8631 58.5362 50.1957C58.6906 50.5282 58.546 50.9229 58.2132 51.0772C57.1039 51.5915 54.7123 52.0683 52.2429 51.8372C49.7636 51.6051 47.0374 50.6401 45.481 48.0851C45.2903 47.7719 45.3896 47.3635 45.7029 47.1729ZM64.5436 68.6756C68.2208 67.627 70.9131 68.4146 72.9467 69.9335L73.3686 70.2486L73.1578 70.731C71.9533 73.4867 68.7636 75.2481 65.5397 75.4944C62.2774 75.7437 58.7867 74.458 57.0174 70.8878L56.7923 70.4336L57.1713 70.097C58.3535 69.0469 59.5792 68.4429 60.8694 68.2446C62.0854 68.0577 63.3085 68.2389 64.5436 68.6756ZM70.853 70.2082C69.2922 69.4657 67.3183 69.2241 64.7128 70.0096L64.4974 70.0745L64.2869 69.9952C63.1302 69.5597 62.0725 69.4029 61.0713 69.5568C60.4468 69.6528 59.8222 69.873 59.1907 70.248C61.1956 70.6522 62.9378 70.9059 64.7454 70.9324C66.5823 70.9593 68.5067 70.7515 70.853 70.2082ZM71.1045 71.5127C68.6942 72.0676 66.6755 72.2884 64.7259 72.2599C62.8294 72.2321 61.0171 71.9682 59.0018 71.5643C60.5915 73.5907 63.0304 74.3547 65.4384 74.1707C67.7103 73.9971 69.8356 72.9896 71.1045 71.5127Z" fill="white"/>
<path d="M121.093 116.028L121.142 116.049C121.179 116.065 121.213 116.08 121.244 116.092C121.274 116.101 121.311 116.111 121.354 116.122C121.392 116.132 121.438 116.142 121.493 116.153L121.493 116.154C121.548 116.164 121.593 116.172 121.63 116.178C121.654 116.182 121.687 116.187 121.725 116.192C121.752 116.195 121.78 116.197 121.807 116.198C121.826 116.199 121.881 116.199 121.971 116.199C122.143 116.199 122.293 116.182 122.419 116.148C122.528 116.119 122.619 116.078 122.69 116.026C122.752 115.977 122.799 115.92 122.828 115.854C122.86 115.784 122.877 115.696 122.877 115.59C122.877 115.498 122.867 115.423 122.847 115.365C122.833 115.32 122.812 115.284 122.785 115.256L122.769 115.238C122.742 115.207 122.679 115.164 122.577 115.11C122.44 115.038 122.267 114.964 122.059 114.889L121.785 114.795L121.785 114.796C121.151 114.588 120.668 114.321 120.334 113.995C119.964 113.631 119.778 113.204 119.778 112.713C119.778 112.325 119.855 111.964 120.007 111.632C120.159 111.302 120.385 111.007 120.683 110.747L120.685 110.745C120.828 110.623 120.985 110.514 121.154 110.419C121.323 110.324 121.499 110.245 121.681 110.183C121.867 110.119 122.062 110.072 122.265 110.041C122.466 110.01 122.676 109.995 122.894 109.995C122.984 109.995 123.072 109.997 123.158 110.002C123.248 110.007 123.318 110.014 123.37 110.025C123.423 110.031 123.479 110.041 123.541 110.054C123.613 110.07 123.701 110.092 123.805 110.119L123.805 110.12C123.919 110.146 124.023 110.178 124.117 110.214C124.225 110.256 124.322 110.305 124.409 110.361L124.412 110.363L124.468 110.4C124.516 110.43 124.562 110.465 124.606 110.505C124.654 110.549 124.695 110.596 124.728 110.645L124.746 110.672L124.855 110.912V111C124.855 111.079 124.841 111.157 124.812 111.232C124.78 111.313 124.735 111.383 124.676 111.442L124.608 111.51L124.27 111.623L124.064 111.582L123.936 111.527L123.809 111.457L123.809 111.457C123.745 111.424 123.675 111.394 123.6 111.367C123.525 111.34 123.437 111.315 123.336 111.291L123.336 111.291C123.303 111.283 123.261 111.275 123.211 111.266C123.148 111.255 123.101 111.247 123.07 111.243C122.985 111.232 122.889 111.226 122.784 111.226C122.506 111.226 122.259 111.263 122.04 111.337C121.829 111.409 121.642 111.516 121.48 111.658L121.476 111.661C121.318 111.797 121.201 111.948 121.124 112.113C121.048 112.278 121.01 112.463 121.01 112.67C121.01 112.839 121.1 113.002 121.279 113.159C121.513 113.364 121.88 113.55 122.379 113.719L122.379 113.719L122.614 113.794L122.615 113.792C122.858 113.869 123.073 113.96 123.258 114.063C123.451 114.171 123.61 114.293 123.736 114.431L123.736 114.43C123.876 114.575 123.982 114.743 124.052 114.931C124.119 115.113 124.152 115.311 124.152 115.525C124.152 115.804 124.098 116.063 123.991 116.299C123.883 116.537 123.723 116.747 123.51 116.931C123.306 117.108 123.069 117.24 122.802 117.327C122.543 117.411 122.259 117.453 121.949 117.453C121.801 117.453 121.675 117.448 121.57 117.438C121.508 117.433 121.439 117.423 121.365 117.41C121.312 117.401 121.222 117.383 121.096 117.357L121.096 117.358C120.971 117.336 120.856 117.306 120.751 117.269C120.645 117.231 120.549 117.185 120.464 117.133L120.451 117.126C120.405 117.106 120.363 117.081 120.323 117.054C120.267 117.015 120.221 116.97 120.183 116.92L120.13 116.85L120.064 116.585V116.535C120.064 116.462 120.075 116.392 120.098 116.324C120.127 116.237 120.172 116.164 120.232 116.104L120.233 116.105C120.291 116.046 120.362 116 120.444 115.967C120.509 115.941 120.579 115.925 120.655 115.917L120.688 115.914H120.979L121.093 116.028L121.093 116.028Z" fill="white"/>
<path d="M110.129 115.412L109.289 117.007L109.273 117.035C109.243 117.082 109.213 117.123 109.184 117.158C109.158 117.19 109.13 117.219 109.1 117.246C109.06 117.284 109.012 117.319 108.955 117.35C108.905 117.378 108.853 117.399 108.8 117.414L108.743 117.431H108.684C108.545 117.431 108.419 117.382 108.304 117.286C108.23 117.224 108.164 117.141 108.107 117.038L108.102 117.027L104.899 110.923L104.87 110.837L104.822 110.627V110.583C104.822 110.51 104.836 110.438 104.864 110.367C104.894 110.294 104.936 110.23 104.991 110.174L105.001 110.164L105.026 110.144C105.078 110.103 105.132 110.071 105.188 110.047C105.242 110.025 105.3 110.009 105.362 110L105.459 109.986L105.748 110.083L105.951 110.285L108.689 115.523L109.449 114.106L107.814 110.952L107.811 110.947L107.747 110.82L107.682 110.56L107.729 110.436C107.748 110.385 107.763 110.347 107.775 110.323C107.805 110.263 107.84 110.214 107.879 110.174L107.931 110.123L108.271 109.968L108.551 110.052L108.575 110.063C108.642 110.092 108.701 110.129 108.753 110.174H108.754C108.809 110.223 108.852 110.279 108.884 110.344L108.884 110.344L110.141 112.756L111.402 110.278L111.452 110.229C111.483 110.198 111.514 110.171 111.546 110.147C111.59 110.114 111.635 110.089 111.68 110.071L111.68 110.07L111.869 109.995H111.947C112.037 109.995 112.124 110.016 112.208 110.058C112.27 110.089 112.326 110.13 112.374 110.179C112.414 110.217 112.449 110.262 112.479 110.315C112.505 110.362 112.526 110.413 112.541 110.467L112.572 110.576L112.489 110.906L110.831 114.063L111.585 115.509L114.305 110.285L114.481 110.11L114.739 109.995H114.826C114.907 109.995 114.986 110.013 115.065 110.048C115.118 110.073 115.167 110.105 115.212 110.144C115.27 110.186 115.317 110.238 115.353 110.299C115.394 110.366 115.42 110.441 115.432 110.524L115.439 110.577L115.415 110.793L115.358 110.926L115.343 110.954L112.176 116.99C112.148 117.05 112.116 117.105 112.079 117.153C112.044 117.198 112.005 117.237 111.963 117.271C111.92 117.312 111.87 117.346 111.813 117.372C111.75 117.4 111.684 117.419 111.614 117.428L111.588 117.431H111.563C111.429 117.431 111.309 117.384 111.201 117.291C111.134 117.233 111.076 117.157 111.026 117.065L110.993 117.01L110.129 115.412V115.412Z" fill="white"/>
<path d="M97.3674 111.248C97.0226 111.248 96.7063 111.309 96.4188 111.43C96.1288 111.553 95.8605 111.739 95.614 111.988C95.3708 112.234 95.1891 112.502 95.069 112.79C94.9501 113.076 94.8907 113.387 94.8907 113.724C94.8907 114.057 94.9505 114.366 95.0701 114.65C95.1915 114.938 95.3765 115.208 95.625 115.459C95.8709 115.708 96.1389 115.894 96.4287 116.017C96.7147 116.139 97.0276 116.199 97.3674 116.199C97.708 116.199 98.0211 116.14 98.3069 116.021C98.5928 115.902 98.8574 115.721 99.1007 115.478L99.1015 115.479C99.344 115.236 99.5248 114.97 99.6441 114.68C99.7629 114.392 99.8224 114.073 99.8224 113.724C99.8224 113.371 99.7633 113.05 99.6452 112.759C99.5279 112.471 99.3501 112.208 99.1117 111.969L99.11 111.966C98.8718 111.725 98.6091 111.545 98.3221 111.426C98.0348 111.307 97.7166 111.248 97.3674 111.248H97.3674ZM97.3674 109.995C97.8825 109.995 98.3619 110.086 98.8054 110.269C99.2479 110.452 99.6483 110.724 100.007 111.086C100.368 111.444 100.641 111.844 100.823 112.287C101.007 112.73 101.098 113.209 101.098 113.724C101.098 114.236 101.006 114.714 100.821 115.157C100.636 115.598 100.361 115.999 99.9954 116.361L99.9962 116.362C99.8201 116.538 99.6318 116.695 99.4313 116.833C99.2324 116.969 99.0239 117.084 98.8057 117.176C98.5863 117.269 98.3561 117.338 98.1152 117.384C97.8737 117.43 97.6244 117.453 97.3674 117.453C96.8603 117.453 96.3864 117.36 95.9456 117.175C95.5087 116.992 95.1069 116.717 94.7405 116.351L94.7388 116.349C94.3726 115.983 94.0977 115.582 93.9143 115.145C93.7292 114.704 93.6367 114.231 93.6367 113.724C93.6367 113.224 93.7274 112.754 93.9088 112.314C94.0889 111.878 94.3566 111.477 94.7118 111.114C95.0703 110.743 95.4724 110.464 95.9181 110.277C96.365 110.089 96.8481 109.995 97.3674 109.995L97.3674 109.995Z" fill="white"/>
<path d="M84.0205 112.175C84.0205 111.939 84.008 111.746 83.9831 111.597C83.9626 111.474 83.9379 111.39 83.9091 111.343L83.8991 111.326C83.8862 111.303 83.8695 111.286 83.8488 111.276C83.8118 111.257 83.7539 111.248 83.6751 111.248C83.5622 111.248 83.4229 111.286 83.2572 111.362C83.0647 111.45 82.8415 111.589 82.5876 111.778L82.581 111.782L82.2727 112.004L82.0878 112.096L81.9364 112.126H81.8951C81.7742 112.126 81.6621 112.095 81.5574 112.032L81.5409 112.022L81.521 112.007C81.4578 111.96 81.4074 111.902 81.3695 111.834V111.832C81.3359 111.772 81.3136 111.708 81.3024 111.641L81.2958 111.601V111.571C81.2958 111.519 81.3004 111.471 81.3095 111.424C81.3239 111.352 81.3498 111.287 81.387 111.23L81.3995 111.211L81.4862 111.11L81.5077 111.087L81.5515 111.043L81.573 111.023C81.7648 110.855 81.9506 110.709 82.1302 110.584C82.319 110.454 82.4986 110.348 82.669 110.267C82.8438 110.18 83.0203 110.113 83.1985 110.067C83.3851 110.019 83.5659 109.995 83.7409 109.995C84.2283 109.995 84.6097 110.173 84.8848 110.529L84.8849 110.529C85.0189 110.697 85.1184 110.899 85.1834 111.132C85.2182 111.257 85.243 111.39 85.2577 111.531C85.4351 111.37 85.6003 111.224 85.7532 111.095C86.105 110.798 86.3989 110.579 86.6351 110.439C86.8782 110.295 87.1201 110.185 87.3606 110.111C87.6103 110.033 87.854 109.995 88.0917 109.995C88.3744 109.995 88.6345 110.041 88.8719 110.134C89.1131 110.229 89.3262 110.37 89.5111 110.559L89.5119 110.558C89.6962 110.742 89.8354 110.96 89.9293 111.21C90.0196 111.45 90.0647 111.713 90.0647 111.999C90.0647 112.235 90.0368 112.458 89.9811 112.667C89.9237 112.883 89.8374 113.08 89.722 113.26L89.7187 113.263C89.6019 113.441 89.4573 113.599 89.285 113.737C89.1169 113.872 88.9236 113.989 88.7049 114.087L88.6867 114.094L88.4979 114.169H88.2977L88.2397 114.152C88.2087 114.144 88.1734 114.131 88.1344 114.116C88.0852 114.096 88.0451 114.076 88.014 114.056L87.9426 114.009L87.8932 113.935C87.8547 113.877 87.8282 113.812 87.8138 113.74C87.8046 113.695 87.8 113.645 87.8 113.592V113.534L87.8739 113.276L88.079 113.105L88.1503 113.069C88.2894 112.992 88.4063 112.913 88.5009 112.832C88.5825 112.762 88.645 112.692 88.6886 112.622L88.6936 112.614C88.7401 112.543 88.7747 112.467 88.7972 112.388C88.8209 112.304 88.8328 112.211 88.8328 112.109C88.8328 111.958 88.8136 111.829 88.7752 111.72C88.7406 111.622 88.6902 111.539 88.624 111.47L88.6141 111.459C88.5534 111.392 88.4778 111.341 88.3873 111.306C88.2868 111.267 88.1627 111.248 88.0149 111.248C87.8987 111.248 87.7613 111.279 87.6027 111.342C87.422 111.413 87.2196 111.523 86.9958 111.671L86.9955 111.67C86.7654 111.825 86.4984 112.035 86.1944 112.301C85.9184 112.542 85.6116 112.829 85.2741 113.162V116.7C85.2741 116.782 85.2555 116.864 85.2179 116.945C85.1912 117.003 85.1538 117.061 85.1056 117.117L85.1057 117.117C85.0446 117.188 84.9725 117.243 84.8892 117.282C84.8028 117.323 84.713 117.343 84.6198 117.343C84.4377 117.343 84.2898 117.286 84.1777 117.173L84.1416 117.137L84.1148 117.092C84.0777 117.03 84.0518 116.96 84.037 116.882C84.026 116.823 84.0205 116.762 84.0205 116.7V112.175L84.0205 112.175Z" fill="white"/>
<path d="M67.0934 119.858C66.9672 119.858 66.8565 119.847 66.7614 119.824C66.6215 119.791 66.5084 119.732 66.422 119.646L66.4203 119.644C66.3377 119.561 66.281 119.454 66.2502 119.321C66.2297 119.233 66.2194 119.132 66.2194 119.017V110.479H64.5224C64.4473 110.479 64.3775 110.47 64.3132 110.452C64.2167 110.424 64.1352 110.377 64.0692 110.312L64.0659 110.308L64.0394 110.275C63.9955 110.22 63.9606 110.158 63.9347 110.09C63.9155 110.039 63.8997 109.979 63.8873 109.911L63.879 109.865V109.836C63.879 109.631 63.9505 109.474 64.0935 109.367L64.1632 109.315L64.4746 109.237H66.2194V99.4697C66.2194 99.3468 66.2549 99.2341 66.3258 99.1312C66.382 99.0496 66.4581 98.9819 66.554 98.9281C66.6322 98.8807 66.7178 98.8463 66.8106 98.8247H66.8123C66.9005 98.8041 66.9942 98.7939 67.0934 98.7939H71.3895C72.4273 98.7939 73.3621 98.9283 74.194 99.197C75.039 99.47 75.7722 99.8797 76.3936 100.426L76.3929 100.427C77.0193 100.974 77.4899 101.619 77.8046 102.362C78.117 103.099 78.2733 103.925 78.2733 104.84C78.2733 105.493 78.1683 106.113 77.9584 106.698C77.7487 107.283 77.4366 107.826 77.022 108.327C76.607 108.829 76.1244 109.246 75.5741 109.578C75.3211 109.731 75.0544 109.866 74.7739 109.982C74.9122 110.068 75.0448 110.16 75.1716 110.257C75.5785 110.571 75.9227 110.943 76.2043 111.373L76.2035 111.373C76.4875 111.798 76.7005 112.265 76.8423 112.774C76.9833 113.28 77.0538 113.824 77.0538 114.405C77.0538 115.261 76.9197 116.026 76.6516 116.699C76.3786 117.384 75.9703 117.966 75.4266 118.445L75.4258 118.444C74.8895 118.92 74.2401 119.276 73.4774 119.511C72.7296 119.742 71.8762 119.858 70.917 119.858H67.0935L67.0934 119.858ZM71.8179 110.479H67.495V118.615H70.3567C70.8124 118.615 71.2105 118.605 71.5513 118.584C71.7248 118.574 71.8914 118.56 72.0511 118.542C72.2023 118.525 72.3493 118.504 72.4921 118.479H72.4987C72.7486 118.439 72.9844 118.383 73.2061 118.31C73.4241 118.239 73.6219 118.154 73.7995 118.056L73.7991 118.055C74.1113 117.881 74.3878 117.672 74.6288 117.428C74.8696 117.184 75.0757 116.904 75.2471 116.588L75.2488 116.584C75.4254 116.264 75.5578 115.926 75.6458 115.569C75.734 115.212 75.7782 114.831 75.7782 114.427C75.7782 113.801 75.6899 113.246 75.5135 112.761C75.3406 112.287 75.0819 111.876 74.7376 111.529C74.3934 111.181 73.9828 110.921 73.506 110.747C73.0178 110.568 72.4551 110.479 71.8179 110.479H71.8179ZM71.664 100.069H67.495V109.237H71.4553C71.98 109.237 72.4335 109.221 72.8156 109.19C73.1909 109.158 73.4922 109.114 73.7195 109.056L73.7192 109.054C73.9571 108.991 74.1918 108.906 74.4232 108.799C74.6576 108.692 74.8896 108.562 75.1193 108.41L75.119 108.41C75.4079 108.215 75.6649 107.992 75.89 107.74C76.1165 107.488 76.3156 107.201 76.4875 106.882L76.4869 106.882C76.6583 106.559 76.7862 106.231 76.8708 105.896C76.9553 105.561 76.9976 105.216 76.9976 104.862C76.9976 104.148 76.8764 103.505 76.6341 102.934C76.3935 102.366 76.0299 101.861 75.5435 101.419L75.5419 101.417C75.0564 100.969 74.4947 100.633 73.8569 100.409C73.2101 100.182 72.4791 100.069 71.664 100.069L71.664 100.069Z" fill="white"/>
<path d="M47.4932 114.339V114.471C47.4932 115.172 47.5916 115.649 47.7885 115.902L47.7871 115.903C47.8696 116.004 47.9832 116.082 48.1279 116.137C48.2962 116.201 48.5075 116.233 48.7618 116.233C48.9482 116.233 49.0952 116.221 49.203 116.198L49.208 116.197C49.2628 116.186 49.3168 116.171 49.3698 116.151C49.4254 116.13 49.4909 116.1 49.5663 116.061L49.5666 116.062C49.6741 116.005 49.7915 115.92 49.9187 115.808C50.0573 115.687 50.2013 115.538 50.3508 115.362L50.3739 115.335L50.4256 115.284L50.5068 115.182L50.5169 115.172C50.5767 115.112 50.646 115.069 50.7251 115.043C50.7852 115.023 50.8484 115.014 50.9152 115.014C50.9956 115.014 51.0724 115.028 51.1454 115.055C51.2092 115.08 51.2667 115.113 51.318 115.156C51.3846 115.203 51.438 115.263 51.4781 115.337C51.5243 115.422 51.5475 115.514 51.5475 115.613C51.5475 115.699 51.5256 115.785 51.4819 115.873C51.4512 115.934 51.4127 115.991 51.3664 116.044L51.366 116.044L51.3586 116.053L51.3434 116.082C51.2229 116.283 51.0686 116.467 50.8805 116.635C50.6996 116.797 50.488 116.943 50.2459 117.072L50.2442 117.074C50.0082 117.198 49.7658 117.292 49.517 117.356C49.264 117.42 49.0122 117.453 48.7618 117.453C48.3444 117.453 47.9773 117.398 47.6604 117.288C47.3205 117.17 47.0439 116.99 46.8306 116.749L46.824 116.742C46.7206 116.62 46.6308 116.48 46.5545 116.323C46.4828 116.176 46.4231 116.011 46.3753 115.828C46.3296 115.654 46.2955 115.46 46.2731 115.249C46.2508 115.038 46.2396 114.815 46.2396 114.58V114.471L46.2412 114.464L46.2989 111.402H44.6855C44.6075 111.402 44.5326 111.391 44.4609 111.368C44.3799 111.343 44.3062 111.303 44.2401 111.248L44.2104 111.223L44.1855 111.193C44.1329 111.13 44.0938 111.06 44.0681 110.983C44.0434 110.91 44.0311 110.835 44.0311 110.759C44.0311 110.671 44.0468 110.589 44.078 110.514C44.1228 110.407 44.1945 110.324 44.293 110.265L44.3475 110.232L44.6377 110.16H46.3202L46.4716 105.455H46.4703C46.4703 105.376 46.4827 105.3 46.5072 105.226C46.5383 105.133 46.5857 105.054 46.6492 104.991L46.6501 104.992C46.7083 104.934 46.7719 104.889 46.8404 104.857C46.9215 104.819 47.0053 104.801 47.0916 104.801C47.2745 104.801 47.4178 104.857 47.5226 104.969L47.523 104.969C47.5822 105.028 47.6283 105.104 47.6609 105.196C47.6812 105.254 47.697 105.319 47.708 105.392L47.7124 105.421L47.5908 110.16H50.1789C50.2615 110.16 50.3435 110.179 50.4248 110.216C50.4835 110.243 50.5408 110.28 50.5965 110.328C50.6667 110.388 50.7207 110.456 50.7585 110.532C50.801 110.617 50.8223 110.708 50.8223 110.803C50.8223 110.886 50.8067 110.965 50.7755 111.04C50.7389 111.129 50.6828 111.203 50.607 111.264L50.5357 111.321L50.2304 111.402H47.5494L47.4917 114.339H47.4932L47.4932 114.339Z" fill="white"/>
<path d="M36.7972 116.028L36.8465 116.049C36.8677 116.058 36.903 116.073 36.9529 116.094C36.9823 116.103 37.0171 116.112 37.0575 116.122C37.0957 116.132 37.1421 116.142 37.1968 116.153L37.1967 116.154C37.2518 116.164 37.2973 116.172 37.3334 116.178C37.3579 116.182 37.3904 116.187 37.4292 116.192C37.4561 116.195 37.4833 116.197 37.5108 116.198C37.5303 116.199 37.5849 116.199 37.6744 116.199C37.8473 116.199 37.9968 116.182 38.1229 116.148C38.2322 116.119 38.3225 116.078 38.3939 116.026C38.4562 115.977 38.5023 115.92 38.5322 115.854C38.5643 115.784 38.5804 115.696 38.5804 115.59C38.5804 115.497 38.5707 115.421 38.5513 115.363C38.5369 115.32 38.5162 115.284 38.4892 115.256L38.4726 115.238C38.4465 115.207 38.3825 115.164 38.2807 115.11C38.1438 115.038 37.9712 114.964 37.7628 114.889L37.4892 114.795L37.4889 114.796C36.855 114.588 36.3714 114.321 36.038 113.995C35.6674 113.631 35.4821 113.204 35.4821 112.713C35.4821 112.325 35.5584 111.964 35.7112 111.632C35.8633 111.302 36.0887 111.007 36.3873 110.747L36.389 110.745C36.5321 110.623 36.6884 110.514 36.8579 110.419C37.0271 110.324 37.2028 110.245 37.3851 110.183C37.5713 110.119 37.7659 110.072 37.9689 110.041C38.1699 110.01 38.3795 109.995 38.5973 109.995C38.6882 109.995 38.7765 109.997 38.8623 110.002C38.9516 110.007 39.0222 110.014 39.074 110.025C39.1265 110.031 39.1833 110.041 39.2444 110.054C39.3168 110.07 39.4049 110.092 39.5086 110.119L39.5084 110.12C39.6225 110.146 39.7267 110.178 39.8209 110.214C39.9287 110.256 40.026 110.305 40.1129 110.361L40.1162 110.363L40.1721 110.4C40.22 110.43 40.2662 110.465 40.3104 110.505C40.3599 110.551 40.4008 110.598 40.433 110.646L40.4491 110.67L40.5593 110.912V111C40.5593 111.08 40.5447 111.157 40.5157 111.232C40.485 111.311 40.4398 111.381 40.3801 111.441L40.3096 111.511L39.9736 111.623L39.7678 111.582L39.6396 111.527L39.5128 111.457L39.5128 111.457C39.4485 111.424 39.3788 111.394 39.3039 111.367C39.2286 111.34 39.1406 111.315 39.0399 111.291L39.04 111.291C39.0069 111.283 38.965 111.275 38.9146 111.266C38.8515 111.255 38.8046 111.247 38.7735 111.243C38.7329 111.238 38.6864 111.233 38.6341 111.23C38.5945 111.227 38.5456 111.226 38.4875 111.226C38.2103 111.226 37.9624 111.263 37.7441 111.337C37.5326 111.409 37.3456 111.516 37.1834 111.658L37.1801 111.661C37.0221 111.797 36.9047 111.947 36.8279 112.113C36.7518 112.278 36.7137 112.463 36.7137 112.67C36.7137 112.839 36.8034 113.002 36.9829 113.159C37.217 113.364 37.5838 113.55 38.0832 113.719L38.0831 113.719L38.3179 113.794L38.3184 113.792C38.562 113.869 38.7764 113.96 38.9618 114.063C39.162 114.175 39.3249 114.301 39.4503 114.44L39.4501 114.44C39.5854 114.583 39.6872 114.747 39.7554 114.932C39.8225 115.113 39.8561 115.311 39.8561 115.525C39.8561 115.804 39.8021 116.063 39.6943 116.299C39.5864 116.537 39.4264 116.747 39.2143 116.931C39.0094 117.108 38.7732 117.24 38.5056 117.327C38.2472 117.411 37.9628 117.453 37.6524 117.453C37.5051 117.453 37.3788 117.448 37.2737 117.438C37.2114 117.433 37.143 117.423 37.0686 117.41C37.0159 117.401 36.9263 117.383 36.7997 117.357L36.7996 117.358C36.6749 117.336 36.5599 117.306 36.4545 117.268C36.3497 117.231 36.2539 117.186 36.1672 117.132C36.117 117.11 36.0702 117.084 36.0266 117.054C35.9712 117.015 35.9246 116.97 35.8867 116.92L35.834 116.85L35.7676 116.585V116.535C35.7676 116.361 35.8237 116.218 35.9358 116.105C35.9945 116.046 36.0654 116 36.1483 115.967C36.2131 115.941 36.2832 115.925 36.3585 115.917L36.3916 115.914H36.6827L36.7972 116.028L36.7972 116.028Z" fill="white"/>
<path d="M23.735 113.954V110.649C23.735 110.563 23.751 110.481 23.783 110.401C23.8151 110.321 23.8625 110.249 23.9251 110.187L23.9267 110.185C23.9896 110.122 24.0612 110.075 24.1415 110.043C24.2213 110.011 24.3039 109.995 24.3894 109.995C24.4949 109.995 24.5917 110.02 24.6798 110.072V110.074C24.7669 110.125 24.8366 110.196 24.8886 110.287L24.919 110.34L24.9888 110.654V113.768C24.9888 114.208 25.0327 114.587 25.1206 114.904C25.2031 115.202 25.3231 115.446 25.4805 115.636L25.4812 115.636C25.6366 115.82 25.8322 115.958 26.0677 116.051C26.3194 116.15 26.6207 116.199 26.9713 116.199C27.3204 116.199 27.6185 116.152 27.8656 116.056C28.0968 115.967 28.2882 115.834 28.4397 115.658L28.4396 115.658C28.5979 115.47 28.7181 115.227 28.8002 114.928C28.888 114.607 28.932 114.221 28.932 113.768V110.649C28.932 110.565 28.948 110.483 28.9799 110.403V110.401C29.0129 110.319 29.0603 110.246 29.1219 110.185L29.1467 110.163C29.2125 110.107 29.2856 110.064 29.366 110.036C29.4439 110.009 29.5247 109.995 29.6083 109.995C29.7121 109.995 29.8089 110.021 29.8987 110.074C29.9862 110.125 30.0559 110.196 30.1073 110.287L30.1378 110.341L30.2076 110.654V113.954C30.2076 114.485 30.14 114.962 30.0048 115.386C29.8653 115.823 29.6542 116.198 29.3715 116.51C29.0851 116.827 28.7362 117.064 28.325 117.222C27.9254 117.376 27.4741 117.453 26.9713 117.453C26.4734 117.453 26.0268 117.377 25.6315 117.227C25.2247 117.072 24.876 116.838 24.5853 116.526C24.2976 116.217 24.0827 115.842 23.9405 115.401C23.8035 114.976 23.735 114.494 23.735 113.954L23.735 113.954Z" fill="white"/>
<path fill-rule="evenodd" clip-rule="evenodd" d="M24.106 97.6235L24.9988 97.5425L24.7353 98.3989C22.9279 104.274 18.8269 106.693 16.5697 107.273V109.858L16.5697 109.858C16.5697 110.589 16.5462 111.265 16.4994 111.885C16.4526 112.503 16.3818 113.065 16.2867 113.57L16.2862 113.57C16.1941 114.08 16.0743 114.545 15.9268 114.966C15.7756 115.398 15.5954 115.785 15.3861 116.129L15.3857 116.128C15.0261 116.738 14.5941 117.281 14.0897 117.758C13.5835 118.237 13.0087 118.645 12.3656 118.984C11.7247 119.323 11.0497 119.578 10.3406 119.747C9.63266 119.916 8.89062 120 8.11454 120C7.16808 120 6.26517 119.857 5.40587 119.571C4.54864 119.285 3.74129 118.858 2.98391 118.289L2.98312 118.29C2.22503 117.725 1.60154 117.086 1.11273 116.372C0.622979 115.657 0.271098 114.87 0.0571917 114.011L0.0555324 114.001L0.0357357 113.912L0.0352172 113.912L0 113.771V113.723C0 113.661 0.00882504 113.601 0.0264544 113.542C0.0458259 113.478 0.076698 113.417 0.119008 113.36L0.139147 113.334L0.158716 113.314C0.209343 113.264 0.268899 113.223 0.337312 113.191C0.386145 113.169 0.443202 113.15 0.508389 113.136L0.560447 113.124H0.599398C0.680047 113.124 0.757906 113.14 0.832914 113.171C0.893185 113.196 0.948459 113.231 0.998723 113.275C1.05265 113.316 1.09947 113.367 1.13915 113.429C1.17202 113.48 1.2014 113.541 1.22725 113.612L1.22695 113.613L1.25088 113.672C1.54497 114.509 1.91776 115.243 2.36923 115.875C2.81563 116.501 3.34013 117.027 3.94266 117.454C4.54526 117.884 5.2111 118.207 5.94015 118.422C6.67368 118.639 7.4754 118.747 8.34531 118.747C8.89285 118.747 9.42232 118.689 9.93366 118.574C10.4477 118.459 10.9495 118.285 11.4391 118.052H11.4407C11.9278 117.825 12.3745 117.55 12.7808 117.228C13.1837 116.909 13.5501 116.539 13.8798 116.12L13.8815 116.118C14.1305 115.805 14.3448 115.45 14.5245 115.051C14.7077 114.646 14.8546 114.198 14.965 113.708V113.706C15.0808 113.205 15.1682 112.595 15.227 111.878C15.2864 111.156 15.316 110.325 15.316 109.386V99.3377C15.316 99.2523 15.332 99.1697 15.3639 99.0899C15.3962 99.0092 15.4436 98.9377 15.506 98.8752C15.5688 98.8122 15.6416 98.7644 15.7242 98.7315C15.8043 98.6996 15.8864 98.6837 15.9703 98.6837C16.0569 98.6837 16.1379 98.6992 16.2132 98.7304H16.2149C16.2988 98.7652 16.3681 98.8165 16.4226 98.8847C16.4778 98.9455 16.517 99.022 16.54 99.1142V99.1159C16.5534 99.1694 16.5627 99.2334 16.5681 99.3079L16.5697 99.3377V102.974C16.836 102.428 17.1558 101.881 17.5357 101.356C18.8799 99.498 20.9847 97.9068 24.106 97.6235ZM16.8079 105.942C18.6582 105.274 21.6452 103.298 23.275 98.9567C21.0705 99.3997 19.5451 100.631 18.5105 102.061C17.5809 103.346 17.0527 104.788 16.8079 105.942Z" fill="white"/>
</svg>
