<svg width="40" height="40" viewBox="0 0 40 40" fill="none" xmlns="http://www.w3.org/2000/svg">
<path d="M39.3152 7.15454C38.9511 3.74329 36.257 1.04858 32.8455 0.684814C24.2902 -0.228271 15.7098 -0.228271 7.15485 0.684814C3.74329 1.04889 1.04889 3.74329 0.684814 7.15454C-0.228271 15.7095 -0.228271 24.2902 0.684814 32.8452C1.04889 36.2567 3.74329 38.9511 7.15454 39.3152C15.7095 40.2283 24.2902 40.2283 32.8455 39.3152C36.257 38.9511 38.9511 36.2567 39.3152 32.8452C40.2283 24.2902 40.2283 15.7098 39.3152 7.15454Z" fill="url(#paint0_radial)"/>
<path d="M37.1396 8.60141C36.8167 5.57437 34.426 3.18332 31.3986 2.86014C23.8071 2.0502 16.1929 2.0502 8.60138 2.86014C5.57434 3.18332 3.18329 5.57437 2.86011 8.60141C2.05017 16.193 2.05017 23.8071 2.86011 31.3983C3.18329 34.4257 5.57434 36.8167 8.60138 37.1396C16.1929 37.9499 23.8071 37.9499 31.3983 37.1396C34.4257 36.8167 36.8167 34.4257 37.1396 31.3983C37.9498 23.8071 37.9498 16.193 37.1396 8.60141Z" fill="url(#paint1_linear)"/>
<path d="M0.599365 32.0159C0.626831 32.2924 0.655212 32.5688 0.684814 32.8453C1.04889 36.2566 3.74329 38.951 7.15485 39.3151C15.7098 40.2281 24.2905 40.2281 32.8455 39.3151C36.257 38.951 38.9511 36.2566 39.3152 32.8453C39.3448 32.5688 39.3732 32.2924 39.4009 32.0159H0.599365Z" fill="url(#paint2_linear)"/>
<path d="M39.3152 32.845C39.8059 28.2482 40.0323 23.644 39.9957 19.0404L30.8527 9.89734C29.7104 8.59333 28.042 7.77942 26.0815 7.70893C22.0499 7.56367 18.0054 7.57099 13.9731 7.70954C10.6241 7.8249 8.28217 10.0759 7.68158 13.3843C7.57568 13.9684 7.51221 14.5601 7.42889 15.1485V24.8476C7.47498 25.1619 7.54272 25.4747 7.56378 25.7909C7.69806 27.8032 8.52509 29.5269 9.84924 30.6929L19.1534 39.9968C23.7195 40.0289 28.2858 39.8018 32.8455 39.3151C36.257 38.951 38.9511 36.2566 39.3152 32.845Z" fill="url(#paint3_linear)"/>
<path d="M39.3152 32.8455C38.9514 36.2564 36.2564 38.9514 32.8455 39.3152C28.2864 39.8016 23.7192 40.029 19.1537 39.9969L9.86359 30.7068C10.9406 31.6495 12.3444 32.2235 13.9734 32.2849C18.0048 32.4362 22.0502 32.4323 26.0815 32.287C29.7278 32.1552 32.3663 29.4565 32.4802 25.8102C32.6016 21.9388 32.6016 18.0573 32.4802 14.1858C32.4283 12.5037 31.8378 11.0236 30.8588 9.90356L39.996 19.0408C40.032 23.6438 39.8056 28.2486 39.3152 32.8455Z" fill="url(#paint4_linear)"/>
<path d="M24.7198 15.6685C23.5486 14.3932 21.868 13.593 20 13.593C16.4618 13.593 13.5931 16.4617 13.5931 19.9999C13.5931 21.8679 14.3933 23.5485 15.6686 24.7197L30.4919 39.543C31.2766 39.4747 32.0612 39.3987 32.8452 39.3151C36.2567 38.951 38.9511 36.2566 39.3152 32.845C39.3988 32.061 39.4748 31.2764 39.5432 30.4918L24.7198 15.6685Z" fill="url(#paint5_linear)"/>
<path d="M39.9225 24.3087L27.9926 12.379C27.7142 12.0137 27.2757 11.7766 26.781 11.7766C25.9393 11.7766 25.2567 12.459 25.2567 13.301C25.2567 13.7957 25.4938 14.2342 25.8591 14.5125L39.7092 28.3629C39.8032 27.0119 39.8743 25.6603 39.9225 24.3087Z" fill="url(#paint6_linear)"/>
<path d="M7.42889 15.1485C7.51221 14.5601 7.57568 13.9684 7.68158 13.3843C8.28186 10.0759 10.6241 7.8249 13.9731 7.70954C18.0054 7.57099 22.0499 7.56367 26.0815 7.70893C29.7266 7.84015 32.3663 10.5391 32.4802 14.1854C32.6013 18.0571 32.6013 21.9384 32.4802 25.8101C32.3663 29.4564 29.7275 32.155 26.0818 32.2866C22.0502 32.4321 18.0048 32.4358 13.9734 32.2844C10.3278 32.1474 7.80762 29.4423 7.56378 25.7906C7.54272 25.4747 7.47498 25.1616 7.42889 24.8473C7.42889 21.6143 7.42889 18.3812 7.42889 15.1485ZM20.0034 30.1256C21.8484 30.1256 23.6954 30.1809 25.538 30.1128C28.4271 30.0057 30.2042 28.2814 30.2716 25.3951C30.3552 21.7986 30.3552 18.1972 30.2716 14.6004C30.2042 11.7147 28.4259 9.95014 25.538 9.8888C21.8726 9.81129 18.2031 9.8119 14.5377 9.8888C11.6718 9.94892 9.88953 11.6777 9.81171 14.5317C9.71283 18.1737 9.71283 21.8221 9.81171 25.4641C9.88953 28.3178 11.6718 30.0066 14.538 30.1128C16.3574 30.1805 18.1815 30.1256 20.0034 30.1256Z" fill="url(#paint7_linear)"/>
<path d="M7.42889 15.1485C7.51221 14.5601 7.57568 13.9684 7.68158 13.3843C8.28186 10.0759 10.6241 7.8249 13.9731 7.70954C18.0054 7.57099 22.0499 7.56367 26.0815 7.70893C29.7266 7.84015 32.3663 10.5391 32.4802 14.1854C32.6013 18.0571 32.6013 21.9384 32.4802 25.8101C32.3663 29.4564 29.7275 32.155 26.0818 32.2866C22.0502 32.4321 18.0048 32.4358 13.9734 32.2844C10.3278 32.1474 7.80762 29.4423 7.56378 25.7906C7.54272 25.4747 7.47498 25.1616 7.42889 24.8473C7.42889 21.6143 7.42889 18.3812 7.42889 15.1485ZM20.0034 30.1256C21.8484 30.1256 23.6954 30.1809 25.538 30.1128C28.4271 30.0057 30.2042 28.2814 30.2716 25.3951C30.3552 21.7986 30.3552 18.1972 30.2716 14.6004C30.2042 11.7147 28.4259 9.95014 25.538 9.8888C21.8726 9.81129 18.2031 9.8119 14.5377 9.8888C11.6718 9.94892 9.88953 11.6777 9.81171 14.5317C9.71283 18.1737 9.71283 21.8221 9.81171 25.4641C9.88953 28.3178 11.6718 30.0066 14.538 30.1128C16.3574 30.1805 18.1815 30.1256 20.0034 30.1256Z" fill="white"/>
<path d="M20 13.5933C16.4618 13.5933 13.5931 16.4616 13.5931 19.9998C13.5931 23.5383 16.4618 26.4067 20 26.4067C23.5385 26.4067 26.4069 23.5383 26.4069 19.9998C26.4069 16.4616 23.5385 13.5933 20 13.5933ZM20 24.2009C17.6797 24.2009 15.799 22.3201 15.799 19.9998C15.799 17.6796 17.6797 15.7988 20 15.7988C22.3203 15.7988 24.201 17.6796 24.201 19.9998C24.201 22.3201 22.3203 24.2009 20 24.2009Z" fill="white"/>
<path d="M28.3051 13.301C28.3051 14.1426 27.6227 14.825 26.781 14.825C25.9393 14.825 25.2567 14.1426 25.2567 13.301C25.2567 12.459 25.9393 11.7766 26.781 11.7766C27.6227 11.7766 28.3051 12.459 28.3051 13.301Z" fill="white"/>
<defs>
<radialGradient id="paint0_radial" cx="0" cy="0" r="1" gradientUnits="userSpaceOnUse" gradientTransform="translate(8.19977 34.9568) scale(44.113)">
<stop stop-color="#FAE100"/>
<stop offset="0.0544" stop-color="#FADC04"/>
<stop offset="0.1167" stop-color="#FBCE0E"/>
<stop offset="0.1829" stop-color="#FCB720"/>
<stop offset="0.2514" stop-color="#FE9838"/>
<stop offset="0.3054" stop-color="#FF7950"/>
<stop offset="0.4922" stop-color="#FF1C74"/>
<stop offset="1" stop-color="#6C1CD1"/>
</radialGradient>
<linearGradient id="paint1_linear" x1="15.3416" y1="17.3797" x2="-52.4231" y2="-20.738" gradientUnits="userSpaceOnUse">
<stop stop-color="#A1B5D8" stop-opacity="0"/>
<stop offset="0.3094" stop-color="#90A2BD" stop-opacity="0.309804"/>
<stop offset="0.7554" stop-color="#7C8B9C" stop-opacity="0.756863"/>
<stop offset="1" stop-color="#748290"/>
</linearGradient>
<linearGradient id="paint2_linear" x1="20" y1="35.3097" x2="20" y2="41.5447" gradientUnits="userSpaceOnUse">
<stop stop-color="#FAE100" stop-opacity="0"/>
<stop offset="0.3068" stop-color="#FCA800" stop-opacity="0.305882"/>
<stop offset="0.6275" stop-color="#FE7300" stop-opacity="0.627451"/>
<stop offset="0.8685" stop-color="#FF5200" stop-opacity="0.866667"/>
<stop offset="1" stop-color="#FF4500"/>
</linearGradient>
<linearGradient id="paint3_linear" x1="17.7244" y1="17.6677" x2="7.82505" y2="7.76833" gradientUnits="userSpaceOnUse">
<stop stop-color="#833AB4" stop-opacity="0"/>
<stop offset="1" stop-color="#833AB4"/>
</linearGradient>
<linearGradient id="paint4_linear" x1="27.414" y1="36.585" x2="22.4731" y2="13.292" gradientUnits="userSpaceOnUse">
<stop stop-color="#833AB4" stop-opacity="0"/>
<stop offset="1" stop-color="#833AB4"/>
</linearGradient>
<linearGradient id="paint5_linear" x1="29.2941" y1="29.294" x2="9.44852" y2="9.44838" gradientUnits="userSpaceOnUse">
<stop stop-color="#833AB4" stop-opacity="0"/>
<stop offset="1" stop-color="#833AB4"/>
</linearGradient>
<linearGradient id="paint6_linear" x1="30.7661" y1="17.2861" x2="24.2036" y2="10.7235" gradientUnits="userSpaceOnUse">
<stop stop-color="#833AB4" stop-opacity="0"/>
<stop offset="1" stop-color="#833AB4"/>
</linearGradient>
<linearGradient id="paint7_linear" x1="27.9421" y1="12.1131" x2="11.7611" y2="28.294" gradientUnits="userSpaceOnUse">
<stop stop-color="#833AB4"/>
<stop offset="0.0922" stop-color="#9C3495"/>
<stop offset="0.2927" stop-color="#DC2546"/>
<stop offset="0.392" stop-color="#FD1D1D"/>
<stop offset="0.5589" stop-color="#FC6831"/>
<stop offset="0.6887" stop-color="#FC9B40"/>
<stop offset="0.7521" stop-color="#FCAF45"/>
<stop offset="0.7806" stop-color="#FDB750"/>
<stop offset="0.8656" stop-color="#FECB6A"/>
<stop offset="0.9415" stop-color="#FFD87A"/>
<stop offset="1" stop-color="#FFDC80"/>
</linearGradient>
</defs>
</svg>
