<svg width="100" height="18" viewBox="0 0 100 18" fill="none" xmlns="http://www.w3.org/2000/svg">
<path d="M96.987 14.8054L97.0261 14.8225C97.0558 14.8354 97.083 14.847 97.1073 14.8571C97.1317 14.8644 97.161 14.8723 97.1954 14.8809C97.226 14.8885 97.2632 14.8968 97.307 14.9056L97.3069 14.9063C97.3511 14.9145 97.3875 14.921 97.4164 14.9258C97.4361 14.9291 97.4621 14.9327 97.4931 14.9366C97.5147 14.9393 97.5365 14.9411 97.5585 14.9419C97.5741 14.9425 97.6178 14.9428 97.6895 14.9428C97.828 14.9428 97.9478 14.9292 98.0488 14.902C98.1362 14.8784 98.2086 14.8457 98.2658 14.8039C98.3157 14.7647 98.3526 14.7189 98.3766 14.6665C98.4023 14.6103 98.4152 14.5398 98.4152 14.4551C98.4152 14.3812 98.4074 14.3209 98.3918 14.2744C98.3799 14.2386 98.3632 14.2095 98.3419 14.1871L98.3286 14.1725C98.3077 14.1479 98.2565 14.1139 98.1751 14.0707C98.0655 14.0126 97.9272 13.9535 97.7603 13.8936L97.5412 13.8177L97.5409 13.8185C97.0333 13.6525 96.6459 13.4387 96.3788 13.1769C96.082 12.8859 95.9336 12.5439 95.9336 12.1507C95.9336 11.8394 95.9947 11.5507 96.1171 11.2848C96.2389 11.0201 96.4194 10.7838 96.6587 10.5759L96.66 10.5746C96.7746 10.4768 96.8998 10.3896 97.0355 10.3131C97.171 10.2367 97.3117 10.1737 97.4576 10.124C97.6068 10.0732 97.7628 10.0353 97.9254 10.0104C98.0864 9.98574 98.2542 9.97339 98.4287 9.97339C98.5014 9.97339 98.5721 9.97532 98.6408 9.97913C98.7124 9.98312 98.7689 9.98919 98.8104 9.99736C98.8525 10.0025 98.898 10.0104 98.947 10.021C99.005 10.0335 99.0755 10.051 99.1586 10.0733L99.1584 10.0739C99.2497 10.0948 99.3331 10.1198 99.4086 10.149C99.495 10.1823 99.573 10.2215 99.6426 10.2666L99.6452 10.268L99.69 10.2977C99.7284 10.3217 99.7652 10.3499 99.8004 10.3822C99.8391 10.4176 99.8715 10.4549 99.8976 10.4938L99.9125 10.516L100 10.708V10.7787C100 10.8422 99.9884 10.904 99.9652 10.9644C99.9401 11.0295 99.9038 11.0856 99.8566 11.1328L99.802 11.1873L99.531 11.2772L99.3662 11.2449L99.2635 11.2008L99.1619 11.1444L99.162 11.1443C99.1105 11.1179 99.0546 11.0939 98.9946 11.0724C98.9343 11.0508 98.8637 11.0306 98.783 11.0118L98.783 11.0115C98.7565 11.0054 98.723 10.9987 98.6828 10.9916C98.6323 10.9826 98.5948 10.9765 98.5698 10.9732C98.5017 10.9641 98.4253 10.9595 98.3407 10.9595C98.1187 10.9595 97.9202 10.9893 97.7453 11.0487C97.5759 11.1063 97.4262 11.192 97.2963 11.3057L97.2936 11.3083C97.167 11.4168 97.0729 11.5374 97.0114 11.6702C96.9505 11.8018 96.92 11.9503 96.92 12.1157C96.92 12.2514 96.9919 12.3821 97.1356 12.5077C97.3231 12.6715 97.6169 12.821 98.017 12.956L98.0169 12.9563L98.2049 13.0161L98.2053 13.0149C98.4004 13.0767 98.5722 13.149 98.7206 13.2318C98.8752 13.3181 99.0029 13.4163 99.1035 13.5262L99.1037 13.5259C99.216 13.6422 99.3002 13.776 99.3562 13.9274C99.41 14.0726 99.4369 14.231 99.4369 14.4024C99.4369 14.6264 99.3937 14.8332 99.3073 15.023C99.2209 15.213 99.0927 15.3816 98.9228 15.5287C98.7587 15.6705 98.5696 15.7762 98.3553 15.8457C98.1483 15.9129 97.9205 15.9465 97.6719 15.9465C97.5539 15.9465 97.4528 15.9427 97.3686 15.9351C97.3187 15.9305 97.2639 15.923 97.2043 15.9126C97.162 15.9052 97.0902 15.891 96.989 15.87L96.9888 15.8707C96.8891 15.853 96.7969 15.8291 96.7125 15.7991C96.6274 15.7689 96.5508 15.7326 96.4827 15.6902L96.4721 15.6849C96.4358 15.6686 96.4017 15.6493 96.3697 15.6269C96.3254 15.596 96.2881 15.5603 96.2577 15.5198L96.2155 15.4636L96.1623 15.2514V15.2116C96.1623 15.1535 96.1714 15.0972 96.1897 15.0427C96.2129 14.9733 96.2487 14.9145 96.297 14.8662L96.2976 14.8669C96.3446 14.8198 96.4012 14.7832 96.4672 14.7569C96.5191 14.7362 96.5753 14.7229 96.6356 14.7168L96.6621 14.7142H96.8953L96.987 14.8053L96.987 14.8054Z" fill="url(#paint0_linear)"/>
<path d="M88.2049 14.3125L87.5325 15.5895L87.5193 15.612C87.4955 15.6499 87.4719 15.6828 87.4486 15.7107C87.4272 15.7363 87.4047 15.7597 87.381 15.7808C87.349 15.812 87.3103 15.84 87.2649 15.8648C87.2247 15.8867 87.1833 15.9038 87.141 15.916L87.0948 15.9292H87.0482C86.9368 15.9292 86.8354 15.8905 86.7436 15.8132C86.6844 15.7632 86.6317 15.6971 86.5855 15.6148L86.5815 15.6056L84.0163 10.7167L83.9932 10.648L83.9546 10.4798V10.4448C83.9546 10.3862 83.9659 10.3285 83.9886 10.2719C84.0119 10.2131 84.0459 10.1615 84.0904 10.1171L84.0984 10.1091L84.1182 10.0933C84.1595 10.0602 84.2027 10.0343 84.2475 10.0156C84.2912 9.99737 84.3377 9.9847 84.3869 9.97765L84.4648 9.96648L84.6965 10.0439L84.8591 10.2059L87.0519 14.4015L87.6603 13.266L86.3513 10.7404L86.3486 10.7364L86.2977 10.6343L86.2455 10.4261L86.2827 10.3269C86.2981 10.2859 86.3105 10.2557 86.3201 10.2366C86.3441 10.1885 86.3717 10.1488 86.4034 10.1171L86.4444 10.0761L86.7167 9.95215L86.9412 10.0196L86.9607 10.0279C87.0144 10.051 87.0617 10.0806 87.1027 10.117H87.104C87.1481 10.1561 87.1827 10.2015 87.208 10.2533L87.2081 10.2532L88.2149 12.1847L89.2247 10.2006L89.2647 10.161C89.2895 10.1364 89.3147 10.1145 89.3402 10.0954C89.3753 10.0691 89.4112 10.0487 89.4478 10.0343L89.4477 10.0341L89.5985 9.97367H89.6616C89.7335 9.97367 89.803 9.99043 89.87 10.024C89.9202 10.0491 89.9646 10.0816 90.0029 10.1214C90.0354 10.1514 90.0634 10.1875 90.087 10.2298C90.1081 10.2676 90.1249 10.3084 90.1374 10.3521L90.1622 10.4387L90.0958 10.7033L88.7676 13.2321L89.3713 14.3902L91.5501 10.2063L91.6904 10.066L91.8978 9.97367H91.9672C92.0319 9.97367 92.0957 9.98794 92.1584 10.0165C92.2011 10.036 92.2405 10.0614 92.2765 10.0928C92.3224 10.1269 92.3601 10.1683 92.3895 10.2172C92.4218 10.2708 92.4427 10.3307 92.4522 10.3971L92.4583 10.4395L92.439 10.6126L92.3931 10.7192L92.3812 10.7417L89.8446 15.5759C89.8224 15.6244 89.7964 15.668 89.7666 15.7066C89.7388 15.7427 89.708 15.7743 89.6742 15.8014C89.6396 15.8343 89.5994 15.8612 89.5536 15.882C89.5038 15.9047 89.4508 15.9195 89.3949 15.9266L89.3737 15.9292H89.3538C89.2467 15.9292 89.1503 15.8918 89.0642 15.8171C89.0103 15.7705 88.9635 15.7101 88.9235 15.636L88.8972 15.5921L88.2049 14.3125V14.3125Z" fill="url(#paint1_linear)"/>
<path d="M77.9846 10.9772C77.7084 10.9772 77.4551 11.0258 77.2248 11.123C76.9926 11.2211 76.7777 11.37 76.5803 11.5699C76.3854 11.7672 76.2399 11.9814 76.1437 12.2124C76.0485 12.4411 76.0009 12.6903 76.0009 12.9599C76.0009 13.2273 76.0488 13.4746 76.1446 13.7018C76.2419 13.9324 76.39 14.1485 76.5891 14.35C76.786 14.5494 77.0006 14.6984 77.2328 14.7969C77.4619 14.8942 77.7125 14.9428 77.9846 14.9428C78.2574 14.9428 78.5082 14.8952 78.737 14.8C78.966 14.7048 79.178 14.5598 79.3728 14.365L79.3735 14.3657C79.5677 14.1713 79.7125 13.9582 79.808 13.7263C79.9032 13.4951 79.9508 13.2396 79.9508 12.9599C79.9508 12.6779 79.9035 12.4205 79.8089 12.1877C79.715 11.9567 79.5726 11.7458 79.3816 11.5549L79.3803 11.5523C79.1895 11.3591 78.9791 11.215 78.7492 11.1199C78.5191 11.0248 78.2642 10.9772 77.9846 10.9772H77.9846ZM77.9846 9.97339C78.3971 9.97339 78.7811 10.0467 79.1363 10.1934C79.4907 10.3398 79.8114 10.5578 80.0983 10.8476C80.388 11.1343 80.6062 11.4548 80.7526 11.8089C80.8994 12.1639 80.9728 12.5475 80.9728 12.9599C80.9728 13.3706 80.8986 13.7532 80.7504 14.1078C80.6028 14.4608 80.3824 14.7824 80.0894 15.0725L80.0901 15.0731C79.949 15.2141 79.7982 15.3398 79.6376 15.4502C79.4783 15.5596 79.3113 15.6513 79.1366 15.7252C78.9608 15.7995 78.7764 15.855 78.5835 15.8915C78.3901 15.9282 78.1904 15.9466 77.9846 15.9466C77.5784 15.9466 77.1988 15.8725 76.8459 15.7244C76.4959 15.5775 76.1741 15.3575 75.8806 15.0643L75.8793 15.063C75.586 14.7696 75.3658 14.448 75.2189 14.0982C75.0707 13.7454 74.9966 13.3659 74.9966 12.9599C74.9966 12.5594 75.0692 12.1831 75.2145 11.831C75.3587 11.4813 75.5731 11.1609 75.8577 10.8698C76.1448 10.5727 76.4669 10.3492 76.8238 10.1991C77.1817 10.0486 77.5687 9.97341 77.9846 9.97341L77.9846 9.97339Z" fill="url(#paint2_linear)"/>
<path d="M67.2941 11.7198C67.2941 11.5305 67.2841 11.3761 67.2642 11.2566C67.2478 11.1584 67.228 11.0905 67.2049 11.0529L67.1969 11.0397C67.1866 11.0211 67.1731 11.0077 67.1566 10.9994C67.127 10.9846 67.0806 10.9772 67.0175 10.9772C66.927 10.9772 66.8155 11.0076 66.6827 11.0685C66.5286 11.1392 66.3499 11.2504 66.1465 11.402L66.1412 11.4047L65.8943 11.5827L65.7462 11.6565L65.6249 11.6807H65.5918C65.495 11.6807 65.4052 11.6556 65.3214 11.6053L65.3081 11.5973L65.2922 11.5854C65.2416 11.5474 65.2012 11.5012 65.1709 11.4465V11.4451C65.1439 11.3965 65.1261 11.3454 65.1171 11.2917L65.1118 11.2598V11.236C65.1118 11.1946 65.1155 11.1554 65.1228 11.1185C65.1343 11.0602 65.1551 11.0081 65.1849 10.9626L65.1949 10.9474L65.2643 10.8667L65.2816 10.8482L65.3166 10.8129L65.3339 10.797C65.4875 10.6623 65.6363 10.5451 65.7802 10.4456C65.9314 10.341 66.0752 10.2562 66.2117 10.1912C66.3517 10.1217 66.4931 10.0685 66.6358 10.0315C66.7852 9.99279 66.93 9.97339 67.0702 9.97339C67.4605 9.97339 67.766 10.116 67.9864 10.401L67.9865 10.401C68.0937 10.5361 68.1735 10.6972 68.2255 10.8844C68.2534 10.9844 68.2732 11.0909 68.2851 11.2039C68.4271 11.0747 68.5594 10.9583 68.6819 10.8547C68.9636 10.6164 69.1991 10.4412 69.3882 10.329C69.5829 10.2135 69.7767 10.1259 69.9693 10.0663C70.1693 10.0044 70.3645 9.97339 70.5549 9.97339C70.7813 9.97339 70.9896 10.0107 71.1797 10.0852C71.373 10.1609 71.5436 10.2743 71.6917 10.4252L71.6923 10.4245C71.8399 10.5721 71.9514 10.7462 72.0267 10.9467C72.0989 11.1391 72.1351 11.35 72.1351 11.579C72.1351 11.7678 72.1128 11.9461 72.0681 12.1137C72.0222 12.2864 71.953 12.4447 71.8606 12.5886L71.858 12.5912C71.7644 12.7334 71.6486 12.8599 71.5106 12.9707C71.376 13.0787 71.2211 13.1721 71.046 13.2511L71.0314 13.2564L70.8802 13.3166H70.7198L70.6734 13.3034C70.6486 13.2963 70.6203 13.2864 70.5891 13.274C70.5496 13.2583 70.5175 13.2422 70.4926 13.2259L70.4354 13.1885L70.3959 13.1292C70.365 13.083 70.3438 13.031 70.3323 12.9735C70.3249 12.9367 70.3212 12.8971 70.3212 12.8545V12.8082L70.3804 12.6012L70.5447 12.4644L70.6018 12.4359C70.7132 12.374 70.8068 12.3106 70.8826 12.2457C70.9479 12.1898 70.998 12.1337 71.033 12.0775L71.0369 12.0708C71.0742 12.014 71.1018 11.9538 71.1199 11.89C71.1389 11.823 71.1484 11.7486 71.1484 11.6669C71.1484 11.5462 71.133 11.4423 71.1023 11.3553C71.0745 11.2767 71.0342 11.21 70.9812 11.1553L70.9732 11.146C70.9246 11.0924 70.8641 11.0516 70.7916 11.0237C70.7111 10.9927 70.6117 10.9772 70.4934 10.9772C70.4003 10.9772 70.2902 11.0022 70.1632 11.0523C70.0184 11.1094 69.8564 11.1972 69.6771 11.3158L69.6769 11.3155C69.4926 11.4393 69.2787 11.6076 69.0353 11.8202C68.8142 12.0132 68.5685 12.2433 68.2982 12.5104V15.3436C68.2982 15.4095 68.2832 15.4752 68.2532 15.5404C68.2318 15.5868 68.2018 15.6326 68.1632 15.6776L68.1633 15.6777C68.1144 15.7347 68.0566 15.7789 67.9899 15.8101C67.9207 15.8424 67.8488 15.8586 67.7741 15.8586C67.6283 15.8586 67.5098 15.8133 67.42 15.7226L67.3911 15.6935L67.3696 15.6577C67.3399 15.6083 67.3192 15.5522 67.3074 15.4893C67.2985 15.4424 67.2941 15.3938 67.2941 15.3436V11.7198L67.2941 11.7198Z" fill="url(#paint3_linear)"/>
<path d="M53.7366 17.873C53.6355 17.873 53.5469 17.864 53.4707 17.8461C53.3587 17.8198 53.268 17.7722 53.1988 17.7033L53.1975 17.702C53.1314 17.6355 53.0859 17.5493 53.0612 17.4434C53.0448 17.3729 53.0366 17.2916 53.0366 17.1995V10.3616H51.6774C51.6172 10.3616 51.5614 10.3542 51.5099 10.3395C51.4325 10.3175 51.3673 10.28 51.3144 10.2272L51.3118 10.2245L51.2906 10.198C51.2554 10.1541 51.2274 10.1046 51.2067 10.0494C51.1914 10.0086 51.1787 9.9609 51.1687 9.90617L51.1621 9.8697V9.84656C51.1621 9.68214 51.2194 9.55661 51.3339 9.47075L51.3897 9.42895L51.6391 9.36682H53.0366V1.54367C53.0366 1.44527 53.065 1.35494 53.1218 1.27255C53.1668 1.20717 53.2278 1.15295 53.3046 1.10987C53.3672 1.07192 53.4357 1.04434 53.5101 1.02703H53.5114C53.5821 1.01061 53.6572 1.00244 53.7366 1.00244H57.1774C58.0086 1.00244 58.7574 1.11006 59.4236 1.32528C60.1004 1.54389 60.6877 1.87201 61.1854 2.30962L61.1848 2.31028C61.6865 2.74863 62.0634 3.26521 62.3154 3.86001C62.5657 4.45059 62.6908 5.1122 62.6908 5.84479C62.6908 6.36798 62.6068 6.86413 62.4386 7.33312C62.2707 7.80153 62.0207 8.23643 61.6887 8.63776C61.3563 9.0396 60.9697 9.37361 60.529 9.63981C60.3264 9.76218 60.1128 9.86997 59.8881 9.96318C59.9989 10.0319 60.105 10.1055 60.2067 10.1838C60.5325 10.435 60.8082 10.7328 61.0337 11.0773L61.0331 11.0777C61.2606 11.4178 61.4311 11.7918 61.5447 12.1996C61.6577 12.6051 61.7142 13.0404 61.7142 13.5056C61.7142 14.1915 61.6067 14.8039 61.392 15.343C61.1734 15.8917 60.8463 16.3579 60.4109 16.7415L60.4102 16.7407C59.9807 17.1218 59.4606 17.4067 58.8497 17.5954C58.2508 17.7805 57.5672 17.873 56.799 17.873H53.7366L53.7366 17.873ZM57.5206 10.3616H54.0583V16.878H56.3503C56.7152 16.878 57.0341 16.8696 57.3071 16.8529C57.446 16.8447 57.5794 16.8334 57.7074 16.8192C57.8284 16.8058 57.9462 16.789 58.0605 16.7689H58.0658C58.266 16.737 58.4548 16.6919 58.6324 16.6336C58.807 16.5764 58.9655 16.5085 59.1077 16.4299L59.1074 16.4293C59.3574 16.2899 59.5789 16.1224 59.7719 15.9269C59.9648 15.7315 60.1298 15.5071 60.2671 15.2539L60.2684 15.2512C60.4099 14.995 60.5159 14.724 60.5864 14.4384C60.6571 14.1519 60.6924 13.8468 60.6924 13.523C60.6924 13.0217 60.6218 12.5771 60.4804 12.1893C60.342 11.8094 60.1348 11.4803 59.859 11.2021C59.5834 10.9239 59.2545 10.7151 58.8726 10.5757C58.4816 10.433 58.0309 10.3616 57.5206 10.3616H57.5206ZM57.3973 2.02365H54.0583V9.36684H57.2301C57.6504 9.36684 58.0136 9.35406 58.3197 9.32854C58.6202 9.30349 58.8616 9.26771 59.0436 9.22124L59.0433 9.22029C59.2339 9.16942 59.4219 9.10131 59.6072 9.01603C59.7949 8.92968 59.9807 8.82572 60.1647 8.70424L60.1645 8.70395C60.3959 8.54798 60.6017 8.36931 60.7821 8.16797C60.9634 7.96552 61.1229 7.73627 61.2606 7.48024L61.2601 7.47999C61.3974 7.22181 61.4998 6.95866 61.5676 6.6905C61.6353 6.42241 61.6691 6.14631 61.6691 5.86221C61.6691 5.29029 61.5721 4.77553 61.378 4.31796C61.1853 3.86359 60.8941 3.45913 60.5045 3.10464L60.5032 3.10331C60.1144 2.74443 59.6645 2.47538 59.1537 2.29623C58.6356 2.11453 58.0501 2.02367 57.3973 2.02367L57.3973 2.02365Z" fill="url(#paint4_linear)"/>
<path d="M38.0385 13.4527V13.5583C38.0385 14.1201 38.1173 14.5022 38.275 14.7048L38.2739 14.7056C38.34 14.7867 38.431 14.8492 38.5469 14.893C38.6817 14.944 38.8509 14.9695 39.0545 14.9695C39.2038 14.9695 39.3216 14.9604 39.4079 14.9422L39.4119 14.9408C39.4558 14.9321 39.499 14.9198 39.5415 14.904C39.586 14.8875 39.6385 14.8634 39.6989 14.832L39.6991 14.8325C39.7852 14.787 39.8792 14.7194 39.9811 14.6298C40.0921 14.5322 40.2075 14.413 40.3272 14.2721L40.3458 14.2509L40.3871 14.2095L40.4522 14.1282L40.4602 14.1202C40.5082 14.0722 40.5637 14.0379 40.627 14.017C40.6751 14.0011 40.7257 13.9933 40.7793 13.9933C40.8437 13.9933 40.9051 14.0043 40.9636 14.0267C41.0147 14.0462 41.0608 14.0731 41.1018 14.1074C41.1552 14.1448 41.198 14.193 41.2301 14.2521C41.2671 14.3201 41.2857 14.3937 41.2857 14.473C41.2857 14.542 41.2682 14.6113 41.2332 14.6812C41.2086 14.7304 41.1777 14.7762 41.1407 14.8188L41.1403 14.8185L41.1344 14.8259L41.1222 14.8489C41.0257 15.0097 40.9021 15.1575 40.7515 15.2921C40.6066 15.4217 40.4371 15.5383 40.2432 15.6419L40.2419 15.6432C40.0529 15.7426 39.8587 15.8178 39.6594 15.8689C39.4568 15.9208 39.2551 15.9468 39.0545 15.9468C38.7202 15.9468 38.4262 15.9028 38.1724 15.8148C37.9002 15.7204 37.6786 15.5764 37.5078 15.383L37.5025 15.3777C37.4197 15.2799 37.3477 15.168 37.2867 15.0422C37.2292 14.924 37.1814 14.7918 37.1432 14.6457C37.1065 14.5057 37.0792 14.3511 37.0613 14.1818C37.0434 14.0127 37.0344 13.8342 37.0344 13.6462V13.5583L37.0358 13.553L37.082 11.1004H35.7897C35.7273 11.1004 35.6672 11.0914 35.6099 11.0735C35.545 11.0533 35.4859 11.0211 35.433 10.9771L35.4092 10.9573L35.3892 10.9333C35.3471 10.8828 35.3158 10.8269 35.2952 10.7653C35.2755 10.7063 35.2656 10.6464 35.2656 10.5854C35.2656 10.5148 35.2781 10.4495 35.3032 10.3896C35.3391 10.3038 35.3964 10.2371 35.4754 10.1897L35.519 10.1635L35.7515 10.1057H37.099L37.2202 6.33719H37.2192C37.2192 6.27443 37.2291 6.21342 37.2488 6.15432C37.2737 6.07942 37.3117 6.01645 37.3625 5.96562L37.3632 5.96629C37.4099 5.91976 37.4607 5.88379 37.5157 5.85839C37.5806 5.82838 37.6477 5.81335 37.7169 5.81335C37.8633 5.81335 37.9781 5.85834 38.0621 5.94829L38.0624 5.94798C38.1098 5.99536 38.1467 6.05615 38.1728 6.13025C38.1891 6.17652 38.2017 6.22874 38.2105 6.28686L38.214 6.31029L38.1166 10.1057H40.1896C40.2557 10.1057 40.3214 10.1207 40.3864 10.1506C40.4335 10.1723 40.4794 10.2023 40.524 10.2405C40.5803 10.2887 40.6235 10.343 40.6537 10.4036C40.6878 10.472 40.7048 10.5443 40.7048 10.6207C40.7048 10.687 40.6924 10.7503 40.6674 10.8107C40.6381 10.8815 40.5931 10.9413 40.5324 10.9899L40.4753 11.0355L40.2307 11.1004H38.0835L38.0373 13.4527H38.0385L38.0385 13.4527Z" fill="url(#paint5_linear)"/>
<path d="M29.4718 14.8053L29.5113 14.8226C29.5282 14.8299 29.5565 14.8418 29.5965 14.8584C29.62 14.8653 29.6479 14.8728 29.6802 14.8809C29.7109 14.8885 29.748 14.8968 29.7919 14.9056L29.7917 14.9063C29.8359 14.9145 29.8723 14.921 29.9013 14.9258C29.9209 14.9291 29.9469 14.9327 29.978 14.9366C29.9995 14.9393 30.0213 14.9411 30.0433 14.9419C30.0589 14.9425 30.1026 14.9428 30.1744 14.9428C30.3129 14.9428 30.4326 14.9292 30.5336 14.902C30.6211 14.8784 30.6934 14.8457 30.7506 14.8039C30.8006 14.7646 30.8375 14.7188 30.8614 14.6665C30.8871 14.6103 30.9 14.5398 30.9 14.4551C30.9 14.3803 30.8922 14.3196 30.8767 14.2732C30.8652 14.2386 30.8486 14.2098 30.8269 14.1871L30.8137 14.1725C30.7928 14.1479 30.7415 14.114 30.66 14.0707C30.5504 14.0126 30.4121 13.9535 30.2452 13.8936L30.026 13.8177L30.0258 13.8185C29.5181 13.6525 29.1307 13.4387 28.8637 13.1769C28.5669 12.8859 28.4185 12.5439 28.4185 12.1507C28.4185 11.8394 28.4796 11.5507 28.602 11.2848C28.7238 11.0201 28.9043 10.7838 29.1435 10.5759L29.1448 10.5746C29.2595 10.4768 29.3846 10.3896 29.5204 10.3131C29.6559 10.2367 29.7967 10.1737 29.9427 10.124C30.0918 10.0732 30.2477 10.0353 30.4103 10.0104C30.5713 9.98574 30.7391 9.97339 30.9136 9.97339C30.9863 9.97339 31.057 9.97532 31.1258 9.97913C31.1973 9.98312 31.2538 9.98919 31.2953 9.99737C31.3374 10.0025 31.3829 10.0104 31.4318 10.021C31.4898 10.0335 31.5604 10.051 31.6434 10.0733L31.6433 10.0739C31.7346 10.0948 31.8181 10.1198 31.8936 10.149C31.9799 10.1823 32.0579 10.2215 32.1274 10.2666L32.1301 10.268L32.1748 10.2977C32.2132 10.3217 32.2502 10.35 32.2856 10.3824C32.3252 10.4187 32.358 10.4563 32.3838 10.4951L32.3967 10.5145L32.4849 10.708V10.7787C32.4849 10.8422 32.4733 10.9041 32.45 10.9644C32.4255 11.028 32.3892 11.0837 32.3414 11.1315L32.285 11.188L32.0159 11.2772L31.851 11.2449L31.7484 11.2008L31.6468 11.1444L31.6468 11.1443C31.5953 11.1179 31.5395 11.0939 31.4795 11.0724C31.4192 11.0508 31.3487 11.0306 31.268 11.0118L31.2681 11.0115C31.2416 11.0054 31.208 10.9988 31.1677 10.9916C31.1171 10.9826 31.0796 10.9765 31.0546 10.9732C31.0222 10.9689 30.9849 10.9653 30.943 10.9626C30.9113 10.9606 30.8721 10.9595 30.8256 10.9595C30.6035 10.9595 30.405 10.9893 30.2302 11.0487C30.0608 11.1063 29.9111 11.192 29.7811 11.3056L29.7785 11.3083C29.6519 11.4167 29.5579 11.5374 29.4964 11.6702C29.4354 11.8018 29.4049 11.9503 29.4049 12.1157C29.4049 12.2514 29.4768 12.3821 29.6205 12.5077C29.808 12.6715 30.1018 12.821 30.5018 12.956L30.5017 12.9563L30.6898 13.0161L30.6901 13.0149C30.8852 13.0766 31.057 13.149 31.2054 13.2318C31.3659 13.3213 31.4963 13.422 31.5967 13.5339L31.5965 13.5341C31.7049 13.6485 31.7865 13.7797 31.8411 13.9274C31.8948 14.0727 31.9217 14.231 31.9217 14.4025C31.9217 14.6264 31.8785 14.8333 31.7922 15.023C31.7057 15.2131 31.5775 15.3817 31.4077 15.5287C31.2436 15.6705 31.0544 15.7762 30.8401 15.8457C30.6332 15.9129 30.4054 15.9466 30.1567 15.9466C30.0388 15.9466 29.9376 15.9427 29.8535 15.9351C29.8035 15.9305 29.7488 15.923 29.6891 15.9126C29.6469 15.9052 29.5752 15.891 29.4738 15.87L29.4737 15.8707C29.3739 15.853 29.2817 15.8291 29.1973 15.7991C29.1134 15.7693 29.0367 15.7327 28.9672 15.6895C28.927 15.6722 28.8895 15.6514 28.8546 15.627C28.8102 15.596 28.7729 15.5603 28.7425 15.5198L28.7003 15.4636L28.6471 15.2514V15.2116C28.6471 15.0722 28.6921 14.958 28.7818 14.8676C28.8289 14.8202 28.8857 14.7833 28.952 14.7569C29.0039 14.7362 29.0601 14.7229 29.1205 14.7169L29.1469 14.7142H29.3801L29.4718 14.8053L29.4718 14.8053Z" fill="url(#paint6_linear)"/>
<path d="M19.0098 13.1446V10.4972C19.0098 10.4289 19.0226 10.3627 19.0482 10.2988C19.074 10.2346 19.1119 10.1772 19.162 10.127L19.1633 10.1256C19.2137 10.0755 19.271 10.0376 19.3354 10.0118C19.3993 9.9862 19.4654 9.97339 19.5339 9.97339C19.6184 9.97339 19.696 9.994 19.7665 10.0352V10.0365C19.8363 10.0773 19.8921 10.1343 19.9337 10.2073L19.9581 10.25L20.014 10.5014V12.9951C20.014 13.3482 20.0492 13.6517 20.1195 13.9056C20.1856 14.1441 20.2817 14.3396 20.4078 14.492L20.4083 14.4916C20.5328 14.6387 20.6895 14.7494 20.8781 14.8237C21.0797 14.9031 21.321 14.9428 21.6019 14.9428C21.8815 14.9428 22.1202 14.9045 22.3181 14.8281C22.5033 14.7566 22.6566 14.6503 22.7779 14.5093L22.7778 14.5092C22.9046 14.359 23.0009 14.164 23.0666 13.9243C23.137 13.6678 23.1722 13.3581 23.1722 12.9951V10.4972C23.1722 10.4299 23.185 10.3641 23.2106 10.3002V10.2989C23.237 10.2328 23.2749 10.175 23.3243 10.1256L23.3442 10.1084C23.3969 10.0632 23.4554 10.0292 23.5198 10.0065C23.5822 9.98444 23.6469 9.9734 23.7139 9.9734C23.797 9.9734 23.8746 9.99446 23.9464 10.0365C24.0165 10.0775 24.0723 10.1345 24.1135 10.2073L24.138 10.2505L24.1939 10.5013V13.1446C24.1939 13.5695 24.1397 13.9516 24.0314 14.2911C23.9197 14.6413 23.7506 14.9416 23.5242 15.1919C23.2948 15.4456 23.0154 15.6357 22.686 15.7622C22.366 15.8851 22.0046 15.9466 21.6018 15.9466C21.203 15.9466 20.8453 15.8863 20.5287 15.7657C20.2029 15.6417 19.9236 15.4546 19.6908 15.2047C19.4604 14.9571 19.2882 14.6567 19.1744 14.3034C19.0647 13.9629 19.0098 13.5766 19.0098 13.1446L19.0098 13.1446Z" fill="url(#paint7_linear)"/>
<path fill-rule="evenodd" clip-rule="evenodd" d="M19.3071 0.0649083L20.0222 0L19.8111 0.685948C18.3635 5.39121 15.079 7.32901 13.2711 7.79348V9.86372L13.2711 9.86372C13.2711 10.4493 13.2523 10.9905 13.2148 11.4874C13.1774 11.9826 13.1206 12.4325 13.0445 12.8372L13.044 12.8371C12.9703 13.2451 12.8743 13.6177 12.7562 13.9549C12.6351 14.3007 12.4907 14.6111 12.3231 14.8861L12.3228 14.8859C12.0348 15.3738 11.6888 15.8089 11.2849 16.1909C10.8794 16.5744 10.419 16.9018 9.90398 17.173C9.39065 17.445 8.85002 17.6487 8.28209 17.7841C7.71506 17.9192 7.12074 17.9869 6.49915 17.9869C5.74111 17.9869 5.01794 17.8722 4.32971 17.6429C3.64313 17.4141 2.9965 17.072 2.38989 16.6167L2.38926 16.6176C1.78209 16.1647 1.28272 15.6525 0.891218 15.0811C0.498961 14.5085 0.217129 13.8782 0.0458063 13.1901L0.0444774 13.1821L0.0286217 13.1109L0.0282064 13.111L0 12.9979V12.9596C0 12.91 0.00706821 12.8617 0.021188 12.8146C0.0367032 12.7629 0.0614295 12.7143 0.095317 12.669L0.111447 12.6475L0.12712 12.6319C0.167669 12.5917 0.215369 12.5589 0.270162 12.5337C0.309274 12.5157 0.354972 12.5008 0.407182 12.4892L0.448877 12.4799H0.480074C0.544668 12.4799 0.607027 12.4924 0.667103 12.5174C0.715376 12.5374 0.759646 12.5651 0.799904 12.6004C0.843094 12.6334 0.880594 12.6746 0.912372 12.7241C0.938702 12.765 0.962232 12.814 0.982938 12.8708L0.982697 12.8709L1.00187 12.9189C1.23741 13.5886 1.53599 14.1768 1.89758 14.6833C2.25512 15.1842 2.6752 15.6055 3.15778 15.9473C3.64042 16.2919 4.17371 16.5504 4.75762 16.7228C5.34513 16.8964 5.98725 16.9831 6.68398 16.9831C7.12252 16.9831 7.54659 16.9371 7.95613 16.8451C8.36781 16.7525 8.76973 16.6131 9.16186 16.4268H9.16319C9.55332 16.2444 9.91109 16.0243 10.2365 15.7666C10.5592 15.5111 10.8526 15.2152 11.1167 14.8789L11.118 14.8775C11.3175 14.627 11.4892 14.3423 11.6331 14.0234C11.7798 13.6983 11.8974 13.3396 11.9859 12.9472V12.9458C12.0786 12.5442 12.1486 12.0562 12.1957 11.482C12.2432 10.9035 12.267 10.238 12.267 9.48548V1.43783C12.267 1.3694 12.2798 1.30327 12.3054 1.23936C12.3312 1.17476 12.3692 1.11745 12.4192 1.06737C12.4695 1.01696 12.5278 0.978655 12.5939 0.952306C12.6581 0.926737 12.7238 0.914034 12.7911 0.914034C12.8604 0.914034 12.9253 0.926444 12.9856 0.951424H12.9869C13.0542 0.979284 13.1096 1.02044 13.1533 1.07503C13.1975 1.12375 13.2289 1.185 13.2473 1.25884V1.26016C13.258 1.30307 13.2655 1.35434 13.2698 1.414L13.2711 1.43784V4.35051C13.4844 3.91315 13.7406 3.47513 14.0448 3.05457C15.1215 1.56622 16.8072 0.291831 19.3071 0.0649083ZM13.4619 6.72717C14.9439 6.19254 17.3362 4.60988 18.6415 1.13266C16.8759 1.48746 15.6542 2.47335 14.8256 3.61881C14.081 4.64802 13.658 5.80293 13.4619 6.72717Z" fill="url(#paint8_linear)"/>
<defs>
<linearGradient id="paint0_linear" x1="97.9668" y1="9.97339" x2="97.9668" y2="15.9465" gradientUnits="userSpaceOnUse">
<stop offset="0.229167" stop-color="#8474CD"/>
<stop offset="1" stop-color="#EDA2C6"/>
</linearGradient>
<linearGradient id="paint1_linear" x1="88.2064" y1="9.95215" x2="88.2064" y2="15.9292" gradientUnits="userSpaceOnUse">
<stop offset="0.229167" stop-color="#8474CD"/>
<stop offset="1" stop-color="#EDA2C6"/>
</linearGradient>
<linearGradient id="paint2_linear" x1="77.9847" y1="9.97339" x2="77.9847" y2="15.9466" gradientUnits="userSpaceOnUse">
<stop offset="0.229167" stop-color="#8474CD"/>
<stop offset="1" stop-color="#EDA2C6"/>
</linearGradient>
<linearGradient id="paint3_linear" x1="68.6234" y1="9.97339" x2="68.6234" y2="15.8586" gradientUnits="userSpaceOnUse">
<stop offset="0.229167" stop-color="#8474CD"/>
<stop offset="1" stop-color="#EDA2C6"/>
</linearGradient>
<linearGradient id="paint4_linear" x1="56.9265" y1="1.00244" x2="56.9265" y2="17.873" gradientUnits="userSpaceOnUse">
<stop offset="0.229167" stop-color="#8474CD"/>
<stop offset="1" stop-color="#EDA2C6"/>
</linearGradient>
<linearGradient id="paint5_linear" x1="38.2757" y1="5.81335" x2="38.2757" y2="15.9468" gradientUnits="userSpaceOnUse">
<stop offset="0.229167" stop-color="#8474CD"/>
<stop offset="1" stop-color="#EDA2C6"/>
</linearGradient>
<linearGradient id="paint6_linear" x1="30.4517" y1="9.97339" x2="30.4517" y2="15.9466" gradientUnits="userSpaceOnUse">
<stop offset="0.229167" stop-color="#8474CD"/>
<stop offset="1" stop-color="#EDA2C6"/>
</linearGradient>
<linearGradient id="paint7_linear" x1="21.6018" y1="9.97339" x2="21.6018" y2="15.9466" gradientUnits="userSpaceOnUse">
<stop offset="0.229167" stop-color="#8474CD"/>
<stop offset="1" stop-color="#EDA2C6"/>
</linearGradient>
<linearGradient id="paint8_linear" x1="10.0111" y1="0" x2="10.0111" y2="17.9869" gradientUnits="userSpaceOnUse">
<stop offset="0.229167" stop-color="#8474CD"/>
<stop offset="1" stop-color="#EDA2C6"/>
</linearGradient>
</defs>
</svg>
