<svg width="726" height="965" viewBox="0 0 726 965" fill="none" xmlns="http://www.w3.org/2000/svg">
<path opacity="0.3" fill-rule="evenodd" clip-rule="evenodd" d="M227.909 0L239.427 4.97078C260.688 14.1459 279.562 21.2072 298.753 28.3873C302.98 29.9689 307.223 31.5562 311.51 33.1732C335.227 42.1186 360.049 51.8814 390.352 66.3645C398.953 70.4753 408.243 75.1293 418.357 80.4464C428.57 85.8154 439.623 91.8607 451.653 98.7054C530.817 143.747 577.016 212.039 601.465 276.608C625.141 339.136 628.774 399.153 621.478 432.28C633.799 466.37 643.449 493.396 649.038 526.225C650.787 536.497 652.134 547.304 653.054 559.049C667.839 501.728 690.228 445.967 721.558 396.587C701.28 365.453 678.951 292.208 721.695 202.939L727.321 191.19L736.065 200.848C769.753 238.056 777.257 279.614 772.905 316.096C772.184 322.14 771.138 328.049 769.833 333.783C783.382 319.253 798.046 305.717 813.878 293.373C817.686 290.405 823.18 291.084 826.15 294.889C829.12 298.695 828.441 304.187 824.634 307.155C794.614 330.559 768.882 358.566 747.081 389.79C744.452 394.09 741.812 397.976 739.254 401.394C690.116 476.809 662.722 568.968 652.39 658.999C639.158 774.286 593.676 884.105 535.821 964.947C506.886 1005.38 474.684 1038.8 441.601 1062.04C408.576 1085.23 374.129 1098.64 340.933 1097.98C276.322 1096.69 215.209 1061.52 163.924 1007.36C112.574 953.125 70.3599 879.162 43.3988 798.387C25.3345 744.267 0.682343 663.34 0.0139501 597.071C-0.319641 563.997 5.27989 533.013 22.183 510.909C39.5677 488.174 67.5279 476.543 107.675 479.574C169.453 484.238 229.015 509.8 266.746 563.222C303.682 615.517 318.579 692.923 296.328 799.721C324.528 811.515 344.087 808.3 353.854 805.516C358.497 804.192 363.335 806.882 364.66 811.523C365.984 816.165 363.293 821 358.65 822.324C344.672 826.308 318.48 829.842 282.528 812.688L276.26 809.697L277.757 802.918C301.471 695.525 286.448 621.423 252.46 573.302C218.47 525.177 164.346 501.381 106.358 497.003C70.4728 494.293 48.9769 504.653 36.0768 521.522C22.6951 539.022 17.181 565.256 17.5001 596.896C18.1372 660.054 41.8555 738.534 59.9871 792.856C86.2839 871.641 127.314 943.265 176.625 995.342C226.001 1047.49 282.966 1079.34 341.281 1080.5C369.547 1081.06 400.392 1069.62 431.547 1047.74C462.646 1025.89 493.513 994.021 521.598 954.778C577.744 876.325 622.076 769.393 634.991 657.227C638.68 598.74 637.205 560.913 631.799 529.156C626.618 498.723 617.782 473.528 605.817 440.396C492.03 416.688 376.336 355.959 303.106 260.51C252.15 194.093 221.896 111.009 227.23 12.5214L227.909 0ZM607.358 397.581C607.531 367.081 601.445 325.935 585.11 282.794C561.777 221.172 517.904 156.511 443.002 113.895C436.363 110.117 430.034 106.592 423.991 103.296C424.864 126.856 423.977 163.512 416.439 196.9C437.26 213.305 460.268 230.343 485.631 247.861C539.678 285.193 580.859 340.037 607.358 397.581ZM401.123 184.63C407.667 149.969 407.342 112.788 405.973 93.6979C402.807 92.0547 399.729 90.4807 396.733 88.9717C398.33 111.628 398.926 146.656 393.887 178.684C396.266 180.656 398.678 182.637 401.123 184.63ZM378.063 165.322C381.877 132.56 380.254 98.0799 378.43 80.0554C350.736 67.0084 327.678 57.9524 305.337 49.5259C301.13 47.9392 296.94 46.372 292.745 44.8026C280.268 40.1349 267.738 35.4476 254.546 30.1713C272.179 59.1732 310.218 106.91 378.063 165.322ZM244.298 46.6738C246.762 125.252 273.535 192.409 315.337 247.713C381.881 268.777 434.985 261.811 462.48 253.012C440.228 237.287 419.84 221.958 401.198 207.132C393.441 200.962 385.986 194.88 378.825 188.892C308.514 130.106 266.214 80.2134 244.298 46.6738ZM479.82 265.148C533.696 303.805 574.133 361.402 598.417 420.883C500.213 398.326 402.366 347.601 334.514 271.103C402.533 286.997 455.522 275.887 479.82 265.148ZM732.435 380.225C742.461 363.697 752.419 340.199 755.541 314.026C758.988 285.133 754.124 253.097 731.811 223.156C702.2 294.636 717.133 352.369 732.292 380.431C732.34 380.362 732.387 380.294 732.435 380.225ZM566.288 501.631C477.37 486.33 402.23 525.075 365.23 582.479C362.615 586.537 357.204 587.707 353.145 585.093C349.085 582.479 347.915 577.071 350.53 573.013C391.407 509.593 473.568 467.941 569.255 484.406C574.014 485.225 577.208 489.744 576.388 494.501C575.569 499.257 571.047 502.45 566.288 501.631ZM553.102 606.87C557.124 609.541 558.217 614.966 555.544 618.985C534.14 651.17 501.175 665.652 470.251 671.302C439.389 676.94 409.642 673.987 392.861 670.457C388.136 669.463 385.111 664.829 386.105 660.106C387.1 655.383 391.737 652.36 396.462 653.354C411.565 656.53 438.965 659.249 467.106 654.108C495.186 648.978 523.079 636.228 540.981 609.31C543.654 605.29 549.081 604.198 553.102 606.87ZM70.6651 616.747C74.7897 614.237 80.1691 615.545 82.6804 619.667C99.1156 646.648 128.508 657.954 158.396 660.751C188.415 663.561 216.703 657.534 228.007 652.292C232.388 650.261 237.586 652.164 239.618 656.543C241.65 660.921 239.747 666.117 235.366 668.148C220.762 674.919 189.275 681.196 156.766 678.154C124.125 675.098 88.2345 662.394 67.744 628.756C65.2327 624.634 66.5406 619.257 70.6651 616.747ZM318.706 899.835C367.117 886.029 402.562 896.399 429.336 916.396L434.89 920.544L432.114 926.895C416.258 963.174 374.264 986.363 331.82 989.606C288.872 992.888 242.916 975.962 219.623 928.959L216.66 922.979L221.65 918.547C237.214 904.723 253.349 896.772 270.335 894.161C286.345 891.701 302.446 894.085 318.706 899.835ZM401.772 920.012C381.223 910.237 355.237 907.056 320.934 917.397L318.098 918.252L315.327 917.208C300.099 911.475 286.174 909.411 272.993 911.436C264.772 912.7 256.549 915.599 248.235 920.536C274.63 925.857 297.566 929.198 321.363 929.547C345.546 929.901 370.882 927.165 401.772 920.012ZM405.083 937.186C373.351 944.491 346.773 947.399 321.107 947.023C296.139 946.657 272.28 943.183 245.749 937.866C266.676 964.544 298.785 974.601 330.487 972.179C360.397 969.893 388.377 956.63 405.083 937.186Z" fill="url(#paint0_linear)"/>
<defs>
<linearGradient id="paint0_linear" x1="414" y1="0" x2="414" y2="1098" gradientUnits="userSpaceOnUse">
<stop offset="0.229167" stop-color="#8474CD"/>
<stop offset="1" stop-color="#EDA2C6"/>
</linearGradient>
</defs>
</svg>
